<svg id="Layer_1" data-name="Layer 1" xmlns="http://www.w3.org/2000/svg" width="602.33" height="728.58" viewBox="0 0 602.33 728.58">
  <title>Монтажная область 114</title>
  <g>
    <path d="M11.3,231.76a4,4,0,0,0-1.15-3.17c-1.87-2.51-5.16-3.37-7.34-1.92a6,6,0,0,0-2.39,3.71,5.47,5.47,0,0,0,1.07,4.23c1.29,1.91,4.31,2.58,6.88,1.54L88.24,350.22a5.72,5.72,0,0,0-2.07,3.86,4.1,4.1,0,0,0,1.16,3.21,5.86,5.86,0,0,0,4.15,2.42h.32a4.07,4.07,0,0,0,2.85-1.14,4.49,4.49,0,0,0,2.35-3,5.25,5.25,0,0,0-1-4.35c-1.28-1.93-4.31-2.6-6.88-1.55L9.22,235.63A5.71,5.71,0,0,0,11.3,231.76Zm77.84,119a5.63,5.63,0,0,1,2.48-.58,4.21,4.21,0,0,1,3.55,1.64,4.29,4.29,0,0,1,.85,3.55,3.5,3.5,0,0,1-1.88,2.35l-.13.09a3.09,3.09,0,0,1-2.46.9,4.87,4.87,0,0,1-3.44-2l0-.05a3.06,3.06,0,0,1-.9-2.46A4.86,4.86,0,0,1,89.14,350.76ZM8.32,235.08c-2.16,1.08-4.91.61-6-1v0a4.39,4.39,0,0,1-.89-3.46,5,5,0,0,1,2-3.07A3.28,3.28,0,0,1,5.22,227a5.37,5.37,0,0,1,4.18,2.26,3,3,0,0,1,.9,2.45A4.8,4.8,0,0,1,8.32,235.08Z" fill="#bababa"/>
    <path d="M162.44,490.78a5.51,5.51,0,0,0-7.93-1.33c-2,1.36-2.67,4.7-1.37,7.29l0,.07a5.52,5.52,0,0,0,7.4,1.69l38.29,55.36a7,7,0,0,0-1,7.52l.09.13a7,7,0,0,0,4.89,2,6.51,6.51,0,0,0,2.94-.68l.13-.09a7,7,0,0,0,1.3-7.83l-.09-.13a7,7,0,0,0-7.43-1.48L161.4,497.93a5.39,5.39,0,0,0,1.66-3.22A5.45,5.45,0,0,0,162.44,490.78Zm37.37,63.54a4.69,4.69,0,1,1-1.1,6.54A5.93,5.93,0,0,1,199.81,554.32Zm-37.73-59.78a4.5,4.5,0,0,1-1.26,2.56l-.18-.27-.82.57.19.27a4.49,4.49,0,0,1-6-1.42c-1-2.15-.57-4.88,1.08-6a4.5,4.5,0,0,1,6.54,1.08A4.55,4.55,0,0,1,162.08,494.54Z" fill="#bababa"/>
    <path d="M105.28,319.11a7.29,7.29,0,0,0-.85-4.13,5.89,5.89,0,0,0-4.17-2.46,4,4,0,0,0-3.18,1.15,5.81,5.81,0,0,0-2.45,4.16A4.1,4.1,0,0,0,95.76,321a4.51,4.51,0,0,0,3,2.34,5.16,5.16,0,0,0,4-.74l37.56,54.24a7,7,0,0,0-1,7.52l.09.13a7,7,0,0,0,4.9,2,6.5,6.5,0,0,0,2.93-.68l.13-.09a7,7,0,0,0,1.3-7.83l-.09-.13a7,7,0,0,0-7.43-1.48l-37.53-54.19A4,4,0,0,0,105.28,319.11Zm35.91,58.2a4.69,4.69,0,1,1-1.1,6.54A5.93,5.93,0,0,1,141.19,377.31Zm-38.67-55.79a4.33,4.33,0,0,1-3.55.86,3.54,3.54,0,0,1-2.35-1.89l-.09-.13a3.06,3.06,0,0,1-.9-2.46,4.94,4.94,0,0,1,2.1-3.48,3.05,3.05,0,0,1,2.21-.91h.25a4.82,4.82,0,0,1,3.39,2,6.37,6.37,0,0,1,.71,3.49A3.16,3.16,0,0,1,102.52,321.52Z" fill="#bababa"/>
    <path d="M213.71,667.69a5.84,5.84,0,0,0-2.45,4.16,4.11,4.11,0,0,0,1.17,3.21,5.82,5.82,0,0,0,4.14,2.42l.32,0a4.06,4.06,0,0,0,2.86-1.15,4.45,4.45,0,0,0,2.34-3,5.29,5.29,0,0,0-1-4.35C219.72,667,216.38,666.35,213.71,667.69Zm7.41,5.45a3.46,3.46,0,0,1-1.89,2.35l-.13.1a3.11,3.11,0,0,1-2.46.9,4.83,4.83,0,0,1-3.43-2.06l-.05,0a3,3,0,0,1-.9-2.46,4.84,4.84,0,0,1,2-3.39,5.55,5.55,0,0,1,2.47-.57,4.19,4.19,0,0,1,3.55,1.64A4.31,4.31,0,0,1,221.12,673.14Z" fill="#bababa"/>
    <path d="M276.66,475.68a5.84,5.84,0,0,0-4.17-2.46,4.06,4.06,0,0,0-3.17,1.14,4.47,4.47,0,0,0-2.35,3,5.3,5.3,0,0,0,1,4.34,4.46,4.46,0,0,0,3,2.37,5.19,5.19,0,0,0,3.95-.73l8.48,12.43a4.44,4.44,0,0,0-1.92,2.73,5.32,5.32,0,0,0,1,4.37,5.19,5.19,0,0,0,4.35,2,6.66,6.66,0,0,0,3-.7,5.43,5.43,0,0,0,1.31-7.35,5.81,5.81,0,0,0-4.16-2.45,4.09,4.09,0,0,0-2.79.8l-8.48-12.45a6.12,6.12,0,0,0,.93-7Zm7.68,20.68.13-.1a3.06,3.06,0,0,1,2.2-.9h.26a4.82,4.82,0,0,1,3.42,2,4.41,4.41,0,0,1-1,5.92c-2.16,1.08-4.91.6-6-1v0a4.33,4.33,0,0,1-.86-3.55A3.46,3.46,0,0,1,284.34,496.36Zm-8-16.92a4.21,4.21,0,0,1-1.55,2.78,4.28,4.28,0,0,1-3.55.85,3.5,3.5,0,0,1-2.35-1.88l-.05-.08a4.32,4.32,0,0,1-.85-3.55,3.51,3.51,0,0,1,1.89-2.35l.13-.09a3,3,0,0,1,2.2-.91h.25a4.81,4.81,0,0,1,3.42,2A4.5,4.5,0,0,1,276.3,479.44Z" fill="#bababa"/>
    <path d="M309.12,397.28l.13-.09c2-2,2.59-5.29,1.25-7.3a5.81,5.81,0,0,0-4.17-2.45,4.06,4.06,0,0,0-3.17,1.13,4.45,4.45,0,0,0-2.34,3,5.19,5.19,0,0,0,.73,3.94l-.19-.28-82.22,57.36c-1.43-1.9-4.65-2.46-7.16-1.21l-.13.1a6.93,6.93,0,0,0-1.3,7.82l.09.13a6.82,6.82,0,0,0,4.71,2,4.66,4.66,0,0,0,2.59-.72,6,6,0,0,0,2.38-3.71,5.35,5.35,0,0,0-.62-3.56L301.92,396C303.34,398,306.59,398.55,309.12,397.28Zm-89.78,59.5a5,5,0,0,1-2,3.07c-1.56,1-4.27.54-6-1.09a5.94,5.94,0,0,1,1.1-6.54c2.07-1,4.65-.58,5.82.92l-1,.68.58.82.94-.66A4.23,4.23,0,0,1,219.34,456.78Zm82.45-65a3.46,3.46,0,0,1,1.89-2.35l.13-.1a3,3,0,0,1,2.2-.9h.25a4.83,4.83,0,0,1,3.43,2c1,1.56.54,4.27-1.09,5.95-2.15,1-4.85.55-5.94-1.07v0A4.31,4.31,0,0,1,301.79,391.78Z" fill="#bababa"/>
    <path d="M349.78,580.79a5.84,5.84,0,0,0-4.16-2.45,4.14,4.14,0,0,0-3.18,1.13,4.47,4.47,0,0,0-2.34,3,5.28,5.28,0,0,0,1,4.34,4.49,4.49,0,0,0,3,2.38,5.27,5.27,0,0,0,4-.74l51.2,73.81a4,4,0,0,0-2.17,3.22,7.22,7.22,0,0,0,.81,4.06l.09.13a6.82,6.82,0,0,0,4.7,2,4.59,4.59,0,0,0,2.6-.73,5.81,5.81,0,0,0,2.45-4.16,4.08,4.08,0,0,0-1.13-3.18,4.51,4.51,0,0,0-3-2.34,5.1,5.1,0,0,0-3.52.49l-51.24-73.87C350.57,586.33,351,583.27,349.78,580.79Zm53.61,81.41a3.5,3.5,0,0,1,2.35,1.88l.1.13a3.09,3.09,0,0,1,.89,2.46,4.85,4.85,0,0,1-2,3.42c-1.56,1-4.27.54-6-1.09a6.35,6.35,0,0,1-.67-3.42,3.16,3.16,0,0,1,1.77-2.53A4.29,4.29,0,0,1,403.39,662.2Zm-55.52-74.86a4.28,4.28,0,0,1-3.55.85,3.52,3.52,0,0,1-2.35-1.88l0-.08a4.32,4.32,0,0,1-.86-3.55,3.48,3.48,0,0,1,1.89-2.35l.13-.09a3,3,0,0,1,2.2-.91h.25a4.84,4.84,0,0,1,3.4,2C350,583.48,349.54,586.23,347.87,587.34Z" fill="#bababa"/>
    <path d="M306.21,520.54a4.12,4.12,0,0,0-1.14-3.18,4.49,4.49,0,0,0-3-2.34,5.24,5.24,0,0,0-4.31,1,4.52,4.52,0,0,0-2.41,3,5.28,5.28,0,0,0,1,4.34,4.08,4.08,0,0,0,2.68,2,6.24,6.24,0,0,0,4.11-.38l23.21,33.06a7,7,0,0,0-1,7.52l.09.13a7,7,0,0,0,4.9,2,6.5,6.5,0,0,0,2.93-.68l.13-.09a7,7,0,0,0,1.3-7.83l-.09-.13a7,7,0,0,0-7.44-1.48L304,524.5A5.81,5.81,0,0,0,306.21,520.54Zm21.11,38a4.69,4.69,0,1,1-1.09,6.54A5.93,5.93,0,0,1,327.32,558.55Zm-23.88-34.87-.18-.27-.82.58.15.21a5.25,5.25,0,0,1-3.28.24,3.11,3.11,0,0,1-2.06-1.57l0-.07a4.33,4.33,0,0,1-.86-3.55,3.58,3.58,0,0,1,2-2.4,4.55,4.55,0,0,1,2.7-1,3.56,3.56,0,0,1,3.2,2l.09.13a3.09,3.09,0,0,1,.9,2.46A4.78,4.78,0,0,1,303.44,523.68Z" fill="#bababa"/>
    <path d="M257,495.52a7.22,7.22,0,0,0-.85-4.14,5.43,5.43,0,0,0-7.34-1.31,5.86,5.86,0,0,0-2.46,4.17,4.09,4.09,0,0,0,1.14,3.17,4.47,4.47,0,0,0,3,2.35,5.17,5.17,0,0,0,3.95-.74l66.16,95.61a5.57,5.57,0,0,0-1.71,3.52,4.12,4.12,0,0,0,1.13,3.17,4.51,4.51,0,0,0,3,2.35,5,5,0,0,0,1.09.12,5.37,5.37,0,0,0,3.22-1.11,4,4,0,0,0,2.23-3.25,7.24,7.24,0,0,0-.85-4.14A5.44,5.44,0,0,0,321.3,594l-66.08-95.48A4.06,4.06,0,0,0,257,495.52Zm64.9,99.28a4.43,4.43,0,0,1,2.44-.72,4.29,4.29,0,0,1,3.48,1.74,6.28,6.28,0,0,1,.71,3.49,3.15,3.15,0,0,1-1.77,2.53,4.28,4.28,0,0,1-3.55.85,3.5,3.5,0,0,1-2.35-1.88l-.09-.13a3.06,3.06,0,0,1-.9-2.46A4.83,4.83,0,0,1,321.86,594.8ZM254.2,497.93a4.27,4.27,0,0,1-3.54.85,3.5,3.5,0,0,1-2.36-1.89l-.09-.13a3,3,0,0,1-.9-2.45,4.83,4.83,0,0,1,2-3.42,4.48,4.48,0,0,1,2.44-.72,4.3,4.3,0,0,1,3.49,1.74,6.34,6.34,0,0,1,.7,3.48A3.15,3.15,0,0,1,254.2,497.93Z" fill="#bababa"/>
    <path d="M45.6,386.84v0a5.81,5.81,0,0,0,4.62,2.47,5.53,5.53,0,0,0,3.31-1.14c2.05-1.36,2.68-4.7,1.33-7.36a5.49,5.49,0,0,0-7.39-1.67L9.27,324.5a4.42,4.42,0,0,0,1.91-2.73,5.19,5.19,0,0,0-1-4.3,4.49,4.49,0,0,0-3-2.42,5.31,5.31,0,0,0-4.36,1c-2,1.36-2.67,4.69-1.38,7.28l.05.08a5.81,5.81,0,0,0,4.17,2.45,4.08,4.08,0,0,0,2.78-.8l38.23,54.68C44.81,381.79,44.31,384.92,45.6,386.84ZM8.32,323.89l-.13.09a3,3,0,0,1-2.45.9,4.8,4.8,0,0,1-3.41-2c-1.06-2.15-.58-4.87,1.08-6A4.32,4.32,0,0,1,7,316a3.55,3.55,0,0,1,2.39,2,4.29,4.29,0,0,1,.86,3.55A3.48,3.48,0,0,1,8.32,323.89Zm39,56.7.15.22.82-.57-.19-.27a4.49,4.49,0,0,1,6,1.38c1.08,2.16.6,4.91-1.06,6a4.5,4.5,0,0,1-6.55-1.1C45.43,384.78,45.85,382.24,47.27,380.59Z" fill="#bababa"/>
    <path d="M533.3,638.79a5.86,5.86,0,0,0,4.17,2.45h.31a4,4,0,0,0,2.5-.86L579,695.16a5.89,5.89,0,0,0-2.06,3.43,5.43,5.43,0,0,0,1.06,4.22,5.21,5.21,0,0,0,4.36,2,6.74,6.74,0,0,0,3-.71,6,6,0,0,0,2.38-3.71,5.39,5.39,0,0,0-1.06-4.21c-1.27-1.91-4.25-2.56-6.81-1.56L541.1,639.81a4.46,4.46,0,0,0,1.89-2.68,5.22,5.22,0,0,0-1-4.3c-1.4-2.8-4.77-2.71-7.39-1.39a5.42,5.42,0,0,0-1.33,7.32Zm46.55,56.93a5.63,5.63,0,0,1,2.48-.58,4.22,4.22,0,0,1,3.55,1.64,4.44,4.44,0,0,1,.89,3.47,5,5,0,0,1-1.93,3c-2.16,1.09-4.91.61-6-1l0,0a4.38,4.38,0,0,1-.89-3.46A5,5,0,0,1,579.85,695.72Zm-44.72-63.43c2.12-1.06,4.89-1.2,6,1.06a4.28,4.28,0,0,1,.85,3.55,3.44,3.44,0,0,1-1.49,2.09l-.64-.9-.81.58.64.9a3,3,0,0,1-2.17.67,4.87,4.87,0,0,1-3.43-2A4.41,4.41,0,0,1,535.13,632.29Z" fill="#bababa"/>
    <path d="M492.88,670a4.08,4.08,0,0,0,1.13,3.18,4.51,4.51,0,0,0,3,2.34,4.9,4.9,0,0,0,1.08.12,5.42,5.42,0,0,0,3.22-1.1,4.49,4.49,0,0,0,2.41-3,5.25,5.25,0,0,0-1-4.35c-1.36-2-4.68-2.67-7.34-1.34l.69-.48L350.52,455.92l5.32-29.57a4.92,4.92,0,0,0,2.91-.72,6,6,0,0,0,2.38-3.71,5.41,5.41,0,0,0-1.06-4.22c-1.36-2-4.7-2.67-7.36-1.33a5.94,5.94,0,0,0-2.38,3.71,5.44,5.44,0,0,0,1.07,4.24l.05.05a6.79,6.79,0,0,0,3.4,1.84L349.49,456l.09.37L495.22,666l0,0A5.83,5.83,0,0,0,492.88,670ZM352.18,423.69a4.4,4.4,0,0,1-.87-3.44,5,5,0,0,1,1.92-3c2.16-1.09,4.91-.61,6,1.06a4.43,4.43,0,0,1,.89,3.46,5,5,0,0,1-2,3.07C356.59,425.86,353.86,425.35,352.18,423.69Zm143.67,243a5.63,5.63,0,0,1,2.48-.58,4.22,4.22,0,0,1,3.55,1.64,4.33,4.33,0,0,1,.85,3.55,3.59,3.59,0,0,1-2,2.4,4.29,4.29,0,0,1-3.55.85,3.48,3.48,0,0,1-2.35-1.88l-.1-.13a3.13,3.13,0,0,1-.9-2.46A4.84,4.84,0,0,1,495.85,666.72Z" fill="#bababa"/>
    <path d="M396.07,577.09l.1.13a6.92,6.92,0,0,0,4.89,2,6.66,6.66,0,0,0,2.94-.67l.13-.09c2-2,2.59-5.29,1.25-7.3a5.51,5.51,0,0,0-7.52-1.61L300.52,428.37l41.29-28.71.13-.7-30.22-43.49-.32-.21-34.85-6L250.92,312.3c1.79-2,2.24-5.08,1-7A5.51,5.51,0,0,0,244,304c-2,1.36-2.67,4.7-1.37,7.29l0,.08c2,2.68,5.2,2.53,7.48,1.54L275.85,350l.32.2,34.85,6,29.81,42.91-41.29,28.72-.12.69,97.63,141.58C395.33,571.62,394.87,574.68,396.07,577.09ZM250,311.84c-1.95,1-4.79,1.22-6.53-1.06-1-2.15-.58-4.88,1.08-6a4.49,4.49,0,0,1,6.54,1.09C252.11,307.45,251.61,310.16,250,311.84ZM398,570.62a4.49,4.49,0,0,1,6.53,1.08c1.05,1.57.55,4.28-1.08,6a6,6,0,0,1-6.55-1.09C395.9,574.42,396.38,571.72,398,570.62Z" fill="#bababa"/>
    <path d="M55.27,535.46v0a5.8,5.8,0,0,0,4.62,2.46,5.46,5.46,0,0,0,3.31-1.14c2-1.36,2.68-4.69,1.33-7.36a5.52,5.52,0,0,0-7.51-1.6L9.56,458.17l-.23.16c1.67-2,2.06-5,.82-6.82a5.5,5.5,0,0,0-7.92-1.33c-2,1.37-2.68,4.7-1.38,7.29l0,.08a5.52,5.52,0,0,0,7.93,1.31l47.43,69.62C54.46,530.52,54,533.57,55.27,535.46Zm-47-77.41A4.5,4.5,0,0,1,1.72,457c-1-2.15-.57-4.88,1.08-6a4.49,4.49,0,0,1,6.54,1.09C10.39,453.67,9.87,456.42,8.25,458.05Zm48.94,70.88a4.49,4.49,0,0,1,6.51,1c1.08,2.16.6,4.91-1.07,6a4.5,4.5,0,0,1-6.54-1.1C55.05,533.3,55.57,530.56,57.19,528.93Z" fill="#bababa"/>
    <path d="M259.13,675a5.81,5.81,0,0,0-4.16-2.45,4.1,4.1,0,0,0-3.18,1.13,4.48,4.48,0,0,0-2.34,3,5.28,5.28,0,0,0,1,4.34c1.33,2.59,4.37,2.66,6.9,1.56l25.15,35.92.82-.58L258.2,682.08A5.42,5.42,0,0,0,259.13,675Zm-1.83,6.5c-2.11,1.05-4.88,1.2-6-1l-.05-.08a4.31,4.31,0,0,1-.86-3.54,3.52,3.52,0,0,1,1.89-2.35l.13-.1a3.09,3.09,0,0,1,2.2-.91h.26a4.85,4.85,0,0,1,3.42,2A4.43,4.43,0,0,1,257.3,681.54Z" fill="#bababa"/>
    <path d="M119.41,580.63a4.08,4.08,0,0,0,1.13,3.18,4.51,4.51,0,0,0,3,2.34,4.9,4.9,0,0,0,1.08.12,5.42,5.42,0,0,0,3.22-1.1,4.49,4.49,0,0,0,2.41-3,5.25,5.25,0,0,0-1-4.35,5.09,5.09,0,0,0-3.42-2,5.89,5.89,0,0,0-3.49.37L41.22,459.71c1.79-2,2.24-5.08,1-7A5.81,5.81,0,0,0,38,450.27a4.06,4.06,0,0,0-3.18,1.13,4.45,4.45,0,0,0-2.34,3,5.28,5.28,0,0,0,1,4.34,4.5,4.5,0,0,0,3,2.37,5.14,5.14,0,0,0,3.94-.74l81,116.42A5.72,5.72,0,0,0,119.41,580.63ZM40.28,459.26a4.34,4.34,0,0,1-3.55.86,3.53,3.53,0,0,1-2.36-1.89l0-.08a4.31,4.31,0,0,1-.86-3.54,3.46,3.46,0,0,1,1.89-2.35l.13-.1a3.06,3.06,0,0,1,2.2-.9H38a4.83,4.83,0,0,1,3.42,2C42.42,454.88,41.9,457.63,40.28,459.26Zm82.16,118a3.85,3.85,0,0,1,2.13-.55,5.48,5.48,0,0,1,1.05.1,4.24,4.24,0,0,1,2.79,1.54,4.32,4.32,0,0,1,.85,3.55,3.59,3.59,0,0,1-2,2.4,4.29,4.29,0,0,1-3.55.85,3.48,3.48,0,0,1-2.35-1.88l-.1-.13a3.13,3.13,0,0,1-.9-2.46A4.86,4.86,0,0,1,122.44,577.28Z" fill="#bababa"/>
    <path d="M338.15,618.8c-2,2-2.59,5.29-1.27,7.28l0,0a5.81,5.81,0,0,0,4.16,2.45,4.14,4.14,0,0,0,2.79-.8L407,718.52l.82-.57-63.14-90.78a4.46,4.46,0,0,0,1.91-2.73,5.22,5.22,0,0,0-1-4.3c-1.4-2.8-4.78-2.71-7.32-1.43Zm6.6,1.86a4.33,4.33,0,0,1,.86,3.55,3.51,3.51,0,0,1-1.89,2.35l-.13.09a3.06,3.06,0,0,1-2.46.9,4.83,4.83,0,0,1-3.43-2c-1-1.57-.53-4.27,1.1-6C340.9,618.54,343.63,618.43,344.75,620.66Z" fill="#bababa"/>
    <polygon points="5.02 370.25 5.02 394.42 5.43 394.91 60.43 405.18 60.61 404.2 6.02 394 6.02 370.25 5.02 370.25" fill="#bababa"/>
    <path d="M329.57,650.48l-37.39-54.31c2.28-2.15,1.92-5.3.84-7.45l-.09-.13c-2-2-5.29-2.59-7.3-1.25a5.94,5.94,0,0,0-2.38,3.71,5.46,5.46,0,0,0,1.06,4.23c1.32,2,4.45,2.6,7.05,1.46l37.4,54.33c-1.72,1.51-2.18,4.56-1,7l.05.08a5.8,5.8,0,0,0,4.62,2.46,5.46,5.46,0,0,0,3.31-1.14c2-1.36,2.67-4.69,1.33-7.36a6,6,0,0,0-3.71-2.38A5.38,5.38,0,0,0,329.57,650.48ZM291.18,594.7l-.83.57.44.64c-2.1.87-4.62.36-5.65-1.2l0,0a4.44,4.44,0,0,1-.89-3.47,5,5,0,0,1,2-3.07,3.57,3.57,0,0,1,2-.54,5.89,5.89,0,0,1,4,1.63c.87,1.81,1.17,4.39-.56,6.1Zm45.06,57.9c1.08,2.16.61,4.91-1.06,6a4.49,4.49,0,0,1-6.52-1.08c-1.06-2.15-.58-4.87,1.08-6a4.44,4.44,0,0,1,3.47-.89A5,5,0,0,1,336.24,652.6Z" fill="#bababa"/>
    <path d="M241.37,624.21l.09.13a7,7,0,0,0,4.89,2,6.51,6.51,0,0,0,2.94-.68l.13-.09c2-2,2.6-5.29,1.25-7.3a5.51,5.51,0,0,0-7.52-1.61l-23-33.57a4.44,4.44,0,0,0,1.92-2.73,5.22,5.22,0,0,0-1-4.3,4.49,4.49,0,0,0-3-2.42,5.26,5.26,0,0,0-4.3,1,4.52,4.52,0,0,0-2.41,3,5.28,5.28,0,0,0,1,4.38,5.84,5.84,0,0,0,4.16,2.45,4.09,4.09,0,0,0,2.79-.8l23,33.58C240.63,618.74,240.16,621.8,241.37,624.21Zm-22.14-41.75-.13.09a3.08,3.08,0,0,1-2.46.9,4.85,4.85,0,0,1-3.43-2.05,4.33,4.33,0,0,1-.86-3.55,3.59,3.59,0,0,1,2-2.4,4.6,4.6,0,0,1,2.71-1,3.39,3.39,0,0,1,.84.1,3.57,3.57,0,0,1,2.4,2,4.32,4.32,0,0,1,.86,3.55A3.48,3.48,0,0,1,219.23,582.46Zm24.09,35.28a4.49,4.49,0,0,1,6.54,1.09c1,1.56.54,4.27-1.09,5.95a5.93,5.93,0,0,1-6.54-1.09C241.19,621.54,241.68,618.84,243.32,617.74Z" fill="#bababa"/>
    <path d="M274.72,624.73a4.08,4.08,0,0,0,1.13,3.18,4.51,4.51,0,0,0,3,2.34,4.83,4.83,0,0,0,1.08.12,5.47,5.47,0,0,0,3.27-1.13c2.05-1.36,2.68-4.7,1.34-7.37a5.43,5.43,0,0,0-6.91-1.57l-79.5-113.8-.82.57,79.5,113.8A5.72,5.72,0,0,0,274.72,624.73Zm3-3.35a4.41,4.41,0,0,1,2.43-.71,4.29,4.29,0,0,1,3.49,1.73c1.08,2.16.6,4.91-1.06,6a4.29,4.29,0,0,1-3.55.85,3.48,3.48,0,0,1-2.35-1.88l-.1-.13a3.13,3.13,0,0,1-.9-2.46A4.86,4.86,0,0,1,277.75,621.38Z" fill="#bababa"/>
    <path d="M314.14,717.34,276.67,663l-.33-.21-36.25-6-35.45-6.61L91.37,486.29a7,7,0,0,0,1-7.52l-.09-.13a7,7,0,0,0-7.83-1.3l-.13.09A7,7,0,0,0,83,485.26l.1.13a7,7,0,0,0,7.43,1.48l113.37,164,.32.21,35.67,6.65,36.05,6,37.35,54.2ZM90.44,485.83a6,6,0,0,1-6.55-1.09A5.93,5.93,0,0,1,85,478.2a5.93,5.93,0,0,1,6.54,1.09A5.93,5.93,0,0,1,90.44,485.83Z" fill="#bababa"/>
    <path d="M67.62,671.49a5.16,5.16,0,0,0-4,.74L41,639.41l-.83.57,22.66,32.78a4.44,4.44,0,0,0-1.92,2.73,5.31,5.31,0,0,0,1,4.34,4.11,4.11,0,0,0,2.68,2,5.79,5.79,0,0,0,1.51.19A5.46,5.46,0,0,0,71.73,677a4.11,4.11,0,0,0-1.13-3.18A4.51,4.51,0,0,0,67.62,671.49Zm1.08,8.87a5.11,5.11,0,0,1-3.86.55,3.09,3.09,0,0,1-2.06-1.57l-.05-.07a4.33,4.33,0,0,1-.86-3.55,3.61,3.61,0,0,1,2-2.4,4.55,4.55,0,0,1,2.7-1,3.56,3.56,0,0,1,3.2,2l.09.13a3.06,3.06,0,0,1,.9,2.46A4.85,4.85,0,0,1,68.7,680.36Z" fill="#bababa"/>
    <path d="M52.84,700.7,9.56,638.8l-.82.58L52,701.22a5.91,5.91,0,0,0-2,3.41A5.43,5.43,0,0,0,51,708.85a5.18,5.18,0,0,0,4.36,2,6.71,6.71,0,0,0,3-.71,6,6,0,0,0,2.38-3.71,5.39,5.39,0,0,0-1.06-4.21C58.44,700.32,55.41,699.65,52.84,700.7Zm7,5.59a5,5,0,0,1-1.92,3c-2.16,1.07-4.91.6-6-1l0,0A4.41,4.41,0,0,1,51,704.8a5,5,0,0,1,1.93-3,5.56,5.56,0,0,1,2.47-.58,4.21,4.21,0,0,1,3.55,1.64A4.44,4.44,0,0,1,59.8,706.29Z" fill="#bababa"/>
    <path d="M91.14,666.59l-52-74.3-.82.57L90.21,667l-8.69,50.37c-.2,0-.4-.06-.6-.08a4.09,4.09,0,0,0-3.17,1.13,4.47,4.47,0,0,0-2.34,3,5.28,5.28,0,0,0,1,4.34,4.45,4.45,0,0,0,3,2.38,4.81,4.81,0,0,0,1.07.12,5.65,5.65,0,0,0,3.37-1.2c2-2,2.59-5.29,1.25-7.3a6.29,6.29,0,0,0-2.61-2.07L91.23,667Zm-6.87,53.73c1.06,1.58.54,4.34-1.09,6a4.28,4.28,0,0,1-3.55.85,3.5,3.5,0,0,1-2.35-1.88l0-.08a4.32,4.32,0,0,1-.85-3.55,3.48,3.48,0,0,1,1.89-2.35l.13-.09a3,3,0,0,1,2.2-.91h.25a2.87,2.87,0,0,1,.5.07l-.17,1,1,.17.15-.84A5.26,5.26,0,0,1,84.27,720.32Z" fill="#bababa"/>
    <path d="M127.3,718.43l0,0-18.33-26.1a5.86,5.86,0,0,0,2-3.41,5.39,5.39,0,0,0-1.06-4.21c-1.36-2-4.7-2.68-7.36-1.34a5.85,5.85,0,0,0-2.45,4.17,4.1,4.1,0,0,0,1.16,3.21c1.76,2.32,4.72,3.21,6.88,2.14l18.41,26.21a5.52,5.52,0,0,0-1.67,3.48,4.07,4.07,0,0,0,1.16,3.21,5.82,5.82,0,0,0,4.14,2.42h.32a4.07,4.07,0,0,0,2.86-1.14,4.45,4.45,0,0,0,2.34-3,5.25,5.25,0,0,0-1-4.35C133.3,717.72,130,717.09,127.3,718.43ZM108,691.84c-1.51,1-4.27.56-6-1.7l-.05,0a3.09,3.09,0,0,1-.89-2.46,4.82,4.82,0,0,1,2-3.39,5.63,5.63,0,0,1,2.48-.58,4.22,4.22,0,0,1,3.55,1.64,4.44,4.44,0,0,1,.89,3.47A5,5,0,0,1,108,691.84Zm26.72,32a3.48,3.48,0,0,1-1.89,2.35l-.13.1a3,3,0,0,1-2.45.89,4.85,4.85,0,0,1-3.44-2.05l-.05,0a3.13,3.13,0,0,1-.9-2.46,4.61,4.61,0,0,1,1.25-2.73l.7,1,.82-.57-.77-1.09c2.16-1.06,4.9-.59,6,1.07A4.29,4.29,0,0,1,134.7,723.89Z" fill="#bababa"/>
    <path d="M168.5,678.67a3.92,3.92,0,0,0-.37-.59L179.41,670a5.43,5.43,0,0,0,7.11,1.49,6,6,0,0,0,2.38-3.71,5.41,5.41,0,0,0-1.06-4.22c-1.36-2-4.7-2.67-7.36-1.33a5.83,5.83,0,0,0-2.45,4.17,4.09,4.09,0,0,0,.8,2.79l-11.37,8.12a4.29,4.29,0,0,0-1.94-1,5.19,5.19,0,0,0-4.3,1,4.46,4.46,0,0,0-2.42,3,5.31,5.31,0,0,0,1,4.38,5.38,5.38,0,0,0,4.35,2.2,5.47,5.47,0,0,0,3-.89,5.85,5.85,0,0,0,2.45-4.17A4.12,4.12,0,0,0,168.5,678.67ZM181,663.1a5.6,5.6,0,0,1,2.48-.58,4.19,4.19,0,0,1,3.54,1.64,4.35,4.35,0,0,1,.89,3.46,4.91,4.91,0,0,1-1.92,3c-2,1-4.83.7-6-1.59l-.1-.13a3.09,3.09,0,0,1-.9-2.45A4.8,4.8,0,0,1,181,663.1Zm-14.4,22.09a4.41,4.41,0,0,1-6-1.09,4.32,4.32,0,0,1-.86-3.55,3.63,3.63,0,0,1,2-2.4,4.32,4.32,0,0,1,3.55-.85,3.55,3.55,0,0,1,1.33.63l0,0,.58.82.15-.11a3.11,3.11,0,0,1,.32.53l.09.13a3,3,0,0,1,.9,2.45A4.83,4.83,0,0,1,166.6,685.19Z" fill="#bababa"/>
    <path d="M40.93,719.69c-2-2-5.29-2.6-7.3-1.26h0L9.91,684a5,5,0,0,0,1.33-2.69,4.47,4.47,0,0,0-1.09-3.87A5.84,5.84,0,0,0,6,675a4.15,4.15,0,0,0-3.18,1.13,4.53,4.53,0,0,0-2.34,3,5.31,5.31,0,0,0,1,4.35,4.5,4.5,0,0,0,3,2.37,5.19,5.19,0,0,0,4.3-1l.36-.21L32.86,719.1a5.43,5.43,0,0,0-.55,7.27,5.21,5.21,0,0,0,4.38,2,6.45,6.45,0,0,0,2.9-.67l.13-.09a7,7,0,0,0,1.3-7.83ZM8.25,684a4.3,4.3,0,0,1-3.55.85A3.48,3.48,0,0,1,2.35,683l-.05-.08a4.32,4.32,0,0,1-.86-3.55A3.54,3.54,0,0,1,3.33,677l.13-.09a3,3,0,0,1,2.2-.91h.26a4.92,4.92,0,0,1,3.48,2.11,3.45,3.45,0,0,1,.85,3A3.79,3.79,0,0,1,8.25,684Zm30.82,42.88c-2.15,1-4.85.55-5.94-1.07v0a4.39,4.39,0,0,1,.32-5.84l.68,1,.82-.57-.75-1.1h0c1.57-1,4.28-.54,6,1.09A5.93,5.93,0,0,1,39.07,726.88Z" fill="#bababa"/>
    <path d="M211.88,676.35l-.57-.82-32.85,22.69a5.74,5.74,0,0,0-3.87-2.07,4,4,0,0,0-3.17,1.13,4.49,4.49,0,0,0-2.35,3,5.28,5.28,0,0,0,1,4.34,4.11,4.11,0,0,0,3.9,2.24,7.77,7.77,0,0,0,3.4-.85l.12-.09a6.29,6.29,0,0,0,1.52-6.85Zm-35,28.78c-2.1,1-4.82,1.14-5.9-1l0-.07a4.33,4.33,0,0,1-.85-3.55,3.48,3.48,0,0,1,1.89-2.35l.13-.1a3,3,0,0,1,2.2-.9h.25a4.78,4.78,0,0,1,3.42,2C179,700.74,178.49,703.45,176.85,705.13Z" fill="#bababa"/>
    <path d="M166.63,719.69c-1.89-1.88-4.84-2.51-6.86-1.51l-18.35-25.44,6.57-34,21-14.38.13-.7L142.82,606a4.44,4.44,0,0,0,1.92-2.73,5.23,5.23,0,0,0-1-4.3c-1.4-2.79-4.78-2.7-7.4-1.38a5.84,5.84,0,0,0-2.45,4.16,4.1,4.1,0,0,0,1.16,3.21,5.86,5.86,0,0,0,4.15,2.42,4,4,0,0,0,2.79-.8l26,37.2L147.26,658l-.21.32-6.65,34.43.09.39,18.45,25.59a5.78,5.78,0,0,0-2.07,3.86,4.12,4.12,0,0,0,1.14,3.18,4.49,4.49,0,0,0,3,2.34,5.06,5.06,0,0,0,1.09.12,5.42,5.42,0,0,0,3.22-1.1,4,4,0,0,0,2.24-3.26,7.31,7.31,0,0,0-.81-4.06ZM141.88,605.42l-.13.09a3.13,3.13,0,0,1-2.46.9,4.85,4.85,0,0,1-3.44-2.06l0-.05a3,3,0,0,1-.9-2.46,4.8,4.8,0,0,1,2-3.38,6.53,6.53,0,0,1,2.89-.74,3.29,3.29,0,0,1,3.13,1.8,4.31,4.31,0,0,1,.86,3.54A3.56,3.56,0,0,1,141.88,605.42Zm24.65,118.34a3.16,3.16,0,0,1-1.76,2.53,4.31,4.31,0,0,1-3.56.85,3.52,3.52,0,0,1-2.35-1.88l-.09-.13a3.09,3.09,0,0,1-.9-2.46,4.85,4.85,0,0,1,2-3.42,3.62,3.62,0,0,1,2-.55,5.88,5.88,0,0,1,4,1.64A6.26,6.26,0,0,1,166.53,723.76Z" fill="#bababa"/>
    <path d="M.94,547.62c1.89,1.88,4.84,2.51,6.86,1.5l9.41,12.93.32.2,36.65,6,54.61,79.79a5.74,5.74,0,0,0-2.07,3.87,4,4,0,0,0,1.13,3.17,5,5,0,0,0,4.52,2.64,6.36,6.36,0,0,0,2.76-.67l.13-.1a7,7,0,0,0,1.3-7.82l-.09-.13a6.31,6.31,0,0,0-6.85-1.52l-54.73-80-.33-.21-36.67-6L8.63,548.56a5.7,5.7,0,0,0,2.06-3.86,4.06,4.06,0,0,0-1.13-3.17,4.45,4.45,0,0,0-3-2.34,5.19,5.19,0,0,0-4.3,1A4,4,0,0,0,0,543.42a7.26,7.26,0,0,0,.81,4.07Zm108.8,101a3.63,3.63,0,0,1,2-.55,5.83,5.83,0,0,1,4,1.64,5.93,5.93,0,0,1-1.09,6.54c-2,1-4.77.64-5.9-1.63l-.1-.13a3.09,3.09,0,0,1-.9-2.45A4.81,4.81,0,0,1,109.74,648.57ZM1,543.55A3.15,3.15,0,0,1,2.8,541a4.33,4.33,0,0,1,3.55-.86,3.46,3.46,0,0,1,2.35,1.89l.1.13a3.09,3.09,0,0,1,.9,2.45,4.79,4.79,0,0,1-2,3.42c-1.56,1.05-4.27.55-5.95-1.08A6.4,6.4,0,0,1,1,543.55Z" fill="#bababa"/>
    <path d="M.94,502.3a6.29,6.29,0,0,0,6.85,1.52l30.56,43.73.33.21,35.45,6L132.51,638l-5.2,30a5.44,5.44,0,0,0-3,.89,5.86,5.86,0,0,0-2.46,4.16,4.12,4.12,0,0,0,1.14,3.18,4.48,4.48,0,0,0,3,2.34,4.9,4.9,0,0,0,1.08.12,5.42,5.42,0,0,0,3.22-1.1,4,4,0,0,0,2.23-3.26,7.24,7.24,0,0,0-.85-4.14,5.38,5.38,0,0,0-3.31-2.1L133.53,638l-.08-.37L74.83,553l-.33-.21-35.45-6L8.62,503.26a5.89,5.89,0,0,0,2-3.41,5.44,5.44,0,0,0-1-4.22c-1.36-2-4.7-2.67-7.37-1.33-2.84,2.13-2.5,5.58-1.35,7.88ZM130.78,670.73a6.36,6.36,0,0,1,.7,3.49,3.14,3.14,0,0,1-1.77,2.53,4.32,4.32,0,0,1-3.55.86,3.56,3.56,0,0,1-2.35-1.89l-.09-.13a3.09,3.09,0,0,1-.9-2.46,4.85,4.85,0,0,1,2-3.42,4.42,4.42,0,0,1,2.29-.71l0,.21,1,.17,0-.3A4.29,4.29,0,0,1,130.78,670.73ZM2.73,495.15c2.16-1.08,4.91-.6,6,1.06a4.4,4.4,0,0,1,.89,3.47,5,5,0,0,1-2,3.06c-1.56,1.05-4.27.55-5.95-1.09C.76,499.7.48,496.84,2.73,495.15Z" fill="#bababa"/>
    <path d="M6,628.49a4,4,0,0,0-3.18,1.14,5.81,5.81,0,0,0-2.45,4.16A4.06,4.06,0,0,0,1.49,637a4.51,4.51,0,0,0,3,2.34,4.91,4.91,0,0,0,1.08.13,5.43,5.43,0,0,0,3.22-1.11,4.47,4.47,0,0,0,2.41-3,5.25,5.25,0,0,0-1-4.37A5.81,5.81,0,0,0,6,628.49Zm4.22,6.6a3.57,3.57,0,0,1-2,2.39,4.34,4.34,0,0,1-3.55.86,3.52,3.52,0,0,1-2.35-1.89l-.1-.13a3.13,3.13,0,0,1-.9-2.46,4.92,4.92,0,0,1,2.11-3.48,3.09,3.09,0,0,1,2.2-.91h.26a4.83,4.83,0,0,1,3.43,2.06A4.29,4.29,0,0,1,10.21,635.09Z" fill="#bababa"/>
    <path d="M40.37,584.42c-2.13-2.84-5.57-2.51-7.87-1.36l-.14.1c-2,2-2.59,5.29-1.27,7.27l0,0a5.81,5.81,0,0,0,4.62,2.47A5.46,5.46,0,0,0,39,591.78C41.08,590.42,41.71,587.08,40.37,584.42ZM38.46,591a4.49,4.49,0,0,1-6.54-1.09c-1-1.57-.53-4.27,1.1-6,1.95-.95,4.81-1.22,6.5,1C40.6,587.1,40.13,589.85,38.46,591Z" fill="#bababa"/>
    <path d="M31.78,634.4a4.13,4.13,0,0,0,1.13,3.17A4.58,4.58,0,0,0,37,640a5.51,5.51,0,0,0,3.28-1.14c2-1.36,2.67-4.7,1.33-7.36a5.83,5.83,0,0,0-4.17-2.45,4.05,4.05,0,0,0-3.18,1.14A5.85,5.85,0,0,0,31.78,634.4Zm5.31-4.32h.25a4.82,4.82,0,0,1,3.39,2c1.08,2.16.61,4.91-1.06,6a4.32,4.32,0,0,1-3.55.85,3.48,3.48,0,0,1-2.35-1.89l-.09-.13a3,3,0,0,1-.9-2.45A4.9,4.9,0,0,1,34.89,631,3,3,0,0,1,37.09,630.08Z" fill="#bababa"/>
    <path d="M12.36,612.18l0,0a5.81,5.81,0,0,0,4.16,2.45l.32,0a4.06,4.06,0,0,0,2.86-1.15,4.45,4.45,0,0,0,2.34-3,5.23,5.23,0,0,0-1-4.3,4.47,4.47,0,0,0-3-2.41,5.2,5.2,0,0,0-3.95.73l-4.84-7a4.42,4.42,0,0,0,1.91-2.73,5.27,5.27,0,0,0-1-4.38,5.42,5.42,0,0,0-7.34-1.31,5.83,5.83,0,0,0-2.45,4.17,4.06,4.06,0,0,0,1.13,3.17,4.45,4.45,0,0,0,3,2.34,5.16,5.16,0,0,0,4-.73l4.89,7.06a6.1,6.1,0,0,0-1,7ZM8.25,597a4.3,4.3,0,0,1-3.55.86A3.46,3.46,0,0,1,2.35,596l-.1-.13a3.09,3.09,0,0,1-.9-2.45,4.81,4.81,0,0,1,2-3.42,4.43,4.43,0,0,1,6,1.09,4.29,4.29,0,0,1,.86,3.55A3.55,3.55,0,0,1,8.25,597Zm4.49,11.44a4.22,4.22,0,0,1,1.54-2.78,4.34,4.34,0,0,1,3.55-.86,3.61,3.61,0,0,1,2.4,2,4.31,4.31,0,0,1,.86,3.54,3.49,3.49,0,0,1-1.89,2.35l-.13.1a3.08,3.08,0,0,1-2.46.9,4.87,4.87,0,0,1-3.43-2A4.54,4.54,0,0,1,12.74,608.44Z" fill="#bababa"/>
    <path d="M283.21,718.43a5.42,5.42,0,0,0-1.32,7.33v0a5.85,5.85,0,0,0,4.17,2.45h.32a4.11,4.11,0,0,0,2.86-1.14,4.51,4.51,0,0,0,2.34-3,5.22,5.22,0,0,0-1-4.3C289.21,717,285.83,717.12,283.21,718.43Zm7.41,5.46a3.54,3.54,0,0,1-1.89,2.35l-.13.1a3.05,3.05,0,0,1-2.46.89,4.83,4.83,0,0,1-3.43-2,4.42,4.42,0,0,1,1-5.91c2.12-1,4.89-1.2,6,1.06A4.33,4.33,0,0,1,290.62,723.89Z" fill="#bababa"/>
    <path d="M504.55,717.9a4.07,4.07,0,0,0-2.5.6l-51-73.21a4.46,4.46,0,0,0,1.91-2.73,5.22,5.22,0,0,0-1-4.3,4.48,4.48,0,0,0-3-2.41,5.24,5.24,0,0,0-4.31,1,4.48,4.48,0,0,0-2.41,3,5.3,5.3,0,0,0,1,4.35,4.51,4.51,0,0,0,3,2.37,5.19,5.19,0,0,0,4-.74l51.07,73.28A4.47,4.47,0,0,0,499,722a5.29,5.29,0,0,0,1,4.36,5.22,5.22,0,0,0,4.38,2,6.45,6.45,0,0,0,2.9-.67l.13-.09c2-2,2.6-5.29,1.26-7.3A5.85,5.85,0,0,0,504.55,717.9ZM450,644.73a4.32,4.32,0,0,1-3.55.86,3.56,3.56,0,0,1-2.35-1.89l0-.08a4.32,4.32,0,0,1-.86-3.55,3.56,3.56,0,0,1,2-2.39,4.5,4.5,0,0,1,2.7-1,4.11,4.11,0,0,1,.85.1,3.56,3.56,0,0,1,2.39,2,4.31,4.31,0,0,1,.86,3.54A3.55,3.55,0,0,1,450,644.73Zm56.81,82.15c-2.15,1-4.85.55-5.93-1.07l0,0a4.27,4.27,0,0,1-.85-3.54,3.46,3.46,0,0,1,1.89-2.35l.12-.1a3.08,3.08,0,0,1,2.21-.9h.25a4.81,4.81,0,0,1,3.42,2C509,722.49,508.45,725.2,506.81,726.88Z" fill="#bababa"/>
    <path d="M463.26,700.42a5.39,5.39,0,0,0-1.06-4.21c-1.36-2.05-4.7-2.68-7.36-1.34a6,6,0,0,0-2.38,3.72,5.43,5.43,0,0,0,1.07,4.23l.05.06c1.88,1.88,4.84,2.51,6.86,1.5l8.49,11.31-5,3.33.16.25a7,7,0,0,0-7.36-.88l-.13.09c-2,2-2.6,5.29-1.27,7.28v0a5.81,5.81,0,0,0,4.62,2.47,5.48,5.48,0,0,0,3.31-1.15c2-1.36,2.67-4.69,1.38-7.28l0-.05,5.31-3.54.12-.72-8.77-11.69A6,6,0,0,0,463.26,700.42Zm-.57,25.87a4.5,4.5,0,0,1-6.54-1.1c-1-1.57-.53-4.27,1.1-5.94a5.93,5.93,0,0,1,6.54,1.09C464.83,722.49,464.34,725.19,462.69,726.29Zm-2.39-23c-1.58,1-4.31.53-6-1.13a4.38,4.38,0,0,1-.87-3.43,5,5,0,0,1,1.92-3c2.16-1.08,4.91-.6,6,1.06a4.44,4.44,0,0,1,.89,3.47A5,5,0,0,1,460.3,703.32Z" fill="#bababa"/>
    <path d="M438.54,672.5c-2,1.37-2.67,4.7-1.37,7.29l0,.08a6,6,0,0,0,3.38,2.3l-6.28,35.38a7.69,7.69,0,0,0-3.64.88,5.89,5.89,0,0,0-2.46,4.17,4.11,4.11,0,0,0,1.17,3.21,5.82,5.82,0,0,0,4.14,2.42h.32a4.09,4.09,0,0,0,2.86-1.14,4.45,4.45,0,0,0,2.34-3,5.19,5.19,0,0,0-1-4.3,3.9,3.9,0,0,0-2.75-2.15l6.27-35.36a5.66,5.66,0,0,0,3.64-1.18c2-2,2.6-5.29,1.25-7.3A5.51,5.51,0,0,0,438.54,672.5Zm-1.33,47.84a4.33,4.33,0,0,1,.86,3.55,3.48,3.48,0,0,1-1.89,2.35l-.13.1a3.1,3.1,0,0,1-2.46.89,4.85,4.85,0,0,1-3.43-2.05l-.05,0a3.09,3.09,0,0,1-.9-2.46,4.84,4.84,0,0,1,2-3.39,6.67,6.67,0,0,1,2.9-.74h.05l0,.2,1,.17.05-.25A3.12,3.12,0,0,1,437.21,720.34Zm7.36-40A4.49,4.49,0,0,1,438,679.3c-1.05-2.15-.57-4.87,1.08-6a4.5,4.5,0,0,1,6.54,1.09C446.71,676,446.19,678.74,444.57,680.37Z" fill="#bababa"/>
    <path d="M512.49,685.39l12-69.78-.08-.37-59.11-83.81,5.41-36.65-.08-.36-10.57-15.26a4.47,4.47,0,0,0,1.92-2.73,5.22,5.22,0,0,0-1-4.3,4.46,4.46,0,0,0-3-2.42,5.31,5.31,0,0,0-4.36,1c-2,1.37-2.67,4.7-1.38,7.29l.05.08a5.88,5.88,0,0,0,4.17,2.45,4.1,4.1,0,0,0,2.78-.8l10.45,15.08-5.41,36.66.09.36,59.1,83.81-12,69.61A5.63,5.63,0,0,0,508,686.4c-2,1.36-2.67,4.7-1.38,7.28l.1.13a6.93,6.93,0,0,0,4.89,2,6.66,6.66,0,0,0,2.94-.67l.12-.1c2-2,2.6-5.29,1.26-7.3A6,6,0,0,0,512.49,685.39ZM459.15,478.55l-.13.09a3,3,0,0,1-2.46.9,4.82,4.82,0,0,1-3.41-2c-1.06-2.15-.58-4.87,1.08-6a4.29,4.29,0,0,1,3.55-.85,3.59,3.59,0,0,1,2.4,2,4.28,4.28,0,0,1,.85,3.55A3.5,3.5,0,0,1,459.15,478.55Zm54.92,215.71a6,6,0,0,1-6.55-1.1c-1-2.14-.55-4.85,1.1-5.94a4.49,4.49,0,0,1,6.53,1.08C516.2,689.87,515.7,692.58,514.07,694.26Z" fill="#bababa"/>
    <path d="M433.66,620.78c2-1.36,2.67-4.7,1.33-7.36a5.51,5.51,0,0,0-7.52-1.61L419,599.38a4.44,4.44,0,0,0,1.92-2.73,5.19,5.19,0,0,0-1-4.3,4,4,0,0,0-3.25-2.24,7.34,7.34,0,0,0-4.07.81l-.13.09c-2,2-2.59,5.29-1.27,7.28l0,0a5.81,5.81,0,0,0,4.16,2.45,4.14,4.14,0,0,0,2.79-.8l8.48,12.44a5.54,5.54,0,0,0-1.55,3.12,5.48,5.48,0,0,0,.61,3.91v0a5.81,5.81,0,0,0,4.62,2.47A5.46,5.46,0,0,0,433.66,620.78Zm-15.61-22-.13.09a3,3,0,0,1-2.46.9,4.83,4.83,0,0,1-3.42-2c-1-1.57-.54-4.27,1.09-6a6.48,6.48,0,0,1,3.42-.67,3.15,3.15,0,0,1,2.53,1.77,4.33,4.33,0,0,1,.86,3.55A3.48,3.48,0,0,1,418.05,598.77Zm8.49,20.09a4.54,4.54,0,0,1-.45-3.17,4.18,4.18,0,0,1,1.55-2.78,4.48,4.48,0,0,1,6.5,1c1.09,2.16.61,4.91-1.06,6A4.5,4.5,0,0,1,426.54,618.86Z" fill="#bababa"/>
    <path d="M251.79,718.43l-.26.21-19-27.28-.69-.12-40.65,28.27a6.94,6.94,0,0,0-7.63-1.12l-.14.09c-2,2-2.59,5.29-1.27,7.28l0,0a5.8,5.8,0,0,0,4.62,2.46,5.46,5.46,0,0,0,3.31-1.14c1.9-1.26,2.58-4.25,1.62-6.74l40.28-28,18.78,27a5.5,5.5,0,0,0-1.46,3.27,4.08,4.08,0,0,0,1.13,3.18,4.51,4.51,0,0,0,3,2.34,5.22,5.22,0,0,0,4.3-1,4,4,0,0,0,2.24-3.26,7.34,7.34,0,0,0-.86-4.14A5.42,5.42,0,0,0,251.79,718.43Zm-62.25,7.86a4.5,4.5,0,0,1-6.54-1.1c-1-1.56-.53-4.27,1.1-5.94a5.93,5.93,0,0,1,6.27.84l-.21.15.57.82.16-.11C191.57,723,191,725.29,189.54,726.29ZM259,723.76a3.16,3.16,0,0,1-1.76,2.53,4.3,4.3,0,0,1-3.55.85,3.48,3.48,0,0,1-2.35-1.88l-.1-.13a3.13,3.13,0,0,1-.9-2.46,4.85,4.85,0,0,1,2-3.42,4.48,4.48,0,0,1,2.44-.72,4.3,4.3,0,0,1,3.49,1.74A6.27,6.27,0,0,1,259,723.76Z" fill="#bababa"/>
    <path d="M533,718.5l-5.31-7.43a5.45,5.45,0,0,0,.95-7.62c-1.36-2-4.7-2.67-7.37-1.33a6,6,0,0,0-2.38,3.71,5.41,5.41,0,0,0,1.07,4.23c1.28,1.91,4.31,2.58,6.88,1.54l5.31,7.44c-2,1.37-2.64,4.69-1.35,7.27l0,.07a5.35,5.35,0,0,0,4.44,2.2,7.83,7.83,0,0,0,3.44-.84l.13-.09c2-2,2.6-5.29,1.25-7.3A5.52,5.52,0,0,0,533,718.5Zm-6.21-8c-2.16,1.08-4.91.61-6-1l0,0a4.37,4.37,0,0,1-.88-3.46,4.91,4.91,0,0,1,1.92-3,5.57,5.57,0,0,1,2.48-.58,4.21,4.21,0,0,1,3.54,1.64A4.48,4.48,0,0,1,526.83,710.53Zm11.41,16.35c-2,1-4.79,1.22-6.53-1.06-1.05-2.15-.57-4.88,1.08-6a4.49,4.49,0,0,1,6.54,1.09C540.37,722.49,539.87,725.2,538.24,726.88Z" fill="#bababa"/>
    <path d="M601.23,719.82a4.49,4.49,0,0,0-3-2.41,5.19,5.19,0,0,0-4.3,1,4,4,0,0,0-2.24,3.25l0,.32H566l-29.8-42.3a5.45,5.45,0,0,0,.95-7.62c-1.36-2-4.7-2.67-7.37-1.33a6,6,0,0,0-2.38,3.71,5.41,5.41,0,0,0,1.08,4.24l0,.05a6.3,6.3,0,0,0,6.86,1.51l30,42.53.41.21h25.93a7.75,7.75,0,0,0,.82,2.74l0,.08a5.85,5.85,0,0,0,4.17,2.45H597a4.11,4.11,0,0,0,2.86-1.14,4.51,4.51,0,0,0,2.34-3A5.22,5.22,0,0,0,601.23,719.82Zm-66-40.67c-1.58,1.05-4.32.54-6-1.12a4.35,4.35,0,0,1-.86-3.44,4.89,4.89,0,0,1,1.92-3c2.16-1.08,4.91-.61,6,1.06A4.49,4.49,0,0,1,535.24,679.15Zm66,44.74a3.54,3.54,0,0,1-1.89,2.35l-.13.1a3.05,3.05,0,0,1-2.46.89,4.84,4.84,0,0,1-3.41-2,6.31,6.31,0,0,1-.69-3.45,3.17,3.17,0,0,1,1.77-2.54,4.32,4.32,0,0,1,3.55-.85,3.57,3.57,0,0,1,2.4,2A4.33,4.33,0,0,1,601.24,723.89Z" fill="#bababa"/>
    <path d="M345.32,718.2l-48.1-69.73-.33-.21L231,636.79l-.17,1,65.66,11.44,48,69.58c-1.79,2-2.24,5.08-1,7v0a5.81,5.81,0,0,0,4.62,2.47,5.48,5.48,0,0,0,3.31-1.15c2-1.36,2.68-4.69,1.33-7.36C350.79,717.06,347.61,717.21,345.32,718.2Zm5.58,8.09a4.51,4.51,0,0,1-6.55-1.1c-1-1.57-.53-4.27,1.1-5.94,1.95-1,4.81-1.23,6.51,1C353,722.43,352.56,725.18,350.9,726.29Z" fill="#bababa"/>
    <path d="M313.5,717.78l-.13.1a7,7,0,0,0-1.3,7.82l.1.13a6.77,6.77,0,0,0,4.7,2,4.69,4.69,0,0,0,2.6-.72,6,6,0,0,0,2.38-3.71,5.41,5.41,0,0,0-1.06-4.22C319.43,717.12,316.09,716.49,313.5,717.78Zm7.36,5.42a4.92,4.92,0,0,1-2,3.07c-1.57,1.05-4.28.55-6-1.09a6,6,0,0,1,1.09-6.54c2.15-1,4.86-.55,6,1.1A4.38,4.38,0,0,1,320.86,723.2Z" fill="#bababa"/>
    <path d="M.89,367.53a6.32,6.32,0,0,0,4.92,2.62,4.34,4.34,0,0,0,2.43-.71,6.24,6.24,0,0,0,2-7.87l-.09-.13a7,7,0,0,0-7.83-1.3l-.13.09c-2,2-2.6,5.29-1.27,7.28ZM2.8,361a5.93,5.93,0,0,1,6.54,1.09,5.26,5.26,0,0,1-1.68,6.54c-1.51,1-4.26.56-6-1.69C.67,365.38,1.17,362.67,2.8,361Z" fill="#bababa"/>
    <path d="M408.31,718.43a5.89,5.89,0,0,0-2.46,4.17,4.12,4.12,0,0,0,1.14,3.18,4.49,4.49,0,0,0,3,2.34,5,5,0,0,0,1.09.12,5.44,5.44,0,0,0,3.27-1.14c2-1.36,2.68-4.69,1.33-7.36A5.43,5.43,0,0,0,408.31,718.43Zm5.43,7.86a4.28,4.28,0,0,1-3.55.85,3.52,3.52,0,0,1-2.35-1.88l-.09-.13a3.09,3.09,0,0,1-.9-2.46,4.85,4.85,0,0,1,2-3.42,4.45,4.45,0,0,1,2.44-.72,4.3,4.3,0,0,1,3.49,1.74C415.89,722.43,415.41,725.18,413.74,726.29Z" fill="#bababa"/>
    <path d="M194.39,506.68a6.66,6.66,0,0,0,3-.7,5.89,5.89,0,0,0,2.46-4.17,4.09,4.09,0,0,0-1.14-3.17,4.47,4.47,0,0,0-3-2.35,5.23,5.23,0,0,0-4.3,1,4.48,4.48,0,0,0-2.41,3,5.32,5.32,0,0,0,1,4.37A5.18,5.18,0,0,0,194.39,506.68Zm-4.4-6.16a3.58,3.58,0,0,1,2-2.4,4.55,4.55,0,0,1,2.7-.95,3.39,3.39,0,0,1,.84.1,3.5,3.5,0,0,1,2.36,1.89l.09.13a3,3,0,0,1,.9,2.45,4.82,4.82,0,0,1-2,3.39c-2.16,1.08-4.91.6-6-1v0A4.33,4.33,0,0,1,190,500.52Z" fill="#bababa"/>
    <path d="M424.73,652.7,279.09,442.46l-.7-.12-37.74,26.35c-2-1.79-5.08-2.24-7-1a5.81,5.81,0,0,0-2.45,4.17,4.06,4.06,0,0,0,1.13,3.17,4.45,4.45,0,0,0,3,2.34,5.25,5.25,0,0,0,4.35-1c1.94-1.29,2.61-4.37,1.56-6.89l37.32-26.06L423.79,653.11l-4.67,30.35a5.53,5.53,0,0,0-3.62,1.19c-2,2-2.59,5.29-1.27,7.28l0,0a5.84,5.84,0,0,0,4.17,2.45h.31a4.07,4.07,0,0,0,2.86-1.14,4.45,4.45,0,0,0,2.34-3,5.19,5.19,0,0,0-1-4.3,4.47,4.47,0,0,0-2.84-2.37l4.7-30.56ZM239.1,475.57a4.34,4.34,0,0,1-3.55.86,3.46,3.46,0,0,1-2.35-1.89l-.1-.13a3.09,3.09,0,0,1-.9-2.45,4.81,4.81,0,0,1,2-3.42,3.63,3.63,0,0,1,2-.55,5.83,5.83,0,0,1,3.95,1.64C241.23,471.77,240.74,474.48,239.1,475.57Zm183,210.94a4.32,4.32,0,0,1,.85,3.55,3.48,3.48,0,0,1-1.89,2.35l-.13.09a3,3,0,0,1-2.45.9,4.83,4.83,0,0,1-3.43-2c-1.05-1.58-.52-4.33,1.1-6a4.28,4.28,0,0,1,3.55-.85A3.59,3.59,0,0,1,422.11,686.51Z" fill="#bababa"/>
    <path d="M380.05,717.41a5.07,5.07,0,0,0-3.2.33l-26.22-37.52c1.79-2,2.24-5.08,1-7a5.92,5.92,0,0,0-4.17-2.45,4.07,4.07,0,0,0-3.18,1.14,4.49,4.49,0,0,0-2.34,3,5.34,5.34,0,0,0,1,4.35,4.5,4.5,0,0,0,3,2.37,5.26,5.26,0,0,0,3.95-.74L376,718.23l-.27.19c-2,1.36-2.67,4.7-1.37,7.28l0,.08a5.38,5.38,0,0,0,4.35,2.2,5.47,5.47,0,0,0,3-.89,5.85,5.85,0,0,0,2.45-4.17,4,4,0,0,0-1.13-3.17A4.45,4.45,0,0,0,380.05,717.41Zm-30.36-37.64a4.33,4.33,0,0,1-3.55.86,3.52,3.52,0,0,1-2.35-1.89l-.05-.08a4.32,4.32,0,0,1-.86-3.55,3.56,3.56,0,0,1,1.89-2.35l.13-.09a3.05,3.05,0,0,1,2.21-.91h.25a4.85,4.85,0,0,1,3.42,2C351.84,675.39,351.31,678.14,349.69,679.77Zm31.44,46.5a4.42,4.42,0,0,1-5.94-1c-1.05-2.16-.57-4.88,1.08-6a4.32,4.32,0,0,1,3.55-.85,3.46,3.46,0,0,1,2.35,1.89l.1.13a3.09,3.09,0,0,1,.9,2.45A4.79,4.79,0,0,1,381.13,726.27Z" fill="#bababa"/>
    <path d="M215.46,486.41,164.8,459.28l-54.66-79.87a5.43,5.43,0,0,0,.94-7,5.85,5.85,0,0,0-4.17-2.45,4.08,4.08,0,0,0-3.18,1.13,4.51,4.51,0,0,0-2.34,3,5.31,5.31,0,0,0,1,4.34c1.33,2.59,4.37,2.66,6.9,1.57l54.76,80,.17.16,50.66,27.13L270.7,567a4.83,4.83,0,0,0-2,2.91,6,6,0,0,0,.5,4.12l0,.07a5.35,5.35,0,0,0,4.44,2.2,7.83,7.83,0,0,0,3.44-.84l.13-.09c2-2,2.59-5.29,1.25-7.3a5.81,5.81,0,0,0-4.16-2.45,4,4,0,0,0-2.79.8l-55.89-79.9ZM109.24,378.87c-2.11,1.05-4.88,1.2-6-1l0-.08a4.31,4.31,0,0,1-.86-3.54,3.52,3.52,0,0,1,1.89-2.35l.13-.1a3.08,3.08,0,0,1,2.21-.9h.25a4.86,4.86,0,0,1,3.42,2A4.42,4.42,0,0,1,109.24,378.87ZM271.65,567.64l.13-.09a3.07,3.07,0,0,1,2.46-.9,4.85,4.85,0,0,1,3.42,2c1,1.57.54,4.28-1.09,6-1.95,1-4.79,1.22-6.53-1.06a5.08,5.08,0,0,1-.4-3.39A3.86,3.86,0,0,1,271.65,567.64Z" fill="#bababa"/>
    <path d="M222.25,631.39l-.13.1c-2,2-2.59,5.29-1.27,7.27l0,0a5.84,5.84,0,0,0,4.16,2.45h.32a4.06,4.06,0,0,0,2.86-1.15,4.43,4.43,0,0,0,2.34-3,5.21,5.21,0,0,0-1-4.3C228.17,630,224.8,630.12,222.25,631.39Zm7.33,5.51a3.48,3.48,0,0,1-1.89,2.35l-.13.09a3.06,3.06,0,0,1-2.45.9,4.89,4.89,0,0,1-3.44-2c-1-1.57-.53-4.27,1.1-6,2.11-1,4.83-1.14,5.95,1.1A4.32,4.32,0,0,1,229.58,636.9Z" fill="#bababa"/>
    <path d="M.85,415.78l0,.08a5.85,5.85,0,0,0,4.17,2.45h.32a4.11,4.11,0,0,0,2.86-1.14A4.81,4.81,0,0,0,10.69,414a6,6,0,0,0-.54-4.2,5.5,5.5,0,0,0-7.92-1.32C.18,409.86-.45,413.2.85,415.78Zm1.95-6.46a4.49,4.49,0,0,1,6.51,1,5,5,0,0,1,.41,3.43,3.8,3.8,0,0,1-2,2.54l-.13.1a3.05,3.05,0,0,1-2.46.89,4.84,4.84,0,0,1-3.41-2C.67,413.14,1.15,410.42,2.8,409.32Z" fill="#bababa"/>
    <path d="M65.15,217.11a5.51,5.51,0,0,0-7.93-1.33c-2,1.36-2.67,4.7-1.38,7.29l0,.07a5.51,5.51,0,0,0,7.53,1.6l42,59.41.31.2,29.8,6a4.48,4.48,0,0,0,.71,2.29v0a5.86,5.86,0,0,0,4.17,2.45h.32a4.11,4.11,0,0,0,2.86-1.14,4.51,4.51,0,0,0,2.34-3,5.22,5.22,0,0,0-1-4.3c-1.4-2.8-4.78-2.71-7.32-1.43l-.13.09a6.85,6.85,0,0,0-1.94,4l-29.45-5.89L64.22,224.15C65.94,222.64,66.4,219.58,65.15,217.11Zm73,69c2.1-1,4.82-1.13,6,1.1a4.29,4.29,0,0,1,.85,3.55,3.5,3.5,0,0,1-1.88,2.35l-.13.09a3.09,3.09,0,0,1-2.46.9,4.83,4.83,0,0,1-3.43-2C136,290.46,136.54,287.76,138.17,286.08ZM63.24,223.65a4.5,4.5,0,0,1-6.53-1.07c-1.05-2.15-.57-4.88,1.09-6a4.48,4.48,0,0,1,6.5,1C65.38,219.79,64.91,222.54,63.24,223.65Z" fill="#bababa"/>
    <path d="M37.4,87.29l-.1-.13c-2-2-5.29-2.59-7.3-1.25a5.84,5.84,0,0,0-2.45,4.17,4.13,4.13,0,0,0,1.13,3.17c1.3,2.5,4.49,3.36,7.36,1.92l.14-.11L143.8,249.87a4.44,4.44,0,0,0-1.92,2.73,5.31,5.31,0,0,0,1,4.34,5,5,0,0,0,4.35,2.5,4.26,4.26,0,0,0,3-1.16,5.84,5.84,0,0,0,2.45-4.16,4.14,4.14,0,0,0-1.13-3.18,4.53,4.53,0,0,0-3-2.34,5.16,5.16,0,0,0-3.95.74L36.91,94.37C38.79,92.25,38.41,89.32,37.4,87.29ZM144.82,250.43a4.49,4.49,0,0,1,2.7-1,4,4,0,0,1,.85.09,3.54,3.54,0,0,1,2.35,1.89l.09.13a3.06,3.06,0,0,1,.9,2.46,4.92,4.92,0,0,1-2.11,3.48,3.45,3.45,0,0,1-3,.85,3.73,3.73,0,0,1-2.79-1.93l0-.07a4.34,4.34,0,0,1-.86-3.55A3.61,3.61,0,0,1,144.82,250.43ZM36.33,93.53l-.18-.26-.82.57.28.41-.09.07c-2,1-4.83.7-6-1.59l-.09-.13a3,3,0,0,1-.9-2.45,4.81,4.81,0,0,1,2-3.42,3.57,3.57,0,0,1,2-.55,5.89,5.89,0,0,1,4,1.63C37.35,89.49,37.67,91.83,36.33,93.53Z" fill="#bababa"/>
    <path d="M20.83,441.22a5.21,5.21,0,0,0,4.38,2,6.48,6.48,0,0,0,2.9-.67l.13-.09c2-2,2.59-5.29,1.25-7.3a5.81,5.81,0,0,0-4.16-2.45,4.06,4.06,0,0,0-3.18,1.13,4.47,4.47,0,0,0-2.08,2.19L10.8,434a6.12,6.12,0,0,0-.65-3.65A5.5,5.5,0,0,0,2.23,429c-2,1.36-2.68,4.7-1.38,7.29l0,.07a5.85,5.85,0,0,0,4.17,2.45,4.06,4.06,0,0,0,3.18-1.13A4.79,4.79,0,0,0,10.57,435l9.2,2A5.35,5.35,0,0,0,20.83,441.22Zm0-4.13a3.46,3.46,0,0,1,1.89-2.35l.13-.1a3.07,3.07,0,0,1,2.2-.91h.26a4.85,4.85,0,0,1,3.42,2c1,1.57.54,4.28-1.09,6-2.15,1-4.85.55-5.94-1.07v0A4.34,4.34,0,0,1,20.78,437.09ZM9.72,434.32a3.77,3.77,0,0,1-2,2.54l-.13.1a3.09,3.09,0,0,1-2.46.89,4.84,4.84,0,0,1-3.41-2c-1-2.16-.57-4.88,1.08-6a4.49,4.49,0,0,1,6.51,1A5,5,0,0,1,9.72,434.32Z" fill="#bababa"/>
    <path d="M161.15,398.84l.58.82,12.06-8.44a4.49,4.49,0,0,0,2.91,2.21,5.22,5.22,0,0,0,4.3-1,4,4,0,0,0,2.24-3.26,7.32,7.32,0,0,0-.85-4.14,5.88,5.88,0,0,0-4.17-2.45,4.09,4.09,0,0,0-3.18,1.14,4.48,4.48,0,0,0-2.34,3,5.19,5.19,0,0,0,.73,3.94l-.19-.28Zm12.52-11.9a3.56,3.56,0,0,1,1.89-2.35l.13-.09a3.05,3.05,0,0,1,2.21-.91h.25a4.84,4.84,0,0,1,3.39,2,6.37,6.37,0,0,1,.71,3.49,3.16,3.16,0,0,1-1.77,2.53,4.33,4.33,0,0,1-3.55.86,3.52,3.52,0,0,1-2.35-1.89l-.05-.08A4.32,4.32,0,0,1,173.67,386.94Z" fill="#bababa"/>
    <path d="M216.36,355c-1.72,1.51-2.18,4.57-1,7l.09.13a7,7,0,0,0,4.9,2,6.62,6.62,0,0,0,2.93-.67l.13-.1c2-2,2.6-5.28,1.26-7.29a5.52,5.52,0,0,0-7.53-1.61l-55.31-79.94-.32-.2-35.45-6.61L41,146.44h0c2.43-1.88,3.26-5.11,1.82-7.27a5.51,5.51,0,0,0-7.93-1.32c-2,1.36-2.67,4.7-1.38,7.28l.05.08a5.81,5.81,0,0,0,4.16,2.45,4.12,4.12,0,0,0,2.51-.6l85.18,121.38.31.2,35.46,6.61Zm1,.51a4.49,4.49,0,0,1,6.53,1.08c1,1.57.55,4.28-1.09,6a5.93,5.93,0,0,1-6.54-1.09C215.21,359.35,215.69,356.65,217.34,355.55ZM37.77,146.66a4.84,4.84,0,0,1-3.42-2c-1.05-2.16-.57-4.88,1.09-6A4.48,4.48,0,0,1,42,139.75c1,1.51.57,4.27-1.75,6A3,3,0,0,1,37.77,146.66Z" fill="#bababa"/>
    <path d="M149.48,526,84.2,432a4.44,4.44,0,0,0,1.92-2.73,5.23,5.23,0,0,0-1-4.3c-1.4-2.79-4.78-2.7-7.4-1.38a5.42,5.42,0,0,0-1.32,7.32v0a5.85,5.85,0,0,0,4.17,2.45,4,4,0,0,0,2.79-.8l65.32,94.07c-1.79,2-2.24,5.07-1,7v0a5.88,5.88,0,0,0,4.17,2.45h.32a4.07,4.07,0,0,0,2.86-1.15,4.49,4.49,0,0,0,2.34-3,5.21,5.21,0,0,0-1-4.3,4.48,4.48,0,0,0-3-2.42A5.25,5.25,0,0,0,149.48,526Zm-66.22-94.6-.13.09a3.09,3.09,0,0,1-2.46.9,4.87,4.87,0,0,1-3.43-2,4.41,4.41,0,0,1,1-5.91c2.11-1.06,4.88-1.2,6,1.06a4.32,4.32,0,0,1,.86,3.55A3.56,3.56,0,0,1,83.26,431.43Zm72.34,96.8a4.32,4.32,0,0,1,.86,3.55,3.56,3.56,0,0,1-1.89,2.35l-.13.09a3.06,3.06,0,0,1-2.46.9,4.83,4.83,0,0,1-3.43-2c-1-1.59-.52-4.33,1.1-6a4.29,4.29,0,0,1,3.55-.85A3.57,3.57,0,0,1,155.6,528.23Z" fill="#bababa"/>
    <path d="M38.92,422.43l.09.13a6.84,6.84,0,0,0,4.71,2,4.56,4.56,0,0,0,2.59-.73,6,6,0,0,0,2.39-3.71,5.43,5.43,0,0,0-1.06-4.21c-1.36-2-4.7-2.67-7.29-1.38l-.13.09a6.8,6.8,0,0,0-1.67,2.83l-26.9-4.78-.17,1,26.85,4.77A6.72,6.72,0,0,0,38.92,422.43Zm1.95-7.06c2.15-1,4.85-.55,6,1.1a4.33,4.33,0,0,1,.89,3.46,5,5,0,0,1-2,3.07c-1.57,1-4.28.54-6-1.09A5.93,5.93,0,0,1,40.87,415.37Z" fill="#bababa"/>
    <path d="M206.35,617.62v0a6.32,6.32,0,0,0,4.92,2.62,4.34,4.34,0,0,0,2.43-.71,6,6,0,0,0,2.38-3.71,5.42,5.42,0,0,0-1.05-4.21c-1.29-1.92-4.31-2.59-6.89-1.55l-37.57-54.26a6.12,6.12,0,0,0,.93-7.05,5.51,5.51,0,0,0-7.93-1.32c-2,1.36-2.67,4.7-1.38,7.29l.05.07a5.5,5.5,0,0,0,7.52,1.6L207.3,610.6A5.41,5.41,0,0,0,206.35,617.62Zm-36.75-62.3a4.5,4.5,0,0,1-6.53-1.07c-1-2.16-.57-4.88,1.09-6a4.49,4.49,0,0,1,6.53,1.08C171.78,551,171.19,554.26,169.6,555.32Zm38.59,55.82c2.17-1.08,4.92-.6,6,1.06a4.44,4.44,0,0,1,.89,3.47,5,5,0,0,1-2,3.07c-1.51,1-4.26.56-6-1.69A4.41,4.41,0,0,1,208.19,611.14Z" fill="#bababa"/>
    <path d="M67.49,460.33a6.27,6.27,0,0,0,4.06,6.2,4.83,4.83,0,0,0,1.08.12,5.49,5.49,0,0,0,3.27-1.13c2-1.36,2.68-4.7,1.33-7.37a5.84,5.84,0,0,0-4.16-2.45,4.09,4.09,0,0,0-2.79.8L61.8,444.06c1.72-1.51,2.18-4.57.93-7.05-2.13-2.84-5.57-2.5-7.87-1.36l-.13.1c-2,2-2.6,5.29-1.28,7.27l0,0a5.51,5.51,0,0,0,7.52,1.6l8.48,12.44A4.86,4.86,0,0,0,67.49,460.33Zm-6.67-16.78a4.49,4.49,0,0,1-6.54-1.09c-1-1.57-.53-4.27,1.1-5.95,1.95-.95,4.81-1.22,6.5,1C63,439.69,62.49,442.44,60.82,443.55Zm9.59,14.14.13-.09a3,3,0,0,1,2.2-.91H73a4.84,4.84,0,0,1,3.39,2c1.08,2.16.6,4.91-1.06,6a4.3,4.3,0,0,1-3.55.85,3.48,3.48,0,0,1-2.35-1.88l-.1-.13a3.53,3.53,0,0,1-.85-3.05A3.75,3.75,0,0,1,70.41,457.69Z" fill="#bababa"/>
    <path d="M65.49,411.06h.32a4.09,4.09,0,0,0,2.86-1.14A4.45,4.45,0,0,0,71,407a5.25,5.25,0,0,0-1-4.35c-1.36-2-4.7-2.67-7.29-1.38l-.13.09c-2,2-2.59,5.29-1.27,7.28l0,0A5.81,5.81,0,0,0,65.49,411.06Zm-2.26-9c2.15-1,4.85-.55,6,1.09a4.33,4.33,0,0,1,.86,3.55,3.46,3.46,0,0,1-1.89,2.35l-.13.1a3.07,3.07,0,0,1-2.46.89,4.82,4.82,0,0,1-3.42-2C61.1,406.46,61.6,403.76,63.23,402.08Z" fill="#bababa"/>
    <path d="M146.18,470.32a5.12,5.12,0,0,0-3.82.65L60,352.83a5.86,5.86,0,0,0,2-3.41,5.42,5.42,0,0,0-1.06-4.22c-1.36-2-4.69-2.67-7.28-1.37l-.13.09a7,7,0,0,0-1.31,7.83l.1.13a6.31,6.31,0,0,0,6.85,1.51L141.51,471.5a4.47,4.47,0,0,0-2,2.81,5.28,5.28,0,0,0,1,4.34,4,4,0,0,0,3.23,2.2,5.32,5.32,0,0,0,.69,0,7.79,7.79,0,0,0,3.45-.89,5.85,5.85,0,0,0,2.45-4.17,4.06,4.06,0,0,0-1.13-3.17A4.45,4.45,0,0,0,146.18,470.32ZM59,352.32c-1.56,1-4.28.54-6-1.09a6,6,0,0,1,1.1-6.55c2.15-1,4.85-.54,5.95,1.1a4.44,4.44,0,0,1,.89,3.47A5,5,0,0,1,59,352.32Zm88.29,126.83a6.42,6.42,0,0,1-3.5.71,3.1,3.1,0,0,1-2.48-1.69l-.05-.08a4.28,4.28,0,0,1-.85-3.55,3.45,3.45,0,0,1,1.64-2.21l.22.31.82-.58-.19-.26a4.15,4.15,0,0,1,3-.51,3.48,3.48,0,0,1,2.35,1.89l.1.13a3.05,3.05,0,0,1,.89,2.45A4.82,4.82,0,0,1,147.32,479.15Z" fill="#bababa"/>
    <path d="M182.92,440.52c-2,1.36-2.68,4.7-1.38,7.28l.05.08a5.81,5.81,0,0,0,4.16,2.45h.32a4,4,0,0,0,2.86-1.15c2.45-1.84,3.33-5,2-7.2l54.34-37.79a4.42,4.42,0,0,0,2.73,1.91,5.19,5.19,0,0,0,4.3-1,4,4,0,0,0,2.24-3.25,7.21,7.21,0,0,0-.81-4.06l-.09-.13c-2-2-5.29-2.6-7.3-1.26a5.85,5.85,0,0,0-2.45,4.17,4.09,4.09,0,0,0,.8,2.79l-54.39,37.82A5.43,5.43,0,0,0,182.92,440.52Zm64-43.27a3.57,3.57,0,0,1,2-.55,5.88,5.88,0,0,1,3.95,1.64,6.37,6.37,0,0,1,.68,3.42,3.17,3.17,0,0,1-1.77,2.53,4.32,4.32,0,0,1-3.55.85,3.48,3.48,0,0,1-2.35-1.88l-.1-.13a3.13,3.13,0,0,1-.9-2.46A4.81,4.81,0,0,1,246.93,397.25Zm-58.65,51.18a3,3,0,0,1-2.46.9,4.84,4.84,0,0,1-3.41-2c-1-2.16-.57-4.88,1.08-6a4.49,4.49,0,0,1,6.54,1.08C191,443.93,190.6,446.69,188.28,448.43Z" fill="#bababa"/>
    <path d="M446.62,505l.47-.32-36.84-53.13a5.76,5.76,0,0,0,1.64-3.06,5.41,5.41,0,0,0-1.06-4.22c-1.36-2-4.69-2.67-7.36-1.33a6,6,0,0,0-2.38,3.71,5.44,5.44,0,0,0,1.07,4.24l0,.05c2,2,5.27,2.6,7.28,1.27l36.78,53,.17-.12-.11.08c-2,2-2.6,5.29-1.28,7.28l0,0a5.8,5.8,0,0,0,4.62,2.47,5.53,5.53,0,0,0,3.31-1.14c2-1.36,2.67-4.7,1.33-7.37A5.52,5.52,0,0,0,446.62,505Zm-37.69-53.62c-1.57,1.05-4.31.54-6-1.12a4.38,4.38,0,0,1-.87-3.43,5,5,0,0,1,1.93-3c2.16-1.08,4.91-.61,6,1.06a4.43,4.43,0,0,1,.89,3.46A5,5,0,0,1,408.93,451.39ZM452.42,513a4.5,4.5,0,0,1-6.54-1.1c-1.05-1.58-.52-4.33,1.1-5.95a4.48,4.48,0,0,1,6.5,1C454.56,509.17,454.09,511.92,452.42,513Z" fill="#bababa"/>
    <path d="M8.37,10.2,94.55,134.92l.33.21,35.45,6,87.39,125.32-6.61,35.43.08.38,55.89,79.9a4.86,4.86,0,0,0-2,2.91,6,6,0,0,0,.49,4.12l0,.08a5.77,5.77,0,0,0,4.62,2.46,5.49,5.49,0,0,0,3.31-1.14c2-1.36,2.67-4.69,1.33-7.36a5.88,5.88,0,0,0-4.17-2.45,4.09,4.09,0,0,0-2.79.8l-55.76-79.72,6.61-35.44-.08-.38L131,140.4l-.33-.21-35.45-6L9.22,9.68a5.88,5.88,0,0,0,2-3.41A5.45,5.45,0,0,0,10.11,2C8.08,0,4.82-.61,2.81.73A6,6,0,0,0,.42,4.44,5.47,5.47,0,0,0,1.49,8.67C2.77,10.58,5.8,11.24,8.37,10.2ZM268,382.78l.13-.09a3.06,3.06,0,0,1,2.46-.9,4.84,4.84,0,0,1,3.39,2c1.08,2.17.61,4.92-1.06,6a4.51,4.51,0,0,1-6.53-1.07,5.11,5.11,0,0,1-.39-3.4A3.8,3.8,0,0,1,268,382.78ZM1.41,4.61a5,5,0,0,1,2-3.07A3.66,3.66,0,0,1,5.4,1,5.8,5.8,0,0,1,9.35,2.64a4.33,4.33,0,0,1,.89,3.46,4.94,4.94,0,0,1-1.92,3c-2.16,1.08-4.91.6-6-1v0A4.4,4.4,0,0,1,1.41,4.61Z" fill="#bababa"/>
    <path d="M363.49,350.61a5.52,5.52,0,0,0,7.39,1.68l67.87,97.61a5.73,5.73,0,0,0-2.08,3.86,4.11,4.11,0,0,0,1.17,3.21,5.82,5.82,0,0,0,4.14,2.42h.32a4,4,0,0,0,2.86-1.14,4.45,4.45,0,0,0,2.34-3,5.19,5.19,0,0,0-1-4.3c-1.31-2.63-4.38-2.71-6.92-1.61l-67.92-97.69c1.87-2,2.37-5.16,1.07-7.1a5.85,5.85,0,0,0-4.17-2.45,4.11,4.11,0,0,0-3.18,1.13,4.81,4.81,0,0,0-2.45,3.16,5.94,5.94,0,0,0,.49,4.12Zm76.16,99.83a6.69,6.69,0,0,1,2.9-.73,3.27,3.27,0,0,1,3.12,1.79,4.34,4.34,0,0,1,.86,3.55,3.46,3.46,0,0,1-1.89,2.35l-.13.1a3,3,0,0,1-2.45.89,4.82,4.82,0,0,1-3.44-2.05l-.05,0a3.09,3.09,0,0,1-.9-2.46A4.84,4.84,0,0,1,439.65,450.44ZM363.92,346.66a3.77,3.77,0,0,1,2-2.54l.13-.1a3.13,3.13,0,0,1,2.46-.9,4.83,4.83,0,0,1,3.42,2c1,1.5.58,4.05-.84,5.7l-.15-.22-.82.57.19.27a4.49,4.49,0,0,1-6-1.42A5.08,5.08,0,0,1,363.92,346.66Z" fill="#bababa"/>
    <path d="M198.73,194.47,283.1,315.56l.33.21,34.84,6,72.89,104.78-6.61,34.83.08.38L411.55,500a5.74,5.74,0,0,0-2.07,3.87,4.13,4.13,0,0,0,1.13,3.17,4.84,4.84,0,0,0,3.16,2.46,5.79,5.79,0,0,0,1.38.16,6.2,6.2,0,0,0,2.74-.65l.13-.1a7,7,0,0,0,1.31-7.83l-.1-.13a6.31,6.31,0,0,0-6.85-1.51l-26.81-38.12,6.61-34.83-.08-.38L319,321l-.32-.21-34.85-6L199.55,193.89c1.79-2,2.24-5.08,1-7a5.85,5.85,0,0,0-4.17-2.45,4.08,4.08,0,0,0-3.18,1.13,4.51,4.51,0,0,0-2.34,3,5.32,5.32,0,0,0,1,4.37C193.15,194.86,196.22,195.52,198.73,194.47ZM412.51,500.56a3.57,3.57,0,0,1,2-.55,5.89,5.89,0,0,1,4,1.63,6,6,0,0,1-1.1,6.55c-2,1-4.77.64-5.9-1.63l-.09-.13a3,3,0,0,1-.9-2.45A4.81,4.81,0,0,1,412.51,500.56ZM191.8,188.79a3.54,3.54,0,0,1,1.89-2.35l.13-.1a3.08,3.08,0,0,1,2.2-.9h.26a4.85,4.85,0,0,1,3.42,2c1,1.56.54,4.27-1.09,6-2.15,1-4.85.55-5.93-1.07l0,0A4.33,4.33,0,0,1,191.8,188.79Z" fill="#bababa"/>
    <path d="M4.47,191.05a5.26,5.26,0,0,0,4-.74L83.68,298l.32.21,34.84,6L159,362.9A5.42,5.42,0,0,0,157.4,366a5.48,5.48,0,0,0,.6,3.91l0,0a5.77,5.77,0,0,0,4.62,2.46,5.49,5.49,0,0,0,3.31-1.14c2-1.36,2.67-4.7,1.33-7.36a5.52,5.52,0,0,0-7.52-1.61l-40.21-58.79-.33-.21-34.84-6L9.22,189.71a5.69,5.69,0,0,0,2.08-3.86,4.06,4.06,0,0,0-1.15-3.18A5.81,5.81,0,0,0,6,180.22a4.1,4.1,0,0,0-3.18,1.13,4.51,4.51,0,0,0-2.34,3,5.28,5.28,0,0,0,1,4.34A4.52,4.52,0,0,0,4.47,191.05ZM159.93,363.4a4.49,4.49,0,0,1,6.5,1c1.08,2.16.61,4.91-1.06,6a4.3,4.3,0,0,1-7-4.28A4.21,4.21,0,0,1,159.93,363.4ZM1.44,184.56a3.54,3.54,0,0,1,1.89-2.35l.13-.09a3,3,0,0,1,2.2-.91h.26a4.94,4.94,0,0,1,3.48,2.1,3.06,3.06,0,0,1,.9,2.46,4.89,4.89,0,0,1-2.05,3.44,4.33,4.33,0,0,1-3.55.85,3.46,3.46,0,0,1-2.35-1.89l-.05-.07A4.33,4.33,0,0,1,1.44,184.56Z" fill="#bababa"/>
    <path d="M4.47,56.32a4.51,4.51,0,0,0,.53.1L4.42,99.59l.09.29,11.32,16.68c-1.33,2-1.57,4.59-.45,6.28l0,0A5.77,5.77,0,0,0,20,125.32a5.49,5.49,0,0,0,3.31-1.14c2-1.36,2.67-4.7,1.38-7.28l-.1-.13a7,7,0,0,0-7.83-1.31l-.13.1-.17.18L5.42,99.45l.58-43a5.46,5.46,0,0,0,2.77-1.09,4.48,4.48,0,0,0,2.41-3,5.27,5.27,0,0,0-1-4.38A5.81,5.81,0,0,0,6,45.5a4.06,4.06,0,0,0-3.18,1.13,4.51,4.51,0,0,0-2.34,3,5.28,5.28,0,0,0,1,4.34A4.5,4.5,0,0,0,4.47,56.32Zm12.83,60a6,6,0,0,1,6.55,1.1c1,2.14.55,4.85-1.1,6a4.5,4.5,0,0,1-6.54-1.1C15.17,120.7,15.68,118,17.3,116.32ZM1.44,49.84a3.52,3.52,0,0,1,1.89-2.35l.13-.1a3.09,3.09,0,0,1,2.46-.89,4.82,4.82,0,0,1,3.43,2,4.29,4.29,0,0,1,.86,3.55,3.55,3.55,0,0,1-2,2.39A4.63,4.63,0,0,1,6,55.42V54.9H5v.52l-.32-.06a3.46,3.46,0,0,1-2.35-1.89l-.05-.07A4.33,4.33,0,0,1,1.44,49.84Z" fill="#bababa"/>
    <path d="M8.83,145.32l33.44,48.36a4.42,4.42,0,0,0-1.91,2.73,5.24,5.24,0,0,0,1,4.34,4.45,4.45,0,0,0,3,2.38,5,5,0,0,0,1.09.12,5.42,5.42,0,0,0,3.22-1.1,4,4,0,0,0,2.23-3.26,7.32,7.32,0,0,0-.85-4.14,5.86,5.86,0,0,0-4.17-2.45,4.13,4.13,0,0,0-2.78.8L9.59,144.67a5.6,5.6,0,0,0,1.71-3.53A4,4,0,0,0,10.15,138,5.86,5.86,0,0,0,6,135.51a4.11,4.11,0,0,0-3.18,1.14,4.49,4.49,0,0,0-2.34,3,5.31,5.31,0,0,0,1,4.35C2.88,146.71,6.22,146.62,8.83,145.32Zm34.39,49,.13-.09a3,3,0,0,1,2.2-.91h.25a4.8,4.8,0,0,1,3.39,2,6.37,6.37,0,0,1,.71,3.49,3.15,3.15,0,0,1-1.77,2.53,4.28,4.28,0,0,1-3.55.85,3.5,3.5,0,0,1-2.35-1.88l0-.08a4.28,4.28,0,0,1-.85-3.55A3.48,3.48,0,0,1,43.22,194.29ZM1.44,139.85a3.56,3.56,0,0,1,1.89-2.35l.13-.09a3,3,0,0,1,2.2-.91h.26a4.92,4.92,0,0,1,3.48,2.11,3,3,0,0,1,.9,2.45,4.8,4.8,0,0,1-2,3.39c-2.11,1.06-4.88,1.2-6-1l-.05-.08A4.32,4.32,0,0,1,1.44,139.85Z" fill="#bababa"/>
    <path d="M153.9,316a5.42,5.42,0,0,0,3-.89,5.82,5.82,0,0,0,2.46-4.17,4.1,4.1,0,0,0-1.14-3.17,4.43,4.43,0,0,0-3-2.34,5.19,5.19,0,0,0-4.3,1,4.47,4.47,0,0,0-2.41,3,5.26,5.26,0,0,0,1,4.37A5.36,5.36,0,0,0,153.9,316Zm-4.4-6.34a3.55,3.55,0,0,1,2-2.4,4.5,4.5,0,0,1,2.7-1,3.94,3.94,0,0,1,.84.1,3.5,3.5,0,0,1,2.36,1.89l.09.13a3,3,0,0,1,.9,2.45,4.81,4.81,0,0,1-2,3.42,4.41,4.41,0,0,1-6-1.09A4.31,4.31,0,0,1,149.5,309.62Z" fill="#bababa"/>
    <path d="M1.49,276.9c1.12,1.67,3.58,2.39,5.89,1.85l30.74,43.73a7,7,0,0,0-1,7.52l.09.13a6.82,6.82,0,0,0,4.71,2,4.66,4.66,0,0,0,2.59-.73A5.81,5.81,0,0,0,47,327.22,4.06,4.06,0,0,0,45.82,324a5.28,5.28,0,0,0-6.89-2.14L8.38,278.43a4.84,4.84,0,0,0,.47-.21,5.86,5.86,0,0,0,2.45-4.17,4.06,4.06,0,0,0-1.15-3.18A5.84,5.84,0,0,0,6,268.42a4.1,4.1,0,0,0-3.18,1.13,4.53,4.53,0,0,0-2.34,3A5.32,5.32,0,0,0,1.49,276.9Zm37.57,46c2-1,4.77-.64,5.9,1.62l.1.13a3.13,3.13,0,0,1,.9,2.46,4.86,4.86,0,0,1-2,3.42c-1.56,1-4.27.54-6-1.09A5.93,5.93,0,0,1,39.06,322.94ZM1.44,272.76a3.54,3.54,0,0,1,1.89-2.35l.13-.09a3,3,0,0,1,2.2-.91h.26a4.92,4.92,0,0,1,3.48,2.11,3,3,0,0,1,.9,2.45,4.8,4.8,0,0,1-2,3.39c-.17.09-.35.16-.52.23l0-.07-.24.17c-2,.62-4.23.08-5.2-1.37v0A4.32,4.32,0,0,1,1.44,272.76Z" fill="#bababa"/>
    <path d="M198.24,375,230,379.09a5.54,5.54,0,0,0,1.14,3.53,5.17,5.17,0,0,0,4.35,2,6.75,6.75,0,0,0,3-.71,6,6,0,0,0,2.38-3.71,5.41,5.41,0,0,0-1.06-4.22c-1.36-2-4.7-2.67-7.36-1.33a6,6,0,0,0-2.32,3.42L198.59,374l-41-59-.82.57,41.09,59.2Zm32.81,3.59a5,5,0,0,1,1.92-3,5.63,5.63,0,0,1,2.48-.58,4.22,4.22,0,0,1,3.55,1.64,4.44,4.44,0,0,1,.89,3.47,5,5,0,0,1-1.93,3c-2.16,1.09-4.91.61-6-1l0,0A4.42,4.42,0,0,1,231.05,378.57Z" fill="#bababa"/>
    <path d="M128.6,173a5.82,5.82,0,0,0-4.17-2.46,4.1,4.1,0,0,0-3.17,1.14,4.43,4.43,0,0,0-2.34,3,5.31,5.31,0,0,0,1,4.35,4.49,4.49,0,0,0,3,2.37,5.24,5.24,0,0,0,4-.74l65.28,94a4.42,4.42,0,0,0-1.91,2.73,5.28,5.28,0,0,0,1,4.34,4.49,4.49,0,0,0,3,2.37,5,5,0,0,0,1.08.13,5.48,5.48,0,0,0,3.3-1.16,5.42,5.42,0,0,0,1.31-7.34,5.81,5.81,0,0,0-4.17-2.45,4.08,4.08,0,0,0-2.78.8L127.63,180C129.42,178,129.88,174.92,128.6,173Zm64.49,102.24.13-.1a3.05,3.05,0,0,1,2.2-.91h.25a4.85,4.85,0,0,1,3.43,2,4.42,4.42,0,0,1-1.1,6,4.32,4.32,0,0,1-3.55.86,3.54,3.54,0,0,1-2.35-1.89l0-.08a4.27,4.27,0,0,1-.86-3.54A3.46,3.46,0,0,1,193.09,275.25Zm-66.4-95.7a4.32,4.32,0,0,1-3.55.86,3.56,3.56,0,0,1-2.35-1.89l0-.08a4.29,4.29,0,0,1-.86-3.55,3.51,3.51,0,0,1,1.89-2.35l.13-.09a3,3,0,0,1,2.2-.91h.25a4.85,4.85,0,0,1,3.43,2C128.84,175.17,128.32,177.92,126.69,179.55Z" fill="#bababa"/>
    <path d="M508.65,632.91a4.06,4.06,0,0,0-1.13-3.18,4.51,4.51,0,0,0-3-2.34,5.13,5.13,0,0,0-3.52.49L433.5,530.51a4.06,4.06,0,0,0,1.74-3,7.31,7.31,0,0,0-.85-4.14,5.85,5.85,0,0,0-4.17-2.45,4.15,4.15,0,0,0-3.18,1.13,4.51,4.51,0,0,0-2.34,3,5.31,5.31,0,0,0,1,4.34,4.48,4.48,0,0,0,3,2.37,5.11,5.11,0,0,0,3.95-.73l67.52,97.37c-2,1.37-2.66,4.69-1.36,7.28l.09.13a6.82,6.82,0,0,0,4.71,2,4.58,4.58,0,0,0,2.59-.73A5.81,5.81,0,0,0,508.65,632.91ZM432.48,530a4.32,4.32,0,0,1-3.55.85,3.48,3.48,0,0,1-2.35-1.89l-.05-.07a4.29,4.29,0,0,1-.85-3.55,3.5,3.5,0,0,1,1.88-2.35l.13-.09a3.05,3.05,0,0,1,2.21-.91h.25a4.84,4.84,0,0,1,3.39,2,6.4,6.4,0,0,1,.71,3.49A3.17,3.17,0,0,1,432.48,530Zm67.19,105.22c-1-2.15-.55-4.85,1.09-5.95a4.33,4.33,0,0,1,3.55-.86,3.52,3.52,0,0,1,2.35,1.89l.1.13a3.09,3.09,0,0,1,.89,2.46,4.82,4.82,0,0,1-2,3.42C504.06,637.3,501.35,636.8,499.67,635.17Z" fill="#bababa"/>
    <path d="M158,397.39a7.32,7.32,0,0,0-4.14.86,5.81,5.81,0,0,0-2.45,4.16,4.08,4.08,0,0,0,1.13,3.18,4.51,4.51,0,0,0,3,2.34,4.9,4.9,0,0,0,1.08.12,5.42,5.42,0,0,0,3.22-1.1,4.52,4.52,0,0,0,2.41-3,5.19,5.19,0,0,0-1-4.3A4,4,0,0,0,158,397.39Zm3.26,6.31a3.59,3.59,0,0,1-2,2.4,4.3,4.3,0,0,1-3.55.85,3.48,3.48,0,0,1-2.35-1.88l-.1-.13a3.13,3.13,0,0,1-.9-2.46,4.84,4.84,0,0,1,2-3.39,6.72,6.72,0,0,1,2.93-.74,3.43,3.43,0,0,1,.56,0,3.13,3.13,0,0,1,2.53,1.76A4.29,4.29,0,0,1,161.29,403.7Z" fill="#bababa"/>
    <path d="M214.31,398.44a5.41,5.41,0,0,0,1.31-7.34,5.81,5.81,0,0,0-4.16-2.45,4,4,0,0,0-3.18,1.13,4.43,4.43,0,0,0-2.34,3,5.33,5.33,0,0,0,1,4.36l-33.42,23.27c-.05-.08-.11-.15-.16-.22a4.49,4.49,0,0,0-3-2.41,5.31,5.31,0,0,0-4.38,1,5.84,5.84,0,0,0-2.45,4.16,4.11,4.11,0,0,0,1.17,3.21,5.82,5.82,0,0,0,4.14,2.42h.32a4.11,4.11,0,0,0,2.86-1.14,4.51,4.51,0,0,0,2.34-3,5.06,5.06,0,0,0-.33-3.2l33.6-23.4A6.2,6.2,0,0,0,214.31,398.44Zm-40.93,25.8a3.54,3.54,0,0,1-1.89,2.35l-.13.1a3.09,3.09,0,0,1-2.46.89,4.82,4.82,0,0,1-3.43-2.05l-.05,0a3.06,3.06,0,0,1-.9-2.46,4.85,4.85,0,0,1,2-3.43,4.5,4.5,0,0,1,2.7-1,4,4,0,0,1,.85.1,3.57,3.57,0,0,1,2.4,2A4.34,4.34,0,0,1,173.38,424.24ZM206.91,393a3.49,3.49,0,0,1,1.89-2.34l.13-.1a3,3,0,0,1,2.2-.91h.26a4.85,4.85,0,0,1,3.42,2,4.41,4.41,0,0,1-1,5.92c-2.16,1.08-4.91.61-6-1v0A4.32,4.32,0,0,1,206.91,393Z" fill="#bababa"/>
  </g>
</svg>
