<?xml version="1.0" encoding="utf-8"?>
<svg version="1.1" baseProfile="tiny" id="Layer_1" xmlns="http://www.w3.org/2000/svg"
     x="0px" y="0px" width="602.33" height="728.58" viewBox="0 0 602.3 728.6" xml:space="preserve">
<title>Монтажная область 114</title>
<g>
	<path fill="#BABABA" d="M591,496.8c-0.1,1.2,0.3,2.3,1.1,3.2c1.9,2.5,5.2,3.4,7.3,1.9c1.2-0.9,2.1-2.2,2.4-3.7
		c0.2-1.5-0.1-3-1.1-4.2c-1.3-1.9-4.3-2.6-6.9-1.5L514,378.4c1.2-1,1.9-2.3,2.1-3.9c0.1-1.2-0.3-2.4-1.2-3.2c-1-1.4-2.5-2.2-4.1-2.4
		h-0.3c-1.1,0-2.1,0.4-2.9,1.1c-1.2,0.6-2.1,1.7-2.3,3c-0.3,1.5,0,3.1,1,4.4c1.3,1.9,4.3,2.6,6.9,1.5l79.9,114
		C591.9,493.9,591.1,495.3,591,496.8z M513.1,377.8c-0.8,0.4-1.6,0.6-2.5,0.6c-1.4,0.1-2.7-0.5-3.5-1.6c-0.8-1-1.1-2.3-0.9-3.5
		c0.2-1,0.9-1.9,1.9-2.4l0.1-0.1c0.6-0.6,1.5-1,2.5-0.9c1.4,0.1,2.6,0.9,3.4,2v0c0.7,0.6,1,1.5,0.9,2.5
		C514.9,375.8,514.2,377,513.1,377.8z M594,493.5c2.2-1.1,4.9-0.6,6,1l0,0c0.8,1,1.1,2.2,0.9,3.5c-0.3,1.2-1,2.3-2,3.1
		c-0.5,0.4-1.2,0.5-1.8,0.5c-1.7-0.1-3.2-0.9-4.2-2.3c-0.7-0.6-1-1.5-0.9-2.4C592.1,495.5,592.9,494.3,594,493.5z"/>
	<path fill="#BABABA" d="M439.8,237.8c1.7,2.5,5.1,3.2,7.6,1.5c0.1-0.1,0.2-0.1,0.3-0.2c2-1.4,2.7-4.7,1.4-7.3v-0.1
		c-1.6-2.4-4.9-3.2-7.4-1.7l-38.3-55.4c1.8-2.1,2.2-5,1-7.5l-0.1-0.1c-1.3-1.3-3.1-2-4.9-2c-1,0-2,0.2-2.9,0.7l-0.1,0.1
		c-2,2.1-2.5,5.2-1.3,7.8l0.1,0.1c2,1.9,4.9,2.5,7.4,1.5l38.3,55.4c-0.9,0.8-1.5,2-1.7,3.2C438.9,235.2,439.2,236.6,439.8,237.8z
		 M402.5,174.3c-2.1,1.5-5,1-6.5-1.1c-1.5-2.1-1-5,1.1-6.5c2.1-1.5,5-1,6.5,1.1c0,0,0,0,0,0C404.6,169.9,404.1,172.5,402.5,174.3z
		 M440.2,234.1c0.1-1,0.6-1.9,1.3-2.6l0.2,0.3l0.8-0.6l-0.2-0.3c2.1-1.2,4.7-0.6,6,1.4c1,2.1,0.6,4.9-1.1,6c-2,1.5-4.8,1.2-6.3-0.8
		c-0.1-0.1-0.2-0.2-0.2-0.3C440.1,236.3,440,235.1,440.2,234.1z"/>
	<path fill="#BABABA" d="M497,409.5c-0.1,1.4,0.2,2.9,0.8,4.1c1,1.4,2.5,2.3,4.2,2.5c1.2,0.1,2.3-0.3,3.2-1.1c1.4-1,2.3-2.5,2.5-4.2
		c0.1-1.2-0.3-2.3-1.1-3.2c-0.6-1.2-1.7-2-3-2.3c-1.4-0.3-2.8,0-4,0.7L462,351.8c1.8-2.1,2.2-5,1-7.5l-0.1-0.1c-1.3-1.3-3.1-2-4.9-2
		c-1,0-2,0.2-2.9,0.7l-0.1,0.1c-2,2.1-2.5,5.2-1.3,7.8l0.1,0.1c2,1.9,4.9,2.5,7.4,1.5l37.5,54.2C497.7,407.2,497.1,408.3,497,409.5z
		 M461.1,351.3c-2.1,1.5-5,1-6.5-1.1s-1-5,1.1-6.5c2.1-1.5,5-1,6.5,1.1c0,0,0,0,0,0C463.2,346.9,462.8,349.5,461.1,351.3z
		 M499.8,407.1c1-0.8,2.3-1.1,3.6-0.9c1,0.2,1.9,0.9,2.3,1.9l0.1,0.1c0.7,0.6,1,1.5,0.9,2.5c-0.2,1.4-0.9,2.7-2.1,3.5
		c-0.6,0.6-1.4,0.9-2.2,0.9h-0.3c-1.4-0.2-2.6-0.9-3.4-2c-0.6-1.1-0.8-2.3-0.7-3.5C498.1,408.5,498.8,407.6,499.8,407.1z"/>
	<path fill="#BABABA" d="M388.6,60.9c1.4-1,2.3-2.5,2.5-4.2c0.1-1.2-0.3-2.4-1.2-3.2c-1-1.4-2.5-2.2-4.1-2.4h-0.3
		c-1.1,0-2.1,0.4-2.9,1.2c-1.2,0.6-2,1.7-2.3,3c-0.3,1.5,0,3.1,1,4.3C382.6,61.6,385.9,62.2,388.6,60.9z M381.2,55.5
		c0.2-1,0.9-1.9,1.9-2.3l0.1-0.1c0.6-0.6,1.5-1,2.5-0.9c1.4,0.2,2.6,0.9,3.4,2.1h0.1c0.7,0.6,1,1.5,0.9,2.5c-0.2,1.4-0.9,2.6-2,3.4
		c-0.8,0.4-1.6,0.6-2.5,0.6c-1.4,0.1-2.7-0.5-3.6-1.6C381.2,58,380.9,56.7,381.2,55.5L381.2,55.5z"/>
	<path fill="#BABABA" d="M325.6,252.9c1,1.4,2.5,2.3,4.2,2.5c1.2,0.1,2.3-0.3,3.2-1.1c1.2-0.6,2.1-1.7,2.4-3c0.3-1.5,0-3.1-1-4.3
		c-0.6-1.2-1.7-2.1-3-2.4c-1.4-0.3-2.8,0-4,0.7l-8.5-12.4c1-0.6,1.7-1.6,1.9-2.7c0.3-1.5,0-3.1-1-4.4c-1-1.3-2.7-2.1-4.4-2
		c-1,0-2.1,0.2-3,0.7c-2.3,1.7-2.9,4.9-1.3,7.4c1,1.4,2.5,2.3,4.2,2.5c1,0.1,2-0.2,2.8-0.8l8.5,12.5
		C324.8,247.8,324.4,250.6,325.6,252.9L325.6,252.9z M317.9,232.2l-0.1,0.1c-0.6,0.6-1.4,0.9-2.2,0.9h-0.3c-1.4-0.1-2.6-0.9-3.4-2
		c-1.3-1.9-0.8-4.5,1-5.9c2.2-1.1,4.9-0.6,6,1l0,0c0.8,1,1.1,2.3,0.9,3.5C319.6,230.9,318.9,231.8,317.9,232.2z M325.9,249.2
		c0.1-1.1,0.7-2.1,1.5-2.8c1-0.8,2.3-1.1,3.5-0.9c1,0.2,1.9,0.9,2.4,1.9l0,0.1c0.8,1,1.1,2.3,0.9,3.5c-0.2,1-0.9,1.9-1.9,2.4
		l-0.1,0.1c-0.6,0.6-1.4,0.9-2.2,0.9h-0.3c-1.4-0.1-2.6-0.9-3.4-2C325.9,251.4,325.7,250.2,325.9,249.2L325.9,249.2z"/>
	<path fill="#BABABA" d="M293.2,331.3l-0.1,0.1c-2,2-2.6,5.3-1.3,7.3c1,1.4,2.5,2.3,4.2,2.5c1.2,0.1,2.3-0.3,3.2-1.1
		c1.2-0.6,2-1.7,2.3-3c0.3-1.4,0-2.8-0.7-3.9l0.2,0.3l82.2-57.4c1.4,1.9,4.6,2.5,7.2,1.2l0.1-0.1c2-2.1,2.5-5.2,1.3-7.8l-0.1-0.1
		c-1.3-1.3-2.9-2-4.7-2c-0.9,0-1.8,0.2-2.6,0.7c-1.2,0.9-2.1,2.2-2.4,3.7c-0.2,1.2,0,2.5,0.6,3.6l-82.2,57.4
		C298.9,330.6,295.7,330,293.2,331.3z M382.9,271.8c0.3-1.2,1-2.3,2-3.1c1.6-1,4.3-0.5,6,1.1c1,2.2,0.6,4.8-1.1,6.5
		c-2.1,1-4.6,0.6-5.8-0.9l1-0.7l-0.6-0.8l-0.9,0.7C383,273.8,382.8,272.8,382.9,271.8z M300.5,336.8c-0.2,1-0.9,1.9-1.9,2.4
		l-0.1,0.1c-0.6,0.6-1.4,0.9-2.2,0.9H296c-1.4-0.1-2.6-0.9-3.4-2c-1-1.6-0.5-4.3,1.1-6c2.1-1,4.9-0.5,5.9,1.1l0,0
		C300.4,334.3,300.7,335.6,300.5,336.8L300.5,336.8z"/>
	<path fill="#BABABA" d="M252.5,147.8c1,1.4,2.5,2.3,4.2,2.5c1.2,0.1,2.3-0.3,3.2-1.1c1.2-0.6,2-1.7,2.3-3c0.3-1.5,0-3.1-1-4.3
		c-0.6-1.2-1.7-2.1-3-2.4c-1.4-0.3-2.8,0-4,0.7L203,66.3c1.2-0.6,2.1-1.8,2.2-3.2c0.1-1.4-0.1-2.8-0.8-4.1l-0.1-0.1
		c-1.2-1.3-2.9-2-4.7-2c-0.9,0-1.8,0.2-2.6,0.7c-1.4,1-2.3,2.5-2.5,4.2c-0.1,1.2,0.3,2.3,1.1,3.2c0.6,1.2,1.7,2,3,2.3
		c1.2,0.3,2.4,0.1,3.5-0.5l51.2,73.9C251.7,142.3,251.3,145.3,252.5,147.8z M198.9,66.4c-1-0.2-1.9-0.9-2.4-1.9l-0.1-0.1
		c-0.6-0.6-1-1.5-0.9-2.5c0.1-1.4,0.9-2.6,2-3.4c1.6-1,4.3-0.5,6,1.1c0.5,1.1,0.8,2.2,0.7,3.4c-0.1,1.1-0.8,2.1-1.8,2.5
		C201.5,66.3,200.1,66.7,198.9,66.4L198.9,66.4z M254.4,141.3c1-0.8,2.3-1.1,3.6-0.8c1,0.2,1.9,0.9,2.4,1.9v0.1
		c0.8,1,1.1,2.3,0.9,3.5c-0.2,1-0.9,1.9-1.9,2.3l-0.1,0.1c-0.6,0.6-1.4,0.9-2.2,0.9h-0.3c-1.4-0.2-2.6-0.9-3.4-2
		C252.3,145.1,252.7,142.4,254.4,141.3L254.4,141.3z"/>
	<path fill="#BABABA" d="M296.1,208.1c-0.1,1.2,0.3,2.3,1.1,3.2c0.6,1.2,1.7,2,3,2.3c1.5,0.3,3.1,0,4.3-1c1.2-0.6,2.1-1.7,2.4-3
		c0.3-1.5,0-3.1-1-4.3c-0.6-1-1.5-1.7-2.7-2c-1.4-0.3-2.8-0.2-4.1,0.4l-23.2-33.1c1.8-2.1,2.2-5,1-7.5l-0.1-0.1
		c-1.3-1.3-3.1-2-4.9-2c-1,0-2,0.2-2.9,0.7l-0.1,0.1c-2,2.1-2.5,5.2-1.3,7.8l0.1,0.1c2,1.9,4.9,2.5,7.4,1.5l23.2,33
		C297,205.1,296.2,206.5,296.1,208.1z M275,170.1c-2.1,1.5-5,1-6.5-1.1s-1-5,1.1-6.5c2.1-1.5,5-1,6.5,1.1c0,0,0,0,0,0
		C277.1,165.7,276.6,168.3,275,170.1L275,170.1z M298.8,204.9l0.2,0.3l0.8-0.6l-0.1-0.2c1-0.4,2.2-0.5,3.3-0.2
		c0.9,0.2,1.6,0.8,2.1,1.6v0.1c0.8,1,1.1,2.3,0.9,3.5c-0.3,1.1-1,1.9-2,2.4c-0.8,0.6-1.7,1-2.7,1c-1.4,0-2.6-0.8-3.2-2l-0.1-0.1
		c-0.6-0.6-1-1.5-0.9-2.5C297.2,206.9,297.8,205.7,298.8,204.9L298.8,204.9z"/>
	<path fill="#BABABA" d="M345.3,233.1c-0.1,1.4,0.2,2.9,0.9,4.1c1.7,2.3,4.9,2.9,7.3,1.3c1.4-1,2.3-2.5,2.5-4.2
		c0.1-1.2-0.3-2.3-1.1-3.2c-0.6-1.2-1.7-2.1-3-2.4c-1.4-0.3-2.8,0-4,0.7L281.7,134c1-0.9,1.6-2.2,1.7-3.5c0.1-1.2-0.3-2.3-1.1-3.2
		c-0.6-1.2-1.7-2-3-2.3c-0.4-0.1-0.7-0.1-1.1-0.1c-1.2,0-2.3,0.4-3.2,1.1c-1.3,0.6-2.1,1.9-2.2,3.3c-0.1,1.4,0.2,2.9,0.9,4.1
		c1.7,2.3,5,2.9,7.4,1.3l66.1,95.5C346.1,230.8,345.4,231.9,345.3,233.1z M280.4,133.8c-0.7,0.5-1.6,0.7-2.4,0.7
		c-1.4,0-2.7-0.6-3.5-1.7c-0.6-1.1-0.8-2.3-0.7-3.5c0.1-1.1,0.8-2.1,1.8-2.5c1-0.8,2.3-1.1,3.5-0.8c1,0.2,1.9,0.9,2.4,1.9l0.1,0.1
		c0.7,0.6,1,1.5,0.9,2.5C282.3,131.7,281.5,133,280.4,133.8L280.4,133.8z M348.1,230.7c1-0.8,2.3-1.1,3.5-0.9c1,0.2,1.9,0.9,2.4,1.9
		l0.1,0.1c0.7,0.6,1,1.5,0.9,2.5c-0.1,1.4-0.9,2.6-2,3.4c-0.7,0.5-1.6,0.7-2.4,0.7c-1.4,0-2.7-0.6-3.5-1.7c-0.6-1.1-0.8-2.3-0.7-3.5
		C346.4,232.1,347.1,231.2,348.1,230.7z"/>
	<path fill="#BABABA" d="M556.7,341.8L556.7,341.8c-1.1-1.5-2.8-2.4-4.6-2.5c-1.2,0-2.4,0.4-3.3,1.1c-2,1.4-2.7,4.7-1.3,7.4
		c1.6,2.4,4.9,3.2,7.4,1.7l38.2,54.6c-1,0.6-1.7,1.6-1.9,2.7c-0.3,1.5,0,3.1,1,4.3c0.6,1.2,1.7,2.1,3,2.4c1.5,0.3,3.1,0,4.4-1
		c2-1.4,2.7-4.7,1.4-7.3l0-0.1c-1-1.4-2.5-2.3-4.2-2.5c-1-0.1-2,0.2-2.8,0.8l-38.2-54.7C557.5,346.8,558,343.7,556.7,341.8z
		 M594,404.7l0.1-0.1c0.6-0.7,1.5-1,2.5-0.9c1.4,0.1,2.6,0.9,3.4,2c1.1,2.1,0.6,4.9-1.1,6c-1,0.8-2.3,1.1-3.6,0.9
		c-1.1-0.3-1.9-1-2.4-2c-0.8-1-1.1-2.3-0.9-3.5C592.3,406,593,405.1,594,404.7z M555,348l-0.2-0.2l-0.8,0.6l0.2,0.3
		c-2.1,1.2-4.7,0.6-6-1.4c-1.1-2.2-0.6-4.9,1.1-6c2-1.5,4.8-1.2,6.3,0.8c0.1,0.1,0.2,0.2,0.2,0.3C556.9,343.8,556.4,346.4,555,348
		L555,348z"/>
	<path fill="#BABABA" d="M69,89.8c-1-1.4-2.5-2.3-4.2-2.5h-0.3c-0.9,0-1.8,0.3-2.5,0.9L23.3,33.4c1.1-0.9,1.8-2.1,2.1-3.4
		c0.3-1.5-0.1-3-1.1-4.2c-1-1.3-2.7-2.1-4.4-2c-1,0-2.1,0.2-3,0.7c-1.2,0.9-2.1,2.2-2.4,3.7c-0.3,1.5,0.1,3,1.1,4.2
		c1.3,1.9,4.2,2.6,6.8,1.6l38.8,54.8c-0.9,0.6-1.6,1.6-1.9,2.7c-0.3,1.5,0,3.1,1,4.3c1.4,2.8,4.8,2.7,7.4,1.4
		C70,95.5,70.6,92.2,69,89.8L69,89.8z M22.4,32.9c-0.8,0.4-1.6,0.6-2.5,0.6c-1.4,0.1-2.7-0.5-3.5-1.6c-0.8-1-1.1-2.2-0.9-3.5
		c0.3-1.2,0.9-2.3,1.9-3c2.2-1.1,4.9-0.6,6,1l0,0c0.8,1,1.1,2.2,0.9,3.5C24.1,31,23.4,32.1,22.4,32.9z M67.2,96.3
		c-2.1,1.1-4.9,1.2-6-1.1c-0.8-1-1.1-2.3-0.8-3.5c0.2-0.9,0.7-1.6,1.5-2.1l0.6,0.9l0.8-0.6L62.6,89c0.6-0.5,1.4-0.7,2.2-0.7
		c1.4,0.1,2.6,0.9,3.4,2C69.5,92.3,69,94.9,67.2,96.3z"/>
	<path fill="#BABABA" d="M109.4,58.6c0.1-1.2-0.3-2.3-1.1-3.2c-0.6-1.2-1.7-2-3-2.3c-0.4-0.1-0.7-0.1-1.1-0.1
		c-1.2,0-2.3,0.4-3.2,1.1c-1.2,0.6-2.1,1.7-2.4,3c-0.3,1.5,0,3.1,1,4.3c1.4,2,4.7,2.7,7.3,1.3l-0.7,0.5l145.6,209.5l-5.3,29.6
		c-1-0.1-2,0.2-2.9,0.7c-1.2,0.9-2.1,2.2-2.4,3.7c-0.3,1.5,0.1,3,1.1,4.2c1.4,2,4.7,2.7,7.4,1.3c1.2-0.9,2.1-2.2,2.4-3.7
		c0.3-1.5-0.1-3-1.1-4.2l0,0c-0.9-0.9-2.1-1.6-3.4-1.8l5.4-29.8l-0.1-0.4L107.1,62.6l0,0C108.4,61.6,109.2,60.2,109.4,58.6z
		 M250.1,304.9c0.8,1,1.1,2.2,0.9,3.4c-0.3,1.2-0.9,2.3-1.9,3c-2.2,1.1-4.9,0.6-6-1.1c-0.8-1-1.1-2.2-0.9-3.5c0.3-1.2,1-2.3,2-3.1
		C245.7,302.7,248.4,303.2,250.1,304.9z M106.4,61.9c-0.8,0.4-1.6,0.6-2.5,0.6c-1.4,0.1-2.7-0.5-3.5-1.6c-0.8-1-1.1-2.3-0.9-3.5
		c0.3-1.1,1-1.9,2-2.4c1-0.8,2.3-1.1,3.5-0.8c1,0.2,1.9,0.9,2.4,1.9l0.1,0.1c0.6,0.6,1,1.5,0.9,2.5
		C108.3,59.9,107.6,61.1,106.4,61.9L106.4,61.9z"/>
	<path fill="#BABABA" d="M206.2,151.5l-0.1-0.1c-1.3-1.3-3.1-2-4.9-2c-1,0-2,0.2-2.9,0.7l-0.1,0.1c-2,2-2.6,5.3-1.3,7.3
		c1.7,2.5,5,3.2,7.5,1.6l97.3,141.2l-41.3,28.7l-0.1,0.7l30.2,43.5l0.3,0.2l34.9,6l25.6,37c-1.8,2-2.2,5.1-1,7
		c1.7,2.5,5.1,3.2,7.6,1.5c0.1-0.1,0.2-0.1,0.3-0.2c2-1.4,2.7-4.7,1.4-7.3v-0.1c-2-2.7-5.2-2.5-7.5-1.5l-25.7-37.1l-0.3-0.2l-34.9-6
		l-29.8-42.9l41.3-28.7l0.1-0.7l-97.6-141.6C207,157,207.4,153.9,206.2,151.5z M352.3,416.8c1.9-1,4.8-1.2,6.5,1.1
		c1,2.1,0.6,4.9-1.1,6c-2,1.5-4.8,1.2-6.3-0.8c-0.1-0.1-0.2-0.2-0.2-0.3C350.2,421.1,350.7,418.4,352.3,416.8z M204.3,158
		c-2,1.5-4.8,1.2-6.3-0.8c-0.1-0.1-0.2-0.2-0.2-0.3c-1-1.6-0.5-4.3,1.1-6c2.2-1,4.8-0.6,6.5,1.1C206.4,154.2,205.9,156.9,204.3,158z
		"/>
	<path fill="#BABABA" d="M547,193.1L547,193.1c-1.1-1.5-2.8-2.4-4.6-2.5c-1.2,0-2.4,0.4-3.3,1.1c-2,1.4-2.7,4.7-1.3,7.4
		c1.7,2.5,5,3.2,7.5,1.6l47.5,69.7l0.2-0.2c-1.7,2-2.1,5-0.8,6.8c1.7,2.5,5.1,3.2,7.6,1.5c0.1-0.1,0.2-0.1,0.3-0.2
		c2-1.4,2.7-4.7,1.4-7.3V271c-1.7-2.5-5.1-3.2-7.7-1.5c-0.1,0.1-0.2,0.1-0.3,0.2l-47.4-69.6C547.8,198.1,548.3,195,547,193.1z
		 M594,270.5c1.9-1.5,4.8-1.2,6.3,0.7c0.1,0.1,0.2,0.2,0.2,0.3c1,2.1,0.6,4.9-1.1,6c-2,1.5-4.8,1.2-6.3-0.8
		c-0.1-0.1-0.2-0.2-0.2-0.3C591.9,274.9,592.4,272.2,594,270.5L594,270.5z M545.1,199.7c-1.9,1.5-4.8,1.2-6.3-0.7
		c-0.1-0.1-0.1-0.2-0.2-0.3c-1.1-2.2-0.6-4.9,1.1-6c2-1.5,4.8-1.2,6.3,0.8c0.1,0.1,0.2,0.2,0.2,0.3
		C547.2,195.3,546.7,198,545.1,199.7L545.1,199.7z"/>
	<path fill="#BABABA" d="M343.2,53.6c1,1.4,2.5,2.3,4.2,2.5c1.2,0.1,2.3-0.3,3.2-1.1c1.2-0.6,2-1.7,2.3-3c0.3-1.5,0-3.1-1-4.3
		c-1.3-2.6-4.4-2.7-6.9-1.6l-25.1-35.9l-0.8,0.6l25.1,35.8C342,48.3,341.6,51.3,343.2,53.6z M345,47.1c2.1-1,4.9-1.2,6,1l0,0.1
		c0.8,1,1.1,2.3,0.9,3.5c-0.2,1-0.9,1.9-1.9,2.3l-0.1,0.1c-0.6,0.6-1.4,0.9-2.2,0.9h-0.3c-1.4-0.1-2.6-0.9-3.4-2
		C342.7,51.1,343.1,48.5,345,47.1L345,47.1z"/>
	<path fill="#BABABA" d="M482.9,148c0.1-1.2-0.3-2.3-1.1-3.2c-0.6-1.2-1.7-2-3-2.3c-0.4-0.1-0.7-0.1-1.1-0.1c-1.2,0-2.3,0.4-3.2,1.1
		c-1.2,0.6-2.1,1.7-2.4,3c-0.3,1.5,0,3.1,1,4.3c0.8,1.1,2.1,1.8,3.4,2c1.2,0.2,2.4,0.1,3.5-0.4l81.1,116.5c-1.8,2-2.2,5.1-1,7
		c1,1.4,2.5,2.3,4.2,2.4c1.2,0.1,2.3-0.3,3.2-1.1c1.2-0.6,2-1.7,2.3-3c0.3-1.5,0-3.1-1-4.3c-0.6-1.2-1.7-2.1-3-2.4
		c-1.4-0.3-2.8,0-3.9,0.7l-81-116.4C482,150.8,482.7,149.5,482.9,148z M562,269.3c1-0.8,2.3-1.1,3.6-0.9c1,0.2,1.9,0.9,2.4,1.9v0.1
		c0.8,1,1.1,2.3,0.9,3.5c-0.2,1-0.9,1.9-1.9,2.4l-0.1,0.1c-0.6,0.6-1.4,0.9-2.2,0.9h-0.3c-1.4-0.1-2.6-0.9-3.4-2
		C559.9,273.7,560.4,271,562,269.3z M479.8,151.3c-0.6,0.4-1.4,0.6-2.1,0.5c-0.4,0-0.7,0-1.1-0.1c-1.1-0.1-2.1-0.7-2.8-1.5
		c-0.8-1-1.1-2.3-0.9-3.5c0.3-1.1,1-1.9,2-2.4c1-0.8,2.3-1.1,3.5-0.8c1,0.2,1.9,0.9,2.4,1.9l0.1,0.1c0.6,0.6,1,1.5,0.9,2.5
		C481.8,149.3,481,150.5,479.8,151.3L479.8,151.3z"/>
	<path fill="#BABABA" d="M264.1,109.8c2-2,2.6-5.3,1.3-7.3l0,0c-1-1.4-2.5-2.3-4.2-2.5c-1-0.1-2,0.2-2.8,0.8l-63.2-90.8l-0.8,0.6
		l63.1,90.8c-1,0.6-1.6,1.6-1.9,2.7c-0.3,1.5,0,3.1,1,4.3c1.4,2.8,4.8,2.7,7.3,1.4L264.1,109.8z M257.5,107.9
		c-0.8-1-1.1-2.3-0.9-3.5c0.2-1,0.9-1.9,1.9-2.3l0.1-0.1c0.6-0.7,1.5-1,2.5-0.9c1.4,0.1,2.6,0.9,3.4,2c1,1.6,0.5,4.3-1.1,6
		C261.4,110.1,258.7,110.2,257.5,107.9z"/>
	<polygon fill="#BABABA" points="597.3,358.3 597.3,334.2 596.9,333.7 541.9,323.4 541.7,324.4 596.3,334.6 596.3,358.3 	"/>
	<path fill="#BABABA" d="M272.7,78.1l37.4,54.3c-2.3,2.2-1.9,5.3-0.8,7.5l0.1,0.1c2,2,5.3,2.6,7.3,1.3c1.2-0.9,2.1-2.2,2.4-3.7
		c0.2-1.5-0.1-3-1.1-4.2c-1.3-2-4.5-2.6-7-1.5l-37.4-54.3c1.7-1.5,2.2-4.6,1-7l0-0.1c-1.1-1.5-2.8-2.4-4.6-2.5
		c-1.2,0-2.4,0.4-3.3,1.1c-2,1.4-2.7,4.7-1.3,7.4c0.9,1.2,2.2,2.1,3.7,2.4C270.2,79.1,271.6,78.8,272.7,78.1z M311.1,133.9l0.8-0.6
		l-0.4-0.6c2.1-0.9,4.6-0.4,5.6,1.2l0,0c0.8,1,1.1,2.2,0.9,3.5c-0.3,1.2-1,2.3-2,3.1c-0.6,0.4-1.3,0.6-2,0.5c-1.5,0-2.9-0.6-4-1.6
		c-0.9-1.8-1.2-4.4,0.6-6.1L311.1,133.9z M266,76c-1.1-2.2-0.6-4.9,1.1-6c2-1.5,4.8-1.2,6.3,0.8c0.1,0.1,0.1,0.2,0.2,0.3
		c1.1,2.2,0.6,4.9-1.1,6c-1,0.8-2.2,1.1-3.5,0.9C267.9,77.7,266.8,77,266,76L266,76z"/>
	<path fill="#BABABA" d="M360.9,104.4l-0.1-0.1c-1.3-1.3-3.1-2-4.9-2c-1,0-2,0.2-2.9,0.7l-0.1,0.1c-2,2-2.6,5.3-1.3,7.3
		c1.7,2.5,5,3.2,7.5,1.6l23,33.6c-1,0.6-1.7,1.6-1.9,2.7c-0.3,1.5,0,3.1,1,4.3c0.6,1.2,1.7,2.1,3,2.4c1.5,0.3,3.1-0.1,4.3-1
		c1.2-0.6,2.1-1.7,2.4-3c0.3-1.5,0-3.1-1-4.4c-1-1.4-2.5-2.3-4.2-2.5c-1-0.1-2,0.2-2.8,0.8l-23-33.6
		C361.7,109.9,362.1,106.8,360.9,104.4z M383.1,146.1l0.1-0.1c0.6-0.7,1.5-1,2.5-0.9c1.4,0.2,2.6,0.9,3.4,2c0.8,1,1.1,2.3,0.9,3.5
		c-0.3,1.1-1,1.9-2,2.4c-0.8,0.6-1.7,1-2.7,1c-0.3,0-0.6,0-0.8-0.1c-1.1-0.3-1.9-1-2.4-2c-0.8-1-1.1-2.3-0.9-3.5
		C381.4,147.5,382.1,146.6,383.1,146.1z M359,110.9c-2,1.5-4.8,1.2-6.3-0.8c-0.1-0.1-0.2-0.2-0.2-0.3c-1-1.6-0.5-4.3,1.1-6
		c2.2-1,4.8-0.6,6.5,1.1C361.1,107.1,360.6,109.8,359,110.9L359,110.9z"/>
	<path fill="#BABABA" d="M327.6,103.9c0.1-1.2-0.3-2.3-1.1-3.2c-0.6-1.2-1.7-2-3-2.3c-0.4-0.1-0.7-0.1-1.1-0.1
		c-1.2,0-2.3,0.4-3.3,1.1c-2,1.4-2.7,4.7-1.3,7.4c1.6,2.2,4.5,2.8,6.9,1.6l79.5,113.8l0.8-0.6l-79.5-113.8
		C326.7,106.8,327.4,105.4,327.6,103.9z M324.6,107.2c-0.7,0.5-1.6,0.7-2.4,0.7c-1.4,0-2.7-0.6-3.5-1.7c-1.1-2.2-0.6-4.9,1.1-6
		c1-0.8,2.3-1.1,3.5-0.8c1,0.2,1.9,0.9,2.4,1.9l0.1,0.1c0.6,0.6,1,1.5,0.9,2.5C326.4,105.2,325.7,106.4,324.6,107.2L324.6,107.2z"/>
	<path fill="#BABABA" d="M288.1,11.3l37.5,54.3l0.3,0.2l36.3,6l35.4,6.6l113.3,163.9c-1.8,2.1-2.2,5-1,7.5l0.1,0.1
		c2.1,2,5.2,2.5,7.8,1.3l0.1-0.1c2-2.1,2.5-5.2,1.3-7.8l-0.1-0.1c-2-1.9-4.9-2.5-7.4-1.5l-113.4-164l-0.3-0.2l-35.7-6.7l-36-6
		L289,10.7L288.1,11.3z M511.8,242.8c2.2-1,4.8-0.6,6.5,1.1c1,2.2,0.6,4.8-1.1,6.5c-2.2,1-4.8,0.6-6.5-1.1
		C509.7,247.1,510.2,244.5,511.8,242.8z"/>
	<path fill="#BABABA" d="M534.7,57.1c1.4,0.3,2.8,0,4-0.7l22.6,32.8l0.8-0.6l-22.7-32.8c1-0.6,1.7-1.6,1.9-2.7c0.3-1.5,0-3.1-1-4.3
		c-0.6-1-1.5-1.7-2.7-2c-0.5-0.1-1-0.2-1.5-0.2c-2.9-0.1-5.4,2.1-5.6,5c-0.1,1.2,0.3,2.3,1.1,3.2C532.3,56,533.4,56.8,534.7,57.1z
		 M533.6,48.2c1.2-0.7,2.6-0.9,3.9-0.5c0.9,0.2,1.6,0.8,2.1,1.6l0,0.1c0.8,1,1.1,2.3,0.9,3.5c-0.3,1.1-1,1.9-2,2.4
		c-0.8,0.6-1.7,1-2.7,1c-1.4,0-2.6-0.8-3.2-2l-0.1-0.1c-0.7-0.6-1-1.5-0.9-2.5C531.7,50.3,532.4,49,533.6,48.2z"/>
	<path fill="#BABABA" d="M549.4,27.9l43.3,61.9l0.8-0.6l-43.3-61.8c1-0.9,1.7-2.1,2-3.4c0.3-1.5-0.1-3-1-4.2c-1-1.3-2.7-2.1-4.4-2
		c-1,0-2.1,0.2-3,0.7c-1.2,0.9-2.1,2.2-2.4,3.7c-0.3,1.5,0.1,3,1.1,4.2C543.8,28.3,546.9,28.9,549.4,27.9z M542.4,22.3
		c0.3-1.2,0.9-2.3,1.9-3c2.2-1.1,4.9-0.6,6,1l0,0c0.8,1,1.1,2.2,0.9,3.5c-0.3,1.2-0.9,2.3-1.9,3c-0.8,0.4-1.6,0.6-2.5,0.6
		c-1.4,0.1-2.7-0.5-3.5-1.6C542.6,24.8,542.3,23.5,542.4,22.3L542.4,22.3z"/>
	<path fill="#BABABA" d="M511.1,62l52,74.3l0.8-0.6l-51.9-74.1l8.7-50.4c0.2,0,0.4,0.1,0.6,0.1c1.2,0.1,2.3-0.3,3.2-1.1
		c1.2-0.6,2-1.7,2.3-3c0.3-1.5,0-3.1-1-4.3c-0.6-1.2-1.7-2.1-3-2.4c-0.4-0.1-0.7-0.1-1.1-0.1c-1.2,0-2.4,0.4-3.4,1.2
		c-2,2-2.6,5.3-1.3,7.3c0.7,0.9,1.6,1.6,2.6,2.1l-8.7,50.7L511.1,62z M518,8.3c-1.1-1.6-0.5-4.3,1.1-6c1-0.8,2.3-1.1,3.5-0.8
		c1,0.2,1.9,0.9,2.3,1.9v0.1c0.8,1,1.1,2.3,0.9,3.5c-0.2,1-0.9,1.9-1.9,2.3l-0.1,0.1c-0.6,0.6-1.4,0.9-2.2,0.9h-0.3
		c-0.2,0-0.3,0-0.5-0.1l0.2-1l-1-0.2l-0.2,0.8C519.2,9.5,518.5,9,518,8.3z"/>
	<path fill="#BABABA" d="M475,10.2L475,10.2l18.3,26.1c-1,0.9-1.7,2.1-2,3.4c-0.3,1.5,0.1,3,1.1,4.2c1.4,2,4.7,2.7,7.4,1.3
		c1.4-1,2.3-2.5,2.5-4.2c0.1-1.2-0.3-2.4-1.2-3.2c-1.8-2.3-4.7-3.2-6.9-2.1L475.7,9.5c1-0.9,1.6-2.2,1.7-3.5
		c0.1-1.2-0.3-2.4-1.2-3.2c-1-1.4-2.5-2.2-4.1-2.4h-0.3c-1.1,0-2.1,0.4-2.9,1.1c-1.2,0.6-2,1.7-2.3,3c-0.3,1.5,0,3.1,1,4.3
		C469,10.9,472.3,11.5,475,10.2z M494.3,36.8c1.5-1,4.3-0.6,6,1.7h0c0.6,0.6,1,1.5,0.9,2.5c-0.2,1.4-0.9,2.6-2,3.4
		c-0.8,0.4-1.6,0.6-2.5,0.6c-1.4,0.1-2.7-0.5-3.6-1.6c-0.8-1-1.1-2.2-0.9-3.5C492.6,38.6,493.3,37.5,494.3,36.8z M467.6,4.8
		c0.2-1,0.9-1.9,1.9-2.3l0.1-0.1c0.6-0.7,1.5-1,2.5-0.9c1.4,0.2,2.6,0.9,3.4,2h0c0.6,0.6,1,1.5,0.9,2.5c-0.1,1-0.5,2-1.3,2.7l-0.7-1
		l-0.8,0.6l0.8,1.1c-2.2,1.1-4.9,0.6-6-1.1C467.6,7.2,467.3,6,467.6,4.8L467.6,4.8z"/>
	<path fill="#BABABA" d="M433.8,49.9c0.1,0.2,0.2,0.4,0.4,0.6l-11.3,8.1c-1.6-2.2-4.7-2.9-7.1-1.5c-1.2,0.9-2.1,2.2-2.4,3.7
		c-0.3,1.5,0.1,3,1.1,4.2c1.4,2,4.7,2.7,7.4,1.3c1.4-1,2.3-2.5,2.4-4.2c0.1-1-0.2-2-0.8-2.8l11.4-8.1c0.5,0.5,1.2,0.8,1.9,1
		c1.5,0.3,3.1,0,4.3-1c1.2-0.6,2.1-1.7,2.4-3c0.3-1.5,0-3.1-1-4.4c-1-1.4-2.6-2.2-4.4-2.2c-1.1,0-2.1,0.3-3,0.9
		c-1.4,1-2.3,2.5-2.5,4.2C432.6,47.9,433,49.1,433.8,49.9z M421.3,65.5c-0.8,0.4-1.6,0.6-2.5,0.6c-1.4,0.1-2.7-0.5-3.5-1.6
		c-0.8-1-1.1-2.2-0.9-3.5c0.2-1.2,0.9-2.3,1.9-3c2-1,4.8-0.7,6,1.6l0.1,0.1c0.6,0.6,1,1.5,0.9,2.5C423.1,63.5,422.4,64.7,421.3,65.5
		z M435.7,43.4c2-1.3,4.6-0.8,6,1.1c0.8,1,1.1,2.3,0.9,3.5c-0.3,1.1-1,1.9-2,2.4c-1,0.8-2.3,1.1-3.5,0.8c-0.5-0.1-0.9-0.3-1.3-0.6
		l0,0l-0.6-0.8l-0.1,0.1c-0.1-0.2-0.2-0.3-0.3-0.5l-0.1-0.1c-0.7-0.6-1-1.5-0.9-2.5C433.8,45.5,434.5,44.2,435.7,43.4z"/>
	<path fill="#BABABA" d="M561.4,8.9c2,2,5.3,2.6,7.3,1.3l0,0l23.7,34.4c-0.7,0.7-1.2,1.7-1.3,2.7c-0.3,1.4,0.1,2.8,1.1,3.9
		c1,1.4,2.5,2.3,4.2,2.4c1.2,0.1,2.3-0.3,3.2-1.1c1.2-0.6,2-1.7,2.3-3c0.3-1.5,0-3.1-1-4.3c-0.6-1.2-1.7-2.1-3-2.4
		c-1.5-0.3-3.1,0-4.3,1l-0.4,0.2L569.4,9.5c2-1.9,2.3-5.1,0.5-7.3c-1-1.3-2.7-2.1-4.4-2c-1,0-2,0.2-2.9,0.7L562.6,1
		C560.6,3.1,560,6.2,561.4,8.9L561.4,8.9z M594,44.6c1-0.8,2.3-1.1,3.5-0.8c1,0.2,1.9,0.9,2.3,1.8l0.1,0.1c0.8,1,1.1,2.3,0.9,3.5
		c-0.2,1-0.9,1.9-1.9,2.4l-0.1,0.1c-0.6,0.6-1.4,0.9-2.2,0.9h-0.3c-1.4-0.2-2.7-0.9-3.5-2.1c-0.7-0.8-1.1-1.9-0.8-3
		C592.2,46.3,592.9,45.2,594,44.6z M563.2,1.7c2.2-1,4.8-0.5,5.9,1.1l0,0c1.4,1.7,1.3,4.3-0.3,5.8l-0.7-1l-0.8,0.6l0.8,1.1l0,0
		c-1.6,1-4.3,0.5-6-1.1C561.1,6,561.6,3.5,563.2,1.7z"/>
	<path fill="#BABABA" d="M390.4,52.2l0.6,0.8l32.9-22.7c1,1.2,2.4,1.9,3.9,2.1c1.2,0.1,2.3-0.3,3.2-1.1c1.2-0.6,2.1-1.7,2.4-3
		c0.3-1.5,0-3.1-1-4.3c-0.7-1.5-2.3-2.3-3.9-2.2c-1.2,0-2.3,0.3-3.4,0.8l-0.1,0.1c-1.9,1.8-2.5,4.5-1.5,6.8L390.4,52.2z M425.4,23.5
		c2.1-1,4.8-1.1,5.9,1v0.1c0.8,1,1.1,2.3,0.9,3.5c-0.2,1-0.9,1.9-1.9,2.3l-0.1,0.1c-0.6,0.6-1.4,0.9-2.2,0.9h-0.3
		c-1.4-0.1-2.6-0.9-3.4-2C423.3,27.9,423.8,25.1,425.4,23.5L425.4,23.5z"/>
	<path fill="#BABABA" d="M435.7,8.9c1.9,1.9,4.8,2.5,6.9,1.5l18.4,25.4l-6.6,34l-21,14.4l-0.1,0.7l26.3,37.7c-1,0.6-1.7,1.6-1.9,2.7
		c-0.3,1.5,0,3.1,1,4.3c1.4,2.8,4.8,2.7,7.4,1.4c1.4-1,2.3-2.5,2.5-4.2c0.1-1.2-0.3-2.4-1.2-3.2c-1-1.4-2.5-2.2-4.1-2.4
		c-1-0.1-2,0.2-2.8,0.8l-26-37.2L455,70.6l0.2-0.3l6.6-34.4l-0.1-0.4L443.3,9.9c1.2-1,1.9-2.4,2.1-3.9c0.1-1.2-0.3-2.3-1.1-3.2
		c-0.6-1.2-1.7-2-3-2.3c-0.4-0.1-0.7-0.1-1.1-0.1c-1.2,0-2.3,0.4-3.2,1.1c-1.3,0.6-2.1,1.9-2.2,3.3c-0.1,1.4,0.2,2.8,0.8,4.1
		L435.7,8.9z M460.4,123.2l0.1-0.1c0.6-0.6,1.5-1,2.5-0.9c1.4,0.2,2.6,0.9,3.4,2.1v0c0.7,0.6,1,1.5,0.9,2.5c-0.2,1.4-0.9,2.6-2,3.4
		c-0.9,0.5-1.9,0.7-2.9,0.7c-1.3,0.1-2.5-0.6-3.1-1.8c-0.8-1-1.1-2.3-0.9-3.5C458.7,124.5,459.4,123.6,460.4,123.2z M435.8,4.8
		c0.1-1.1,0.8-2,1.8-2.5c1-0.8,2.3-1.1,3.6-0.8c1,0.2,1.9,0.9,2.4,1.9l0.1,0.1c0.6,0.6,1,1.5,0.9,2.5c-0.1,1.4-0.9,2.6-2,3.4
		c-0.6,0.4-1.3,0.6-2,0.5c-1.5,0-2.9-0.6-4-1.6C435.9,7.2,435.6,6,435.8,4.8z"/>
	<path fill="#BABABA" d="M601.3,181c-1.9-1.9-4.8-2.5-6.9-1.5l-9.4-12.9l-0.3-0.2l-36.6-6l-54.6-79.8c1.2-1,1.9-2.4,2.1-3.9
		c0.1-1.2-0.3-2.3-1.1-3.2c-0.9-1.7-2.6-2.7-4.5-2.6c-1,0-1.9,0.2-2.8,0.7l-0.1,0.1c-2,2.1-2.5,5.2-1.3,7.8l0.1,0.1
		c1.8,1.8,4.5,2.4,6.8,1.5l54.7,80l0.3,0.2l36.7,6l9.3,12.7c-1.2,1-1.9,2.4-2.1,3.9c-0.1,1.2,0.3,2.3,1.1,3.2c0.6,1.2,1.7,2,3,2.3
		c1.5,0.3,3.1,0,4.3-1c1.3-0.6,2.1-1.8,2.3-3.2c0.1-1.4-0.1-2.8-0.8-4.1L601.3,181z M492.5,80c-0.6,0.4-1.3,0.6-2,0.5
		c-1.5,0-2.9-0.6-4-1.6c-1-2.2-0.6-4.8,1.1-6.5c2-1,4.8-0.6,5.9,1.6l0.1,0.1c0.6,0.6,1,1.5,0.9,2.5C494.4,77.9,493.7,79.2,492.5,80
		L492.5,80z M601.3,185c-0.1,1.1-0.8,2.1-1.8,2.5c-1,0.8-2.3,1.1-3.6,0.9c-1-0.2-1.9-0.9-2.3-1.9l-0.1-0.1c-0.6-0.6-1-1.5-0.9-2.5
		c0.1-1.4,0.9-2.6,2-3.4c1.6-1,4.3-0.5,6,1.1C601.1,182.7,601.4,183.9,601.3,185z"/>
	<path fill="#BABABA" d="M601.3,226.3c-1.8-1.9-4.5-2.5-6.9-1.5L563.9,181l-0.3-0.2l-35.5-6l-58.4-84.2l5.2-30c1.1,0,2.1-0.3,3-0.9
		c1.4-1,2.3-2.5,2.5-4.2c0.1-1.2-0.3-2.3-1.1-3.2c-0.6-1.2-1.7-2-3-2.3c-0.4-0.1-0.7-0.1-1.1-0.1c-1.2,0-2.3,0.4-3.2,1.1
		c-1.3,0.6-2.1,1.9-2.2,3.3c-0.1,1.4,0.2,2.9,0.9,4.1c0.8,1.1,2,1.8,3.3,2.1l-5.2,30.1l0.1,0.4l58.6,84.6l0.3,0.2l35.5,6l30.4,43.5
		c-1,0.9-1.7,2.1-2,3.4c-0.3,1.5,0.1,3,1,4.2c1.4,2,4.7,2.7,7.4,1.3c2.8-2.1,2.5-5.6,1.3-7.9L601.3,226.3z M471.5,57.9
		c-0.6-1.1-0.8-2.3-0.7-3.5c0.1-1.1,0.8-2.1,1.8-2.5c1-0.8,2.3-1.1,3.5-0.9c1,0.3,1.9,0.9,2.4,1.9l0.1,0.1c0.6,0.6,1,1.5,0.9,2.5
		c-0.1,1.4-0.9,2.6-2,3.4c-0.7,0.4-1.5,0.7-2.3,0.7v-0.2l-1-0.2v0.3C473.1,59.3,472.2,58.7,471.5,57.9z M599.6,233.4
		c-2.2,1.1-4.9,0.6-6-1.1c-0.8-1-1.1-2.2-0.9-3.5c0.3-1.2,1-2.3,2-3.1c1.6-1,4.3-0.5,6,1.1C601.5,228.9,601.8,231.8,599.6,233.4z"/>
	<path fill="#BABABA" d="M596.3,100.1c1.2,0.1,2.3-0.3,3.2-1.1c1.4-1,2.3-2.5,2.5-4.2c0.1-1.2-0.3-2.4-1.1-3.2c-0.6-1.2-1.7-2-3-2.3
		c-0.4-0.1-0.7-0.1-1.1-0.1c-1.2,0-2.3,0.4-3.2,1.1c-1.2,0.6-2.1,1.7-2.4,3c-0.3,1.5,0,3.1,1,4.4C593.1,99,594.6,99.9,596.3,100.1z
		 M592.1,93.5c0.3-1.1,1-1.9,2-2.4c1-0.8,2.3-1.1,3.6-0.9c1,0.2,1.9,0.9,2.3,1.9l0.1,0.1c0.6,0.6,1,1.5,0.9,2.5
		c-0.2,1.4-0.9,2.7-2.1,3.5c-0.6,0.6-1.4,0.9-2.2,0.9h-0.3c-1.4-0.2-2.6-0.9-3.4-2.1C592.2,96.1,591.8,94.8,592.1,93.5L592.1,93.5z"
		/>
	<path fill="#BABABA" d="M561.9,144.2c2.1,2.8,5.6,2.5,7.9,1.4l0.1-0.1c2-2,2.6-5.3,1.3-7.3l0,0c-1.1-1.5-2.8-2.4-4.6-2.5
		c-1.2,0-2.3,0.4-3.3,1.1C561.2,138.2,560.6,141.5,561.9,144.2z M563.8,137.6c2-1.5,4.8-1.2,6.3,0.8c0.1,0.1,0.2,0.2,0.2,0.3
		c1,1.6,0.5,4.3-1.1,6c-2,1-4.8,1.2-6.5-1C561.7,141.5,562.2,138.7,563.8,137.6z"/>
	<path fill="#BABABA" d="M570.5,94.2c0.1-1.2-0.3-2.3-1.1-3.2c-0.8-1.5-2.4-2.4-4.1-2.4c-1.2,0-2.3,0.4-3.3,1.1
		c-2,1.4-2.7,4.7-1.3,7.4c1,1.4,2.5,2.3,4.2,2.5c1.2,0.1,2.3-0.3,3.2-1.1C569.4,97.4,570.3,95.9,570.5,94.2z M565.2,98.5h-0.3
		c-1.4-0.2-2.6-0.9-3.4-2c-1.1-2.2-0.6-4.9,1.1-6c1-0.8,2.3-1.1,3.5-0.8c1,0.2,1.9,0.9,2.3,1.9l0.1,0.1c0.7,0.6,1,1.5,0.9,2.5
		c-0.2,1.4-0.9,2.7-2.1,3.5C566.8,98.2,566,98.5,565.2,98.5z"/>
	<path fill="#BABABA" d="M589.9,116.4L589.9,116.4c-1-1.4-2.5-2.3-4.2-2.5h-0.3c-1.1,0-2.1,0.4-2.9,1.2c-1.2,0.6-2,1.7-2.3,3
		c-0.3,1.5,0,3.1,1,4.3c0.6,1.2,1.7,2.1,3,2.4c1.4,0.3,2.8,0,4-0.7l4.8,7c-1,0.6-1.7,1.6-1.9,2.7c-0.3,1.5,0,3.1,1,4.4
		c1.7,2.3,4.9,2.9,7.3,1.3c1.4-1,2.3-2.5,2.5-4.2c0.1-1.2-0.3-2.3-1.1-3.2c-0.6-1.2-1.7-2-3-2.3c-1.4-0.3-2.8-0.1-4,0.7l-4.9-7.1
		C590.7,121.6,591.1,118.8,589.9,116.4L589.9,116.4z M594,131.6c1-0.8,2.3-1.1,3.5-0.9c1,0.2,1.9,0.9,2.3,1.9l0.1,0.1
		c0.6,0.6,1,1.5,0.9,2.5c-0.1,1.4-0.9,2.6-2,3.4c-2,1.3-4.6,0.8-6-1.1c-0.8-1-1.1-2.3-0.9-3.5C592.3,132.9,593.1,132,594,131.6z
		 M589.5,120.2c-0.1,1.1-0.7,2.1-1.5,2.8c-1,0.8-2.3,1.1-3.5,0.9c-1.1-0.3-1.9-1-2.4-2c-0.8-1-1.1-2.3-0.9-3.5
		c0.2-1,0.9-1.9,1.9-2.3l0.1-0.1c0.6-0.7,1.5-1,2.5-0.9c1.4,0.1,2.6,0.9,3.4,2C589.7,117.9,589.8,119.1,589.5,120.2z"/>
	<path fill="#BABABA" d="M319.1,10.2c2.3-1.7,2.9-4.9,1.3-7.3l0,0c-1-1.4-2.5-2.3-4.2-2.5h-0.3c-1.1,0-2.1,0.4-2.9,1.1
		c-1.2,0.6-2,1.7-2.3,3c-0.3,1.5,0,3.1,1,4.3C313.1,11.6,316.5,11.5,319.1,10.2z M311.7,4.7c0.2-1,0.9-1.9,1.9-2.3l0.1-0.1
		c0.6-0.7,1.5-1,2.5-0.9c1.4,0.1,2.6,0.9,3.4,2c1.3,1.9,0.8,4.5-1,5.9c-2.1,1-4.9,1.2-6-1.1C311.8,7.2,311.4,6,311.7,4.7z"/>
	<path fill="#BABABA" d="M97.7,10.7c0.9,0.1,1.8-0.1,2.5-0.6l51,73.2c-1,0.6-1.6,1.6-1.9,2.7c-0.3,1.5,0,3.1,1,4.3
		c0.6,1.2,1.7,2.1,3,2.4c1.5,0.3,3.1,0,4.3-1c1.2-0.6,2.1-1.7,2.4-3c0.3-1.5,0-3.1-1-4.3c-0.6-1.2-1.7-2.1-3-2.4
		c-1.4-0.3-2.8,0-4,0.7L101,9.5c1.2-0.6,2-1.6,2.3-2.9c0.3-1.5,0-3.1-1-4.4c-1-1.3-2.7-2.1-4.4-2c-1,0-2,0.2-2.9,0.7L94.9,1
		c-2,2-2.6,5.3-1.3,7.3C94.6,9.6,96.1,10.5,97.7,10.7z M152.3,83.9c1-0.8,2.3-1.1,3.5-0.9c1,0.3,1.9,0.9,2.4,1.9V85
		c0.8,1,1.1,2.3,0.9,3.5c-0.3,1.1-1,1.9-2,2.4c-0.8,0.6-1.7,1-2.7,1c-0.3,0-0.6,0-0.9-0.1c-1.1-0.3-1.9-1-2.4-2
		c-0.8-1-1.1-2.3-0.9-3.5C150.5,85.2,151.3,84.3,152.3,83.9z M95.5,1.7c2.1-1,4.9-0.5,5.9,1.1l0,0c0.8,1,1.1,2.3,0.9,3.5
		c-0.2,1-0.9,1.9-1.9,2.3l-0.1,0.1c-0.6,0.6-1.4,0.9-2.2,0.9h-0.3c-1.4-0.1-2.6-0.9-3.4-2C93.3,6.1,93.8,3.4,95.5,1.7z"/>
	<path fill="#BABABA" d="M139,28.2c-0.3,1.5,0.1,3,1.1,4.2c1.4,2,4.7,2.7,7.4,1.3c1.2-0.9,2.1-2.2,2.4-3.7c0.3-1.5-0.1-3-1.1-4.2
		l0-0.1c-1.9-1.9-4.8-2.5-6.9-1.5l-8.5-11.3l5-3.3l-0.2-0.3c2.1,1.7,4.9,2,7.4,0.9l0.1-0.1c2-2,2.6-5.3,1.3-7.3l0,0
		c-1.1-1.5-2.8-2.4-4.6-2.5c-1.2,0-2.4,0.4-3.3,1.2c-2,1.4-2.7,4.7-1.4,7.3v0l-5.3,3.5l-0.1,0.7l8.8,11.7
		C140,25.7,139.3,26.9,139,28.2z M139.6,2.3c2-1.5,4.8-1.2,6.3,0.8c0.1,0.1,0.2,0.2,0.2,0.3c1,1.6,0.5,4.3-1.1,5.9
		c-2.2,1-4.8,0.6-6.5-1.1C137.5,6.1,137.9,3.4,139.6,2.3z M142,25.3c1.6-1,4.3-0.5,6,1.1c0.8,1,1.1,2.2,0.9,3.4
		c-0.3,1.2-0.9,2.3-1.9,3c-2.2,1.1-4.9,0.6-6-1.1c-0.8-1-1.1-2.2-0.9-3.5C140.3,27.1,141,26,142,25.3L142,25.3z"/>
	<path fill="#BABABA" d="M163.7,56.1c2-1.4,2.7-4.7,1.4-7.3v-0.1c-0.8-1.1-2-2-3.4-2.3L168,11c1.3,0,2.5-0.3,3.6-0.9
		c1.4-1,2.3-2.5,2.5-4.2c0.1-1.2-0.3-2.4-1.2-3.2c-1-1.4-2.5-2.2-4.1-2.4h-0.3c-1.1,0-2.1,0.4-2.9,1.1c-1.2,0.6-2,1.7-2.3,3
		c-0.3,1.5,0,3.1,1,4.3c0.5,1.1,1.5,1.9,2.8,2.2l-6.3,35.4c-1.3,0-2.6,0.4-3.6,1.2c-2,2-2.6,5.3-1.3,7.3c1.7,2.5,5.1,3.2,7.7,1.5
		C163.6,56.2,163.7,56.1,163.7,56.1z M165.1,8.3c-0.8-1-1.1-2.3-0.9-3.5c0.2-1,0.9-1.9,1.9-2.3l0.1-0.1c0.6-0.6,1.5-1,2.5-0.9
		c1.4,0.2,2.6,0.9,3.4,2h0c0.6,0.6,1,1.5,0.9,2.5c-0.2,1.4-0.9,2.6-2,3.4c-0.9,0.5-1.9,0.7-2.9,0.7h0V9.8l-1-0.2l0,0.3
		C166.2,9.7,165.5,9.1,165.1,8.3L165.1,8.3z M157.7,48.3c1.9-1.6,4.8-1.2,6.3,0.7c0.1,0.1,0.2,0.2,0.3,0.4c1,2.2,0.6,4.9-1.1,6
		c-2,1.5-4.8,1.2-6.3-0.8c-0.1-0.1-0.2-0.2-0.2-0.3C155.6,52.6,156.1,49.9,157.7,48.3L157.7,48.3z"/>
	<path fill="#BABABA" d="M89.8,43.2l-12,69.8l0.1,0.4l59.1,83.8l-5.4,36.6l0.1,0.4l10.6,15.3c-1,0.6-1.7,1.6-1.9,2.7
		c-0.3,1.5,0,3.1,1,4.3c0.6,1.2,1.7,2.1,3,2.4c1.5,0.3,3.1,0,4.4-1c2-1.4,2.7-4.7,1.4-7.3l0-0.1c-1-1.4-2.5-2.3-4.2-2.5
		c-1-0.1-2,0.2-2.8,0.8l-10.5-15.1l5.4-36.7l-0.1-0.4L78.8,113l12-69.6c1.3,0,2.5-0.4,3.5-1.2c2-1.4,2.7-4.7,1.4-7.3l-0.1-0.1
		c-1.3-1.3-3.1-2-4.9-2c-1,0-2,0.2-2.9,0.7l-0.1,0.1c-2,2-2.6,5.3-1.3,7.3C87.2,42,88.4,42.9,89.8,43.2z M143.1,250l0.1-0.1
		c0.6-0.7,1.5-1,2.5-0.9c1.4,0.1,2.6,0.9,3.4,2c1.1,2.1,0.6,4.9-1.1,6c-1,0.8-2.3,1.1-3.5,0.9c-1.1-0.3-1.9-1-2.4-2
		c-0.8-1-1.1-2.3-0.9-3.5C141.5,251.3,142.2,250.5,143.1,250z M88.2,34.3c2.2-1,4.8-0.6,6.5,1.1c1,2.1,0.5,4.8-1.1,5.9
		c-2,1.5-4.8,1.2-6.3-0.8c-0.1-0.1-0.2-0.2-0.2-0.3C86.1,38.7,86.6,36,88.2,34.3z"/>
	<path fill="#BABABA" d="M168.6,107.8c-2,1.4-2.7,4.7-1.3,7.4c1.7,2.5,5,3.2,7.5,1.6l8.5,12.4c-1,0.6-1.7,1.6-1.9,2.7
		c-0.3,1.5,0,3.1,1,4.3c0.6,1.3,1.8,2.1,3.3,2.2c1.4,0.1,2.8-0.2,4.1-0.8l0.1-0.1c2-2,2.6-5.3,1.3-7.3l0,0c-1-1.4-2.5-2.3-4.2-2.5
		c-1-0.1-2,0.2-2.8,0.8l-8.5-12.4c0.8-0.8,1.4-1.9,1.5-3.1c0.3-1.3,0.1-2.7-0.6-3.9l0,0c-1.1-1.5-2.8-2.4-4.6-2.5
		C170.8,106.7,169.6,107.1,168.6,107.8z M184.2,129.8l0.1-0.1c0.6-0.7,1.5-1,2.5-0.9c1.4,0.1,2.6,0.9,3.4,2c1,1.6,0.5,4.3-1.1,6
		c-1.1,0.5-2.2,0.8-3.4,0.7c-1.1-0.1-2.1-0.8-2.5-1.8c-0.8-1-1.1-2.3-0.9-3.5C182.6,131.1,183.3,130.3,184.2,129.8L184.2,129.8z
		 M175.7,109.7c0.5,1,0.7,2.1,0.5,3.2c-0.1,1.1-0.7,2.1-1.5,2.8c-1.9,1.5-4.8,1.2-6.3-0.7c-0.1-0.1-0.1-0.2-0.2-0.3
		c-1.1-2.2-0.6-4.9,1.1-6c2-1.5,4.8-1.2,6.3,0.8C175.6,109.5,175.7,109.6,175.7,109.7L175.7,109.7z"/>
	<path fill="#BABABA" d="M350.5,10.2l0.3-0.2l19,27.3l0.7,0.1l40.6-28.3c2.1,1.9,5.1,2.3,7.6,1.1l0.1-0.1c2-2,2.6-5.3,1.3-7.3l0,0
		c-1.1-1.5-2.8-2.4-4.6-2.5c-1.2,0-2.4,0.4-3.3,1.1c-1.9,1.3-2.6,4.3-1.6,6.7l-40.3,28l-18.8-27c0.8-0.9,1.4-2,1.5-3.3
		c0.1-1.2-0.3-2.3-1.1-3.2c-0.6-1.2-1.7-2-3-2.3c-1.5-0.3-3.1,0-4.3,1c-1.3,0.6-2.1,1.9-2.2,3.3c-0.1,1.4,0.2,2.9,0.9,4.1
		C344.9,11.2,348.1,11.7,350.5,10.2z M412.7,2.3c2-1.5,4.8-1.2,6.3,0.8c0.1,0.1,0.2,0.2,0.2,0.3c1,1.6,0.5,4.3-1.1,5.9
		c-2.1,1-4.5,0.6-6.3-0.8l0.2-0.2l-0.6-0.8l-0.2,0.1C410.7,5.6,411.3,3.3,412.7,2.3z M343.3,4.8c0.1-1.1,0.8-2,1.8-2.5
		c1-0.8,2.3-1.1,3.5-0.8c1,0.2,1.9,0.9,2.4,1.9l0.1,0.1c0.6,0.6,1,1.5,0.9,2.5c-0.1,1.4-0.9,2.6-2,3.4c-0.7,0.5-1.6,0.7-2.4,0.7
		c-1.4,0-2.7-0.6-3.5-1.7C343.4,7.3,343.2,6,343.3,4.8z"/>
	<path fill="#BABABA" d="M69.3,10.1l5.3,7.4c-2.4,1.8-2.8,5.3-1,7.6c1.4,2,4.7,2.7,7.4,1.3c1.2-0.9,2.1-2.2,2.4-3.7
		c0.3-1.5-0.1-3-1.1-4.2C81,16.6,78,16,75.4,17l-5.3-7.4c2-1.4,2.6-4.7,1.3-7.3V2.2C70.5,0.8,68.8,0,67,0c-1.2,0-2.4,0.3-3.4,0.8
		l-0.1,0.1c-2,2-2.6,5.3-1.3,7.3C63.8,10.6,66.8,11.3,69.3,10.1z M75.5,18.1c2.2-1.1,4.9-0.6,6,1l0,0c0.8,1,1.1,2.2,0.9,3.5
		c-0.2,1.2-0.9,2.3-1.9,3c-0.8,0.4-1.6,0.6-2.5,0.6c-1.4,0.1-2.7-0.5-3.5-1.6c-1.5-2-1.1-4.8,0.8-6.3C75.3,18.2,75.4,18.1,75.5,18.1
		L75.5,18.1z M64.1,1.7c2-1,4.8-1.2,6.5,1.1c1,2.2,0.6,4.9-1.1,6c-2,1.5-4.8,1.2-6.3-0.8c-0.1-0.1-0.2-0.2-0.2-0.3
		C61.9,6.1,62.4,3.4,64.1,1.7L64.1,1.7z"/>
	<path fill="#BABABA" d="M1.1,8.8c0.6,1.2,1.7,2.1,3,2.4c1.5,0.3,3.1,0,4.3-1c1.3-0.6,2.1-1.8,2.2-3.3V6.6h25.7l29.8,42.3
		c-2.4,1.8-2.8,5.3-1,7.6c1.4,2,4.7,2.7,7.4,1.3c1.2-0.9,2.1-2.2,2.4-3.7c0.3-1.5-0.1-3-1.1-4.2v0c-1.8-1.8-4.5-2.4-6.9-1.5
		l-30-42.5l-0.4-0.2H10.6c-0.1-1-0.4-1.9-0.8-2.7V2.8c-1-1.4-2.5-2.3-4.2-2.5H5.3c-1.1,0-2.1,0.4-2.9,1.1c-1.2,0.6-2,1.7-2.3,3
		C-0.2,6,0.1,7.6,1.1,8.8z M67.1,49.4c1.6-1,4.3-0.5,6,1.1c0.8,1,1.1,2.2,0.9,3.4c-0.2,1.2-0.9,2.3-1.9,3c-2.2,1.1-4.9,0.6-6-1.1
		c-1.5-2-1.2-4.8,0.8-6.3C66.9,49.6,67,49.5,67.1,49.4L67.1,49.4z M1.1,4.7c0.2-1,0.9-1.9,1.9-2.3l0.1-0.1c0.6-0.7,1.5-1,2.5-0.9
		c1.4,0.2,2.6,0.9,3.4,2c0.6,1.1,0.8,2.3,0.7,3.5C9.5,7.9,8.9,8.9,7.9,9.4c-1,0.8-2.3,1.1-3.5,0.8c-1.1-0.3-1.9-1-2.4-2
		C1.1,7.2,0.8,5.9,1.1,4.7L1.1,4.7z"/>
	<path fill="#BABABA" d="M257,10.4l48.1,69.7l0.3,0.2l65.9,11.5l0.2-1l-65.7-11.4l-48-69.6c1.8-2,2.2-5.1,1-7l0,0
		c-1.1-1.5-2.8-2.4-4.6-2.5c-1.2,0-2.4,0.4-3.3,1.2c-2,1.4-2.7,4.7-1.3,7.4C251.5,11.5,254.7,11.4,257,10.4z M251.4,2.3
		c2-1.5,4.8-1.2,6.3,0.8c0.1,0.1,0.2,0.2,0.2,0.3c1,1.6,0.5,4.3-1.1,5.9c-2,1-4.8,1.2-6.5-1C249.3,6.2,249.7,3.4,251.4,2.3
		L251.4,2.3z"/>
	<path fill="#BABABA" d="M288.8,10.8l0.1-0.1c2-2.1,2.5-5.2,1.3-7.8l-0.1-0.1c-1.2-1.3-2.9-2-4.7-2c-0.9,0-1.8,0.2-2.6,0.7
		c-1.2,0.9-2.1,2.2-2.4,3.7c-0.3,1.5,0.1,3,1.1,4.2C282.9,11.5,286.2,12.1,288.8,10.8z M281.4,5.4c0.2-1.2,1-2.3,2-3.1
		c1.6-1,4.3-0.5,6,1.1c1,2.2,0.6,4.8-1.1,6.5c-2.1,1-4.9,0.5-6-1.1C281.6,7.9,281.2,6.6,281.4,5.4z"/>
	<path fill="#BABABA" d="M601.4,361.1c-1.1-1.6-3-2.6-4.9-2.6c-0.9,0-1.7,0.2-2.4,0.7c-2.5,1.8-3.4,5.1-2,7.9l0.1,0.1
		c2.1,2,5.2,2.5,7.8,1.3l0.1-0.1C602.1,366.4,602.7,363.1,601.4,361.1L601.4,361.1z M599.5,367.6c-2.2,1-4.8,0.6-6.5-1.1
		c-1.1-2.3-0.4-5.1,1.7-6.5c1.5-1,4.3-0.6,6,1.7C601.6,363.2,601.1,365.9,599.5,367.6z"/>
	<path fill="#BABABA" d="M194,10.2c1.4-1,2.3-2.5,2.5-4.2c0.1-1.2-0.3-2.3-1.1-3.2c-0.6-1.2-1.7-2-3-2.3c-0.4-0.1-0.7-0.1-1.1-0.1
		c-1.2,0-2.3,0.4-3.3,1.1c-2,1.4-2.7,4.7-1.3,7.4C188.3,11.2,191.6,11.8,194,10.2z M188.5,2.3c1-0.8,2.3-1.1,3.5-0.8
		c1,0.2,1.9,0.9,2.4,1.9l0.1,0.1c0.6,0.6,1,1.5,0.9,2.5c-0.1,1.4-0.9,2.6-2,3.4c-0.7,0.5-1.6,0.7-2.4,0.7c-1.4,0-2.7-0.6-3.5-1.7
		C186.4,6.2,186.9,3.4,188.5,2.3z"/>
	<path fill="#BABABA" d="M407.9,221.9c-1,0-2.1,0.2-3,0.7c-1.4,1-2.3,2.5-2.5,4.2c-0.1,1.2,0.3,2.3,1.1,3.2c0.6,1.2,1.7,2.1,3,2.4
		c1.5,0.3,3.1,0,4.3-1c1.2-0.6,2.1-1.7,2.4-3c0.3-1.5,0-3.1-1-4.4C411.2,222.6,409.6,221.8,407.9,221.9z M412.3,228.1
		c-0.3,1.1-1,1.9-2,2.4c-0.8,0.6-1.7,0.9-2.7,1c-0.3,0-0.6,0-0.8-0.1c-1-0.2-1.9-0.9-2.4-1.9l-0.1-0.1c-0.7-0.6-1-1.5-0.9-2.5
		c0.2-1.4,0.9-2.6,2-3.4c2.2-1.1,4.9-0.6,6,1l0,0C412.2,225.5,412.5,226.8,412.3,228.1L412.3,228.1z"/>
	<path fill="#BABABA" d="M177.6,75.9l145.6,210.2l0.7,0.1l37.7-26.4c2,1.8,5.1,2.2,7,1c1.4-1,2.3-2.5,2.5-4.2
		c0.1-1.2-0.3-2.3-1.1-3.2c-0.6-1.2-1.7-2-3-2.3c-1.5-0.3-3.1,0-4.4,1c-1.9,1.3-2.6,4.4-1.6,6.9l-37.3,26.1L178.5,75.5l4.7-30.3
		c1.3,0,2.6-0.4,3.6-1.2c2-2,2.6-5.3,1.3-7.3l0,0c-1-1.4-2.5-2.3-4.2-2.5h-0.3c-1.1,0-2.1,0.4-2.9,1.1c-1.2,0.6-2,1.7-2.3,3
		c-0.3,1.5,0,3.1,1,4.3c0.6,1.2,1.6,2,2.8,2.4l-4.7,30.6L177.6,75.9z M363.2,253c1-0.8,2.3-1.1,3.5-0.9c1,0.2,1.9,0.9,2.4,1.9
		l0.1,0.1c0.6,0.6,1,1.5,0.9,2.5c-0.1,1.4-0.9,2.6-2,3.4c-0.6,0.4-1.3,0.6-2,0.5c-1.5,0-2.9-0.6-3.9-1.6
		C361.1,256.8,361.5,254.1,363.2,253z M180.2,42.1c-0.8-1-1.1-2.3-0.9-3.5c0.2-1,0.9-1.9,1.9-2.3l0.1-0.1c0.6-0.7,1.5-1,2.5-0.9
		c1.4,0.1,2.6,0.9,3.4,2c1,1.6,0.5,4.3-1.1,6c-1,0.8-2.3,1.1-3.5,0.8C181.5,43.8,180.6,43.1,180.2,42.1L180.2,42.1z"/>
	<path fill="#BABABA" d="M222.2,11.2c1.1,0.2,2.2,0.1,3.2-0.3l26.2,37.5c-1.8,2-2.2,5.1-1,7c1,1.4,2.5,2.3,4.2,2.5
		c1.2,0.1,2.3-0.3,3.2-1.1c1.2-0.6,2-1.7,2.3-3c0.3-1.5,0-3.1-1-4.3c-0.6-1.2-1.7-2.1-3-2.4c-1.4-0.3-2.8,0-4,0.7l-26.1-37.3
		l0.3-0.2c2-1.4,2.7-4.7,1.4-7.3V2.8c-1-1.4-2.6-2.2-4.4-2.2c-1.1,0-2.1,0.3-3,0.9c-1.4,1-2.3,2.5-2.5,4.2c-0.1,1.2,0.3,2.3,1.1,3.2
		C219.9,10,220.9,10.9,222.2,11.2z M252.6,48.8c1-0.8,2.3-1.1,3.6-0.9c1,0.2,1.9,0.9,2.4,1.9l0,0.1c0.8,1,1.1,2.3,0.9,3.5
		c-0.3,1-0.9,1.9-1.9,2.3l-0.1,0.1c-0.6,0.6-1.4,0.9-2.2,0.9h-0.3c-1.4-0.1-2.6-0.9-3.4-2C250.4,53.2,251,50.5,252.6,48.8
		L252.6,48.8z M221.2,2.3c1.9-1.3,4.5-0.8,5.9,1c1,2.2,0.6,4.9-1.1,6c-1,0.8-2.3,1.1-3.5,0.8c-1-0.2-1.9-0.9-2.4-1.9L220,8.2
		c-0.6-0.6-1-1.5-0.9-2.5C219.3,4.3,220,3.1,221.2,2.3L221.2,2.3z"/>
	<path fill="#BABABA" d="M386.8,242.2l50.7,27.1l54.7,79.9c-2,1.8-2.4,4.8-0.9,7c1,1.4,2.5,2.3,4.2,2.5c1.2,0.1,2.3-0.3,3.2-1.1
		c1.2-0.6,2-1.7,2.3-3c0.3-1.5,0-3.1-1-4.3c-1.3-2.6-4.4-2.7-6.9-1.6l-54.8-80l-0.2-0.2l-50.7-27.1l-55.8-79.7c1-0.7,1.7-1.7,2-2.9
		c0.3-1.4,0.2-2.8-0.5-4.1v-0.1c-1-1.4-2.7-2.2-4.4-2.2c-1.2,0-2.4,0.3-3.4,0.8l-0.1,0.1c-2,2-2.6,5.3-1.3,7.3
		c1,1.4,2.5,2.3,4.2,2.5c1,0.1,2-0.2,2.8-0.8l55.9,79.9L386.8,242.2z M493,349.7c2.1-1,4.9-1.2,6,1v0.1c0.8,1,1.1,2.3,0.9,3.5
		c-0.2,1-0.9,1.9-1.9,2.4l-0.1,0.1c-0.6,0.6-1.4,0.9-2.2,0.9h-0.3c-1.4-0.2-2.6-0.9-3.4-2C490.7,353.7,491.2,351.1,493,349.7z
		 M330.6,161l-0.1,0.1c-0.6,0.7-1.5,1-2.5,0.9c-1.4-0.1-2.6-0.9-3.4-2c-1-1.6-0.5-4.3,1.1-6c2-1,4.8-1.2,6.5,1.1
		c0.5,1.1,0.7,2.2,0.4,3.4C332.4,159.5,331.7,160.4,330.6,161z"/>
	<path fill="#BABABA" d="M380,97.2l0.1-0.1c2-2,2.6-5.3,1.3-7.3l0,0c-1-1.4-2.5-2.3-4.2-2.5H377c-1.1,0-2.1,0.4-2.9,1.2
		c-1.2,0.6-2.1,1.7-2.3,3c-0.3,1.5,0,3.1,1,4.3C374.1,98.6,377.5,98.5,380,97.2z M372.7,91.7c0.2-1,0.9-1.9,1.9-2.3l0.1-0.1
		c0.6-0.7,1.5-1,2.4-0.9c1.4,0.1,2.6,0.9,3.4,2c1,1.6,0.5,4.3-1.1,6c-2.1,1-4.8,1.1-5.9-1.1C372.8,94.3,372.5,93,372.7,91.7z"/>
	<path fill="#BABABA" d="M601.4,312.8L601.4,312.8c-1-1.5-2.5-2.4-4.2-2.5h-0.3c-1.1,0-2.1,0.4-2.9,1.1c-1.3,0.6-2.2,1.8-2.5,3.2
		c-0.3,1.4-0.1,2.9,0.5,4.2c1.7,2.5,5.1,3.2,7.6,1.5c0.1-0.1,0.2-0.1,0.3-0.2C602.1,318.7,602.7,315.4,601.4,312.8z M599.5,319.3
		c-1.9,1.5-4.8,1.2-6.3-0.7c-0.1-0.1-0.1-0.2-0.2-0.3c-0.5-1.1-0.7-2.3-0.4-3.4c0.3-1.1,1-2,2-2.5l0.1-0.1c0.6-0.7,1.5-1,2.5-0.9
		c1.4,0.2,2.6,0.9,3.4,2C601.6,315.5,601.1,318.2,599.5,319.3z"/>
	<path fill="#BABABA" d="M537.1,511.5c1.7,2.5,5.1,3.2,7.6,1.5c0.1-0.1,0.2-0.1,0.3-0.2c2-1.4,2.7-4.7,1.4-7.3v-0.1
		c-1.7-2.5-5-3.2-7.5-1.6l-42-59.4l-0.3-0.2l-29.8-6c0-0.8-0.3-1.6-0.7-2.3l0,0c-1-1.4-2.5-2.3-4.2-2.5h-0.3c-1.1,0-2.1,0.4-2.9,1.1
		c-1.2,0.6-2,1.7-2.3,3c-0.3,1.5,0,3.1,1,4.3c1.4,2.8,4.8,2.7,7.3,1.4l0.1-0.1c1.1-1.1,1.8-2.5,1.9-4l29.4,5.9l41.8,59.3
		C536.3,506,535.9,509,537.1,511.5z M464.1,442.5c-2.1,1-4.8,1.1-6-1.1c-0.8-1-1.1-2.3-0.9-3.5c0.2-1,0.9-1.9,1.9-2.4l0.1-0.1
		c0.6-0.6,1.5-1,2.5-0.9c1.4,0.1,2.6,0.9,3.4,2C466.3,438.1,465.7,440.8,464.1,442.5L464.1,442.5z M539,504.9c2-1.5,4.8-1.2,6.3,0.8
		c0.1,0.1,0.1,0.2,0.2,0.3c1,2.1,0.6,4.9-1.1,6c-1.9,1.5-4.8,1.2-6.3-0.7c-0.1-0.1-0.1-0.2-0.2-0.3
		C536.9,508.8,537.4,506.1,539,504.9z"/>
	<path fill="#BABABA" d="M564.9,641.3l0.1,0.1c2,2,5.3,2.6,7.3,1.3c1.4-1,2.3-2.5,2.5-4.2c0.1-1.2-0.3-2.3-1.1-3.2
		c-1.3-2.5-4.5-3.4-7.4-1.9l-0.1,0.1L458.5,478.7c1-0.6,1.7-1.6,1.9-2.7c0.3-1.5,0-3.1-1-4.3c-0.9-1.6-2.6-2.5-4.4-2.5
		c-1.1,0-2.2,0.4-3,1.2c-1.4,1-2.3,2.5-2.5,4.2c-0.1,1.2,0.3,2.3,1.1,3.2c0.6,1.2,1.7,2,3,2.3c1.4,0.3,2.8,0,4-0.7l107.7,155
		C563.5,636.3,563.9,639.3,564.9,641.3z M457.5,478.2c-0.8,0.6-1.7,1-2.7,1c-0.3,0-0.6,0-0.9-0.1c-1-0.2-1.9-0.9-2.4-1.9l-0.1-0.1
		c-0.7-0.6-1-1.5-0.9-2.5c0.2-1.4,0.9-2.7,2.1-3.5c0.8-0.7,1.9-1.1,3-0.9c1.2,0.2,2.2,0.9,2.8,1.9v0.1c0.8,1,1.1,2.3,0.9,3.5
		C459.1,476.8,458.4,477.7,457.5,478.2z M566,635.1l0.2,0.3l0.8-0.6l-0.3-0.4l0.1-0.1c2-1,4.8-0.7,6,1.6l0.1,0.1
		c0.7,0.6,1,1.5,0.9,2.5c-0.1,1.4-0.9,2.6-2,3.4c-0.6,0.4-1.3,0.6-2,0.5c-1.5,0-2.9-0.6-4-1.6C564.9,639.1,564.6,636.8,566,635.1z"
		/>
	<path fill="#BABABA" d="M581.5,287.4c-1-1.3-2.7-2.1-4.4-2c-1,0-2,0.2-2.9,0.7l-0.1,0.1c-2,2-2.6,5.3-1.3,7.3
		c1,1.4,2.5,2.3,4.2,2.5c1.2,0.1,2.3-0.3,3.2-1.1c0.9-0.5,1.7-1.2,2.1-2.2l9.3,2c-0.2,1.3,0.1,2.5,0.6,3.6c1.7,2.5,5.1,3.2,7.6,1.6
		c0.1-0.1,0.2-0.1,0.3-0.2c2-1.4,2.7-4.7,1.4-7.3v-0.1c-1-1.4-2.5-2.3-4.2-2.5c-1.2-0.1-2.3,0.3-3.2,1.1c-1.1,0.6-2,1.5-2.4,2.7
		l-9.2-2C582.8,290.1,582.4,288.6,581.5,287.4z M581.5,291.5c-0.2,1-0.9,1.9-1.9,2.4l-0.1,0.1c-0.6,0.6-1.4,0.9-2.2,0.9H577
		c-1.4-0.1-2.6-0.9-3.4-2c-1-1.6-0.5-4.3,1.1-6c2.2-1,4.9-0.5,5.9,1.1l0,0C581.4,288.9,581.7,290.2,581.5,291.5L581.5,291.5z
		 M592.6,294.3c0.3-1.1,1-2,2-2.5l0.1-0.1c0.6-0.6,1.5-1,2.5-0.9c1.4,0.2,2.6,0.9,3.4,2c1,2.2,0.6,4.9-1.1,6
		c-1.9,1.5-4.8,1.2-6.3-0.7c-0.1-0.1-0.1-0.2-0.2-0.3C592.4,296.7,592.3,295.4,592.6,294.3z"/>
	<path fill="#BABABA" d="M441.1,329.8l-0.6-0.8l-12.1,8.4c-0.6-1.1-1.7-1.9-2.9-2.2c-1.5-0.3-3.1,0-4.3,1c-1.3,0.6-2.1,1.9-2.2,3.3
		c-0.1,1.4,0.2,2.9,0.9,4.1c1,1.4,2.5,2.3,4.2,2.5c1.2,0.1,2.3-0.3,3.2-1.1c1.2-0.6,2-1.7,2.3-3c0.3-1.4,0-2.8-0.7-3.9l0.2,0.3
		L441.1,329.8z M428.6,341.7c-0.3,1-0.9,1.9-1.9,2.4l-0.1,0.1c-0.6,0.6-1.4,0.9-2.2,0.9h-0.3c-1.4-0.2-2.6-0.9-3.4-2
		c-0.6-1.1-0.8-2.3-0.7-3.5c0.1-1.1,0.8-2.1,1.8-2.5c1-0.8,2.3-1.1,3.5-0.9c1,0.2,1.9,0.9,2.4,1.9l0.1,0.1
		C428.6,339.1,428.9,340.4,428.6,341.7z"/>
	<path fill="#BABABA" d="M385.9,373.6c1.7-1.5,2.2-4.6,1-7l-0.1-0.1c-1.3-1.3-3.1-2-4.9-2c-1,0-2,0.2-2.9,0.7l-0.1,0.1
		c-2,2-2.6,5.3-1.3,7.3c1.7,2.5,5,3.2,7.5,1.6l55.3,79.9l0.3,0.2l35.4,6.6l85.1,121.3l0,0c-2.4,1.9-3.3,5.1-1.8,7.3
		c1.7,2.5,5.1,3.2,7.6,1.5c0.1-0.1,0.2-0.1,0.3-0.2c2-1.4,2.7-4.7,1.4-7.3l0-0.1c-1-1.4-2.5-2.3-4.2-2.5c-0.9-0.1-1.8,0.1-2.5,0.6
		l-85.2-121.4l-0.3-0.2l-35.5-6.6L385.9,373.6z M384.9,373.1c-2,1.5-4.8,1.2-6.3-0.8c-0.1-0.1-0.2-0.2-0.2-0.3c-1-1.6-0.5-4.3,1.1-6
		c2.2-1,4.8-0.6,6.5,1.1C387.1,369.2,386.6,371.9,384.9,373.1L384.9,373.1z M564.5,581.9c1.4,0.1,2.6,0.9,3.4,2
		c1.1,2.2,0.6,4.9-1.1,6c-1.9,1.5-4.8,1.2-6.3-0.7c-0.1-0.1-0.2-0.2-0.3-0.4c-1-1.5-0.6-4.3,1.8-6
		C562.7,582.2,563.6,581.8,564.5,581.9z"/>
	<path fill="#BABABA" d="M452.8,202.6l65.3,94c-1,0.6-1.7,1.6-1.9,2.7c-0.3,1.5,0,3.1,1,4.3c1.4,2.8,4.8,2.7,7.4,1.4
		c2.3-1.7,2.9-4.9,1.3-7.3l0,0c-1-1.4-2.5-2.3-4.2-2.5c-1-0.1-2,0.2-2.8,0.8L453.6,202c1.8-2,2.2-5.1,1-7l0,0
		c-1-1.4-2.5-2.3-4.2-2.5h-0.3c-1.1,0-2.1,0.4-2.9,1.2c-1.2,0.6-2,1.7-2.3,3c-0.3,1.5,0,3.1,1,4.3c0.6,1.2,1.7,2.1,3,2.4
		C450.3,203.6,451.7,203.4,452.8,202.6z M519,297.2l0.1-0.1c0.6-0.6,1.5-1,2.5-0.9c1.4,0.1,2.6,0.9,3.4,2c1.3,1.9,0.8,4.5-1,5.9
		c-2.1,1.1-4.9,1.2-6-1.1c-0.8-1-1.1-2.3-0.9-3.5C517.4,298.5,518.1,297.6,519,297.2L519,297.2z M446.7,200.4
		c-0.8-1-1.1-2.3-0.9-3.5c0.3-1,0.9-1.9,1.9-2.3l0.1-0.1c0.6-0.7,1.5-1,2.5-0.9c1.4,0.1,2.6,0.9,3.4,2c1,1.6,0.5,4.3-1.1,6
		c-1,0.8-2.3,1.1-3.6,0.8C448,202.1,447.1,201.4,446.7,200.4L446.7,200.4z"/>
	<path fill="#BABABA" d="M563.4,306.2l-0.1-0.1c-1.3-1.3-2.9-2-4.7-2c-0.9,0-1.8,0.2-2.6,0.7c-1.2,0.9-2.1,2.2-2.4,3.7
		c-0.2,1.5,0.1,3,1.1,4.2c1.4,2,4.7,2.7,7.3,1.4l0.1-0.1c0.8-0.8,1.4-1.8,1.7-2.8l26.9,4.8l0.2-1l-26.9-4.8
		C564.2,308.8,564,307.4,563.4,306.2z M561.4,313.2c-2.2,1-4.9,0.5-6-1.1c-0.8-1-1.1-2.2-0.9-3.5c0.3-1.2,1-2.3,2-3.1
		c1.6-1,4.3-0.5,6,1.1C563.5,308.9,563.1,311.5,561.4,313.2z"/>
	<path fill="#BABABA" d="M395.9,111L395.9,111c-1.1-1.6-3-2.6-4.9-2.6c-0.9,0-1.7,0.2-2.4,0.7c-1.2,0.9-2.1,2.2-2.4,3.7
		c-0.3,1.5,0.1,3,1.1,4.2c1.3,1.9,4.3,2.6,6.9,1.5l37.6,54.3c-1.8,1.9-2.2,4.7-0.9,7c1.7,2.5,5.1,3.2,7.6,1.5
		c0.1-0.1,0.2-0.1,0.3-0.2c2-1.4,2.7-4.7,1.4-7.3l-0.1-0.1c-1.7-2.5-5-3.2-7.5-1.6L395,118C397,116.2,397.4,113.2,395.9,111z
		 M432.7,173.3c2-1.5,4.8-1.2,6.3,0.8c0.1,0.1,0.1,0.2,0.2,0.3c1,2.2,0.6,4.9-1.1,6c-2,1.5-4.8,1.2-6.3-0.8
		c-0.1-0.1-0.2-0.2-0.2-0.3C430.5,177.6,431.1,174.3,432.7,173.3z M394.1,117.5c-2.2,1.1-4.9,0.6-6-1.1c-0.8-1-1.1-2.2-0.9-3.5
		c0.3-1.2,1-2.3,2-3.1c1.5-1,4.3-0.6,6,1.7C396.4,113.5,396,116.1,394.1,117.5z"/>
	<path fill="#BABABA" d="M534.8,268.3c0.1-2.7-1.5-5.2-4.1-6.2c-0.4-0.1-0.7-0.1-1.1-0.1c-1.2,0-2.3,0.4-3.3,1.1
		c-2,1.4-2.7,4.7-1.3,7.4c1,1.4,2.5,2.3,4.2,2.5c1,0.1,2-0.2,2.8-0.8l8.5,12.4c-1.7,1.5-2.2,4.6-0.9,7c2.1,2.8,5.6,2.5,7.9,1.4
		l0.1-0.1c2-2,2.6-5.3,1.3-7.3l0,0c-1.7-2.5-5-3.2-7.5-1.6l-8.5-12.4C533.9,270.8,534.6,269.6,534.8,268.3z M541.5,285
		c2-1.5,4.8-1.2,6.3,0.8c0.1,0.1,0.2,0.2,0.2,0.3c1,1.6,0.5,4.3-1.1,6c-2,1-4.8,1.2-6.5-1C539.3,288.9,539.8,286.2,541.5,285z
		 M531.9,270.9l-0.1,0.1c-0.6,0.6-1.4,0.9-2.2,0.9h-0.3c-1.4-0.2-2.6-0.9-3.4-2c-1.1-2.2-0.6-4.9,1.1-6c1-0.8,2.3-1.1,3.5-0.9
		c1,0.2,1.9,0.9,2.4,1.9l0.1,0.1c0.7,0.8,1.1,2,0.8,3C533.6,269.3,532.9,270.3,531.9,270.9z"/>
	<path fill="#BABABA" d="M536.8,317.5h-0.3c-1.1,0-2.1,0.4-2.9,1.1c-1.2,0.6-2,1.7-2.3,2.9c-0.3,1.5,0,3.1,1,4.4
		c1.4,2,4.7,2.7,7.3,1.4l0.1-0.1c2-2,2.6-5.3,1.3-7.3l0,0C540,318.6,538.5,317.7,536.8,317.5z M539.1,326.5c-2.2,1-4.9,0.5-6-1.1
		c-0.8-1-1.1-2.3-0.9-3.5c0.2-1,0.9-1.9,1.9-2.4l0.1-0.1c0.6-0.6,1.5-1,2.5-0.9c1.4,0.1,2.6,0.9,3.4,2
		C541.2,322.1,540.7,324.8,539.1,326.5L539.1,326.5z"/>
	<path fill="#BABABA" d="M456.1,258.3c1.3,0.3,2.7,0.1,3.8-0.6l82.4,118.1c-1,0.9-1.7,2.1-2,3.4c-0.3,1.5,0.1,3,1.1,4.2
		c1.4,2,4.7,2.7,7.3,1.4l0.1-0.1c2-2.1,2.5-5.2,1.3-7.8l-0.1-0.1c-1.8-1.8-4.5-2.4-6.8-1.5l-82.3-118.1c1-0.6,1.7-1.6,2-2.8
		c0.3-1.5,0-3.1-1-4.3c-0.6-1.2-1.8-2.1-3.2-2.2c-0.2,0-0.5,0-0.7,0c-1.2,0-2.4,0.3-3.5,0.9c-1.4,1-2.3,2.5-2.4,4.2
		c-0.1,1.2,0.3,2.3,1.1,3.2C453.7,257.2,454.8,258,456.1,258.3z M543.3,376.3c1.6-1,4.3-0.5,6,1.1c1,2.2,0.6,4.8-1.1,6.5
		c-2.1,1-4.8,0.5-5.9-1.1c-0.8-1-1.1-2.2-0.9-3.5C541.6,378.1,542.3,377,543.3,376.3z M455,249.4c1.1-0.6,2.3-0.8,3.5-0.7
		c1.1,0.1,2,0.7,2.5,1.7l0.1,0.1c0.8,1,1.1,2.3,0.9,3.5c-0.2,0.9-0.8,1.7-1.6,2.2L460,256l-0.8,0.6l0.2,0.3c-0.9,0.5-2,0.7-3,0.5
		c-1-0.2-1.9-0.9-2.4-1.9l-0.1-0.1c-0.6-0.6-1-1.5-0.9-2.5C453.2,251.5,453.9,250.3,455,249.4L455,249.4z"/>
	<path fill="#BABABA" d="M419.4,288.1c2-1.4,2.7-4.7,1.4-7.3l0-0.1c-1-1.4-2.5-2.3-4.2-2.5h-0.3c-1.1,0-2.1,0.4-2.9,1.1
		c-2.4,1.8-3.3,5-2,7.2L357,324.4c-0.6-1-1.6-1.7-2.7-1.9c-1.5-0.3-3.1,0-4.3,1c-1.3,0.6-2.1,1.8-2.2,3.3c-0.1,1.4,0.1,2.8,0.8,4.1
		l0.1,0.1c2,2,5.3,2.6,7.3,1.3c1.4-1,2.3-2.5,2.5-4.2c0.1-1-0.2-2-0.8-2.8l54.4-37.8C413.9,289.5,417.1,289.8,419.4,288.1z
		 M355.4,331.3c-0.6,0.4-1.3,0.6-2,0.5c-1.5,0-2.9-0.6-3.9-1.6c-0.5-1.1-0.8-2.2-0.7-3.4c0.1-1.1,0.8-2.1,1.8-2.5
		c1-0.8,2.3-1.1,3.6-0.9c1,0.2,1.9,0.9,2.4,1.9l0.1,0.1c0.6,0.6,1,1.5,0.9,2.5C357.2,329.3,356.5,330.6,355.4,331.3L355.4,331.3z
		 M414,280.2c0.6-0.7,1.5-1,2.5-0.9c1.4,0.2,2.6,0.9,3.4,2c1,2.2,0.6,4.9-1.1,6c-1.9,1.5-4.8,1.2-6.3-0.8c-0.1-0.1-0.2-0.2-0.2-0.3
		C411.3,284.7,411.7,281.9,414,280.2L414,280.2z"/>
	<path fill="#BABABA" d="M155.7,223.6l-0.5,0.3L192,277c-0.8,0.8-1.4,1.9-1.6,3.1c-0.3,1.5,0.1,3,1.1,4.2c1.4,2,4.7,2.7,7.4,1.3
		c1.2-0.9,2.1-2.2,2.4-3.7c0.3-1.5-0.1-3-1.1-4.2v0c-2-2-5.3-2.6-7.3-1.3l-36.8-53l-0.2,0.1l0.1-0.1c2-2,2.6-5.3,1.3-7.3l0,0
		c-1.1-1.5-2.8-2.4-4.6-2.5c-1.2,0-2.4,0.4-3.3,1.1c-2,1.4-2.7,4.7-1.3,7.4C149.8,224.7,153.2,225.3,155.7,223.6z M193.4,277.2
		c1.6-1,4.3-0.5,6,1.1c0.8,1,1.1,2.2,0.9,3.4c-0.3,1.2-0.9,2.3-1.9,3c-2.2,1.1-4.9,0.6-6-1.1c-0.8-1-1.1-2.2-0.9-3.5
		C191.7,279,192.3,277.9,193.4,277.2L193.4,277.2z M149.9,215.6c2-1.5,4.8-1.2,6.3,0.8c0.1,0.1,0.2,0.2,0.2,0.3c1,1.6,0.5,4.3-1.1,6
		c-1.9,1.5-4.8,1.2-6.3-0.7c-0.1-0.1-0.1-0.2-0.2-0.3C147.7,219.4,148.2,216.7,149.9,215.6z"/>
	<path fill="#BABABA" d="M593.9,718.4l-86.2-124.7l-0.3-0.2l-35.5-6l-87.4-125.3l6.6-35.4l-0.1-0.4l-55.9-79.9c1-0.7,1.7-1.7,2-2.9
		c0.3-1.4,0.2-2.8-0.5-4.1v-0.1c-1.1-1.5-2.8-2.4-4.6-2.5c-1.2,0-2.4,0.4-3.3,1.1c-2,1.4-2.7,4.7-1.3,7.4c1,1.4,2.5,2.3,4.2,2.5
		c1,0.1,2-0.2,2.8-0.8l55.8,79.7l-6.6,35.4l0.1,0.4l87.6,125.6l0.3,0.2l35.5,6l86,124.5c-1,0.9-1.7,2.1-2,3.4
		c-0.2,1.5,0.2,3.1,1.1,4.3c2,2,5.3,2.6,7.3,1.3c1.2-0.9,2.1-2.2,2.4-3.7c0.2-1.5-0.1-3-1.1-4.2C599.5,718,596.5,717.4,593.9,718.4z
		 M334.3,345.8l-0.1,0.1c-0.6,0.7-1.5,1-2.5,0.9c-1.4-0.2-2.6-0.9-3.4-2c-1.1-2.2-0.6-4.9,1.1-6c2-1.5,4.8-1.2,6.3,0.8
		c0.1,0.1,0.1,0.2,0.2,0.3c0.5,1.1,0.7,2.3,0.4,3.4C336,344.4,335.3,345.3,334.3,345.8z M600.9,724c-0.3,1.2-1,2.3-2,3.1
		c-0.6,0.4-1.3,0.6-2,0.5c-1.5,0-2.9-0.6-4-1.6c-0.8-1-1.1-2.2-0.9-3.5c0.2-1.2,0.9-2.3,1.9-3c2.2-1.1,4.9-0.6,6,1l0,0
		C600.8,721.5,601.1,722.7,600.9,724z"/>
	<path fill="#BABABA" d="M238.8,378c-1.6-2.4-4.9-3.2-7.4-1.7l-67.9-97.6c1.2-1,1.9-2.3,2.1-3.9c0.1-1.2-0.3-2.4-1.2-3.2
		c-1-1.4-2.5-2.2-4.1-2.4H160c-1.1,0-2.1,0.4-2.9,1.1c-1.2,0.6-2,1.7-2.3,3c-0.3,1.5,0,3.1,1,4.3c1.3,2.6,4.4,2.7,6.9,1.6l67.9,97.7
		c-1.9,2-2.4,5.2-1.1,7.1c1,1.4,2.5,2.3,4.2,2.5c1.2,0.1,2.3-0.3,3.2-1.1c1.2-0.6,2.1-1.8,2.5-3.2c0.3-1.4,0.2-2.9-0.5-4.1
		L238.8,378z M162.6,278.2c-0.9,0.5-1.9,0.7-2.9,0.7c-1.3,0.1-2.5-0.6-3.1-1.8c-0.8-1-1.1-2.3-0.9-3.5c0.2-1,0.9-1.9,1.9-2.4
		l0.1-0.1c0.6-0.7,1.5-1,2.5-0.9c1.4,0.2,2.6,0.9,3.4,2h0c0.6,0.6,1,1.5,0.9,2.5C164.5,276.1,163.8,277.3,162.6,278.2z M238.4,381.9
		c-0.3,1.1-1,2-2,2.5l-0.1,0.1c-0.6,0.6-1.5,1-2.5,0.9c-1.4-0.1-2.6-0.9-3.4-2c-1-1.5-0.6-4,0.8-5.7l0.1,0.2l0.8-0.6l-0.2-0.3
		c2.1-1.2,4.7-0.6,6,1.4C238.5,379.6,238.6,380.8,238.4,381.9z"/>
	<path fill="#BABABA" d="M403.6,534.1L319.2,413l-0.3-0.2l-34.8-6L211.1,302l6.6-34.8l-0.1-0.4l-26.9-38.2c1.2-1,1.9-2.4,2.1-3.9
		c0.1-1.2-0.3-2.3-1.1-3.2c-0.6-1.2-1.8-2.1-3.2-2.5c-0.5-0.1-0.9-0.2-1.4-0.2c-1,0-1.9,0.2-2.7,0.6l-0.1,0.1
		c-2,2.1-2.5,5.2-1.3,7.8l0.1,0.1c1.8,1.8,4.5,2.4,6.9,1.5l26.8,38.1l-6.6,34.8l0.1,0.4l73.1,105.1l0.3,0.2l34.9,6l84.3,120.9
		c-1.8,2-2.2,5.1-1,7c1,1.4,2.5,2.3,4.2,2.4c1.2,0.1,2.3-0.3,3.2-1.1c1.2-0.6,2-1.7,2.3-3c0.3-1.5,0-3.1-1-4.4
		C409.1,533.7,406.1,533.1,403.6,534.1z M189.8,228c-0.6,0.4-1.3,0.6-2,0.5c-1.5,0-2.9-0.6-4-1.6c-1-2.2-0.6-4.8,1.1-6.5
		c2-1,4.8-0.6,5.9,1.6l0.1,0.1c0.7,0.6,1,1.5,0.9,2.5C191.6,226,190.9,227.2,189.8,228z M410.5,539.8c-0.2,1-0.9,1.9-1.9,2.4
		l-0.1,0.1c-0.6,0.6-1.4,0.9-2.2,0.9H406c-1.4-0.1-2.6-0.9-3.4-2c-1-1.6-0.5-4.3,1.1-6c2.1-1,4.9-0.6,5.9,1.1l0,0
		C410.4,537.2,410.7,538.5,410.5,539.8z"/>
	<path fill="#BABABA" d="M597.8,537.5c-1.4-0.3-2.8,0-4,0.7l-75.2-107.7l-0.3-0.2l-34.8-6l-40.2-58.7c0.9-0.8,1.4-1.9,1.6-3.1
		c0.3-1.3,0.1-2.7-0.6-3.9l0,0c-1.1-1.5-2.8-2.4-4.6-2.5c-1.2,0-2.4,0.4-3.3,1.1c-2,1.4-2.7,4.7-1.3,7.4c1.7,2.5,5,3.2,7.5,1.6
		l40.2,58.8l0.3,0.2l34.8,6l75.1,107.6c-1.2,1-1.9,2.3-2.1,3.9c-0.1,1.2,0.3,2.3,1.1,3.2c1,1.4,2.5,2.3,4.2,2.5
		c1.2,0.1,2.3-0.3,3.2-1.1c1.2-0.6,2-1.7,2.3-3c0.3-1.5,0-3.1-1-4.3C600.2,538.7,599.1,537.9,597.8,537.5z M442.4,365.2
		c-1.9,1.5-4.8,1.2-6.3-0.7c-0.1-0.1-0.1-0.2-0.2-0.3c-1.1-2.2-0.6-4.9,1.1-6c1.8-1.6,4.5-1.4,6.1,0.4c0.9,1.1,1.3,2.5,0.9,3.9
		C443.8,363.5,443.2,364.5,442.4,365.2z M600.8,544c-0.2,1-0.9,1.9-1.9,2.4l-0.1,0.1c-0.6,0.6-1.4,0.9-2.2,0.9h-0.3
		c-1.4-0.2-2.7-0.9-3.5-2.1c-0.7-0.6-1-1.5-0.9-2.5c0.2-1.4,0.9-2.6,2-3.4c1-0.8,2.3-1.1,3.5-0.9c1,0.2,1.9,0.9,2.3,1.9l0.1,0.1
		C600.8,541.5,601.1,542.8,600.8,544z"/>
	<path fill="#BABABA" d="M597.8,672.3c-0.2,0-0.4-0.1-0.5-0.1l0.6-43.2l-0.1-0.3L586.5,612c1.3-2,1.6-4.6,0.5-6.3l0,0
		c-1.1-1.5-2.8-2.4-4.6-2.5c-1.2,0-2.4,0.4-3.3,1.1c-2,1.4-2.7,4.7-1.4,7.3l0.1,0.1c2.1,2,5.2,2.5,7.8,1.3l0.1-0.1l0.2-0.2l11,16.3
		l-0.6,43c-1,0.1-2,0.5-2.8,1.1c-1.2,0.6-2.1,1.7-2.4,3c-0.3,1.5,0,3.1,1,4.4c1,1.4,2.5,2.3,4.2,2.5c1.2,0.1,2.3-0.3,3.2-1.1
		c1.2-0.6,2-1.7,2.3-3c0.3-1.5,0-3.1-1-4.3C600.2,673.4,599.1,672.6,597.8,672.3z M585,612.3c-2.2,1-4.8,0.6-6.6-1.1
		c-1-2.1-0.5-4.8,1.1-6c2-1.5,4.8-1.2,6.3,0.8c0.1,0.1,0.2,0.2,0.2,0.3C587.1,607.9,586.6,610.6,585,612.3z M600.8,678.8
		c-0.2,1-0.9,1.9-1.9,2.3l-0.1,0.1c-0.6,0.6-1.5,1-2.5,0.9c-1.4-0.1-2.6-0.9-3.4-2c-0.8-1-1.1-2.3-0.9-3.5c0.3-1.1,1-1.9,2-2.4
		c0.6-0.5,1.4-0.9,2.2-1v0.5h1v-0.5l0.3,0.1c1,0.2,1.9,0.9,2.3,1.9l0,0.1C600.8,676.2,601.1,677.5,600.8,678.8z"/>
	<path fill="#BABABA" d="M593.5,583.3L560,534.9c1-0.6,1.7-1.6,1.9-2.7c0.3-1.5,0-3.1-1-4.3c-0.6-1.2-1.7-2.1-3-2.4
		c-0.4-0.1-0.7-0.1-1.1-0.1c-1.2,0-2.3,0.4-3.2,1.1c-1.3,0.6-2.1,1.9-2.2,3.3c-0.1,1.4,0.2,2.9,0.9,4.1c1,1.4,2.5,2.3,4.2,2.5
		c1,0.1,2-0.2,2.8-0.8l33.5,48.4c-1,0.9-1.6,2.2-1.7,3.5c-0.1,1.2,0.3,2.3,1.1,3.1c1,1.4,2.5,2.3,4.2,2.5c1.2,0.1,2.3-0.3,3.2-1.1
		c1.2-0.6,2-1.7,2.3-3c0.3-1.5,0-3.1-1-4.4C599.4,581.9,596.1,582,593.5,583.3z M559.1,534.3l-0.1,0.1c-0.6,0.6-1.4,0.9-2.2,0.9
		h-0.3c-1.4-0.2-2.6-0.9-3.4-2c-0.6-1.1-0.8-2.3-0.7-3.5c0.1-1.1,0.8-2.1,1.8-2.5c1-0.8,2.3-1.1,3.5-0.9c1,0.2,1.9,0.9,2.3,1.9v0.1
		c0.8,1,1.1,2.3,0.9,3.5C560.7,533,560,533.8,559.1,534.3L559.1,534.3z M600.8,588.7c-0.3,1-0.9,1.9-1.9,2.3l-0.1,0.1
		c-0.6,0.6-1.4,0.9-2.2,0.9h-0.3c-1.4-0.2-2.7-0.9-3.5-2.1c-0.7-0.6-1-1.5-0.9-2.5c0.2-1.4,0.9-2.6,2-3.4c2.1-1.1,4.9-1.2,6,1l0,0.1
		C600.8,586.2,601.1,587.5,600.8,588.7z"/>
	<path fill="#BABABA" d="M448.4,412.6c-1.1,0-2.1,0.3-3,0.9c-1.4,1-2.3,2.5-2.5,4.2c-0.1,1.2,0.3,2.3,1.1,3.2c0.6,1.2,1.7,2.1,3,2.3
		c1.5,0.3,3.1,0,4.3-1c1.2-0.6,2.1-1.7,2.4-3c0.3-1.5,0-3.1-1-4.4C451.8,413.4,450.1,412.6,448.4,412.6z M452.8,418.9
		c-0.3,1.1-1,2-2,2.4c-0.8,0.6-1.7,1-2.7,1c-0.3,0-0.6,0-0.8-0.1c-1-0.2-1.9-0.9-2.4-1.9l-0.1-0.1c-0.7-0.6-1-1.5-0.9-2.5
		c0.1-1.4,0.9-2.6,2-3.4c2-1.3,4.6-0.8,6,1.1C452.7,416.4,453,417.7,452.8,418.9L452.8,418.9z"/>
	<path fill="#BABABA" d="M600.8,451.7c-1.1-1.7-3.6-2.4-5.9-1.9l-30.7-43.7c1.8-2.1,2.2-5,1-7.5l-0.1-0.1c-1.3-1.3-2.9-2-4.7-2
		c-0.9,0-1.8,0.2-2.6,0.7c-1.4,1-2.3,2.5-2.5,4.2c-0.1,1.2,0.3,2.4,1.2,3.2c1.4,2.4,4.4,3.4,6.9,2.1l30.5,43.4
		c-0.2,0.1-0.3,0.1-0.5,0.2c-1.4,1-2.3,2.5-2.4,4.2c-0.1,1.2,0.3,2.3,1.1,3.2c1,1.4,2.5,2.3,4.2,2.4c1.2,0.1,2.3-0.3,3.2-1.1
		c1.2-0.6,2-1.7,2.3-3C602.1,454.5,601.8,452.9,600.8,451.7z M563.2,405.7c-2,1-4.8,0.6-5.9-1.6l-0.1-0.1c-0.6-0.6-1-1.5-0.9-2.5
		c0.2-1.4,0.9-2.6,2-3.4c1.6-1,4.3-0.5,6,1.1C565.3,401.3,564.9,403.9,563.2,405.7L563.2,405.7z M600.8,455.8
		c-0.2,1-0.9,1.9-1.9,2.4l-0.1,0.1c-0.6,0.6-1.4,0.9-2.2,0.9h-0.3c-1.4-0.2-2.7-0.9-3.5-2.1c-0.7-0.6-1-1.5-0.9-2.5
		c0.2-1.4,0.9-2.6,2-3.4c0.2-0.1,0.3-0.2,0.5-0.2v0.1l0.2-0.2c2-0.6,4.2-0.1,5.2,1.4l0,0C600.8,453.3,601.1,454.6,600.8,455.8z"/>
	<path fill="#BABABA" d="M404,353.6l-31.8-4.1c0-1.3-0.4-2.5-1.1-3.5c-1-1.3-2.7-2.1-4.4-2c-1,0-2.1,0.2-3,0.7
		c-1.2,0.9-2.1,2.2-2.4,3.7c-0.3,1.5,0.1,3,1.1,4.2c1.4,2,4.7,2.7,7.4,1.3c1.2-0.8,2-2,2.3-3.4l31.5,4.1l41,59l0.8-0.6l-41.1-59.2
		L404,353.6z M371.2,350c-0.3,1.2-0.9,2.3-1.9,3c-0.8,0.4-1.6,0.6-2.5,0.6c-1.4,0.1-2.7-0.5-3.5-1.6c-0.8-1-1.1-2.2-0.9-3.5
		c0.3-1.2,0.9-2.3,1.9-3c2.2-1.1,4.9-0.6,6,1l0,0C371.1,347.5,371.5,348.8,371.2,350L371.2,350z"/>
	<path fill="#BABABA" d="M473.7,555.6c1,1.4,2.5,2.3,4.2,2.5c1.2,0.1,2.3-0.3,3.2-1.1c1.2-0.6,2.1-1.7,2.3-3c0.3-1.5,0-3.1-1-4.3
		c-0.6-1.2-1.7-2.1-3-2.4c-1.4-0.3-2.8,0-4,0.7l-65.3-94c1-0.6,1.7-1.6,1.9-2.7c0.3-1.5,0-3.1-1-4.3c-0.6-1.2-1.7-2.1-3-2.4
		c-0.4-0.1-0.7-0.1-1.1-0.1c-1.2,0-2.4,0.4-3.3,1.2c-2.3,1.7-2.9,4.9-1.3,7.3c1,1.4,2.5,2.3,4.2,2.5c1,0.1,2-0.2,2.8-0.8l65.4,94.1
		C472.9,550.6,472.4,553.7,473.7,555.6z M409.2,453.4l-0.1,0.1c-0.6,0.6-1.4,0.9-2.2,0.9h-0.3c-1.4-0.1-2.6-0.9-3.4-2
		c-1.3-2-0.8-4.6,1.1-6c1-0.8,2.3-1.1,3.6-0.9c1,0.2,1.9,0.9,2.4,1.9v0.1c0.8,1,1.1,2.3,0.9,3.5C410.8,452,410.1,452.9,409.2,453.4
		L409.2,453.4z M475.6,549.1c1-0.8,2.3-1.1,3.5-0.9c1,0.3,1.9,0.9,2.4,1.9v0.1c0.8,1,1.1,2.3,0.9,3.6c-0.2,1-0.9,1.9-1.9,2.3
		l-0.1,0.1c-0.6,0.6-1.4,0.9-2.2,0.9h-0.3c-1.4-0.1-2.6-0.9-3.4-2C473.4,553.4,474,550.7,475.6,549.1L475.6,549.1z"/>
	<path fill="#BABABA" d="M93.6,95.7c-0.1,1.2,0.3,2.3,1.1,3.2c0.6,1.2,1.7,2,3,2.3c1.2,0.3,2.4,0.1,3.5-0.5l67.5,97.4
		c-1,0.7-1.6,1.8-1.7,3c-0.1,1.4,0.2,2.9,0.9,4.1c1,1.4,2.5,2.3,4.2,2.5c1.2,0.1,2.3-0.3,3.2-1.1c1.2-0.6,2-1.7,2.3-3
		c0.3-1.5,0-3.1-1-4.3c-0.6-1.2-1.7-2.1-3-2.4c-1.4-0.3-2.8,0-4,0.7l-67.5-97.4c2-1.4,2.7-4.7,1.4-7.3l-0.1-0.1
		c-1.3-1.3-2.9-2-4.7-2c-0.9,0-1.8,0.2-2.6,0.7C94.7,92.5,93.8,94,93.6,95.7z M169.8,198.6c1-0.8,2.3-1.1,3.5-0.8
		c1,0.2,1.9,0.9,2.4,1.9l0,0.1c0.8,1,1.1,2.3,0.9,3.5c-0.2,1-0.9,1.9-1.9,2.3l-0.1,0.1c-0.6,0.6-1.4,0.9-2.2,0.9h-0.3
		c-1.4-0.2-2.6-0.9-3.4-2c-0.6-1.1-0.8-2.3-0.7-3.5C168.2,200,168.8,199.1,169.8,198.6z M102.6,93.4c1,2.2,0.5,4.8-1.1,6
		c-1,0.8-2.3,1.1-3.5,0.9c-1-0.2-1.9-0.9-2.4-1.9l-0.1-0.1c-0.6-0.6-1-1.5-0.9-2.5c0.1-1.4,0.9-2.6,2-3.4
		C98.2,91.3,100.9,91.8,102.6,93.4L102.6,93.4z"/>
	<path fill="#BABABA" d="M444.3,331.2c1.4,0.1,2.9-0.2,4.1-0.9c1.4-1,2.3-2.5,2.5-4.2c0.1-1.2-0.3-2.3-1.1-3.2c-0.6-1.2-1.7-2-3-2.3
		c-0.4-0.1-0.7-0.1-1.1-0.1c-1.2,0-2.3,0.4-3.2,1.1c-1.2,0.6-2.1,1.7-2.4,3c-0.3,1.5,0,3.1,1,4.3
		C441.6,330.2,442.9,331.1,444.3,331.2z M441,324.9c0.3-1.1,1-1.9,2-2.4c1-0.8,2.3-1.1,3.6-0.9c1,0.2,1.9,0.9,2.4,1.9l0.1,0.1
		c0.6,0.6,1,1.5,0.9,2.5c-0.2,1.4-0.9,2.6-2,3.4c-0.9,0.5-1.9,0.7-2.9,0.7c-0.2,0-0.4,0-0.6,0c-1.1-0.1-2.1-0.8-2.5-1.8
		C441.1,327.5,440.7,326.2,441,324.9L441,324.9z"/>
	<path fill="#BABABA" d="M388,330.2c-2.3,1.7-2.9,4.9-1.3,7.3c1,1.4,2.5,2.3,4.2,2.5c1.2,0.1,2.3-0.3,3.2-1.1c1.2-0.6,2.1-1.7,2.3-3
		c0.3-1.5,0-3.1-1-4.4l33.4-23.3c0.1,0.1,0.1,0.1,0.2,0.2c0.6,1.2,1.7,2.1,3,2.4c1.5,0.3,3.1,0,4.4-1c1.4-1,2.3-2.5,2.5-4.2
		c0.1-1.2-0.3-2.4-1.2-3.2c-1-1.4-2.5-2.2-4.1-2.4h-0.3c-1.1,0-2.1,0.4-2.9,1.1c-1.2,0.6-2,1.7-2.3,3c-0.2,1.1-0.1,2.2,0.3,3.2
		l-33.6,23.4C392.7,329.3,390.1,329,388,330.2z M428.9,304.4c0.2-1,0.9-1.9,1.9-2.4l0.1-0.1c0.6-0.6,1.5-1,2.5-0.9
		c1.4,0.2,2.6,0.9,3.4,2h0c0.7,0.6,1,1.5,0.9,2.5c-0.1,1.4-0.9,2.6-2,3.4c-0.8,0.6-1.7,1-2.7,1c-0.3,0-0.6,0-0.9-0.1
		c-1.1-0.3-1.9-1-2.4-2C429,306.9,428.7,305.6,428.9,304.4z M395.4,335.6c-0.2,1-0.9,1.9-1.9,2.3l-0.1,0.1c-0.6,0.6-1.4,0.9-2.2,0.9
		h-0.3c-1.4-0.1-2.6-0.9-3.4-2c-1.3-1.9-0.8-4.5,1-5.9c2.2-1.1,4.9-0.6,6,1l0,0C395.3,333,395.6,334.3,395.4,335.6z"/>
</g>
</svg>
