<svg id="Слой_1" data-name="Слой 1" xmlns="http://www.w3.org/2000/svg" viewBox="0 0 164.79 12.4"><defs><style>.cls-1{fill:#fff;}.cls-2{fill:#ffd300;}</style></defs><title>Монтажная область 6</title><path class="cls-1" d="M160.09,0c-3.33,0-4.7,3.22-4.7,6.19s1.37,6.21,4.7,6.21,4.7-3.24,4.7-6.21S163.42,0,160.09,0Zm0,10.8c-2.12,0-2.86-2.27-2.86-4.61S158,1.6,160.09,1.6,163,3.85,163,6.19,162.21,10.8,160.09,10.8Z"/><path class="cls-1" d="M150.39,11.25a1.13,1.13,0,0,0,1.11,1.13,1.13,1.13,0,1,0,0-2.25,1.12,1.12,0,0,0-1.11,1.12"/><path class="cls-1" d="M143.46,0c-3.33,0-4.7,3.22-4.7,6.19s1.37,6.21,4.7,6.21,4.7-3.24,4.7-6.21S146.79,0,143.46,0Zm0,10.8c-2.13,0-2.86-2.27-2.86-4.61s.73-4.59,2.86-4.59,2.86,2.25,2.86,4.59S145.58,10.8,143.46,10.8Z"/><path class="cls-1" d="M133.76,11.25a1.13,1.13,0,0,0,1.11,1.13,1.13,1.13,0,1,0,0-2.25,1.12,1.12,0,0,0-1.11,1.12"/><polygon class="cls-1" points="128.72 12.19 130.52 12.19 130.52 0.18 128.93 0.18 125.71 3.47 126.77 4.57 128.72 2.54 128.72 12.19"/><polygon class="cls-1" points="116.5 12.19 118.73 12.19 113.38 5.87 118.33 0.18 116.1 0.18 111.08 6.14 111.08 0.18 109.28 0.18 109.28 12.19 111.08 12.19 111.08 8.24 112.21 6.97 116.5 12.19"/><polygon class="cls-1" points="98.06 12.19 106.13 12.19 106.13 10.6 99.86 10.6 99.86 6.86 106 6.86 106 5.27 99.86 5.27 99.86 1.76 106.13 1.76 106.13 0.18 98.06 0.18 98.06 12.19"/><polygon class="cls-1" points="89.78 12.19 91.58 12.19 91.58 1.76 95.29 1.76 95.29 0.18 86.06 0.18 86.06 1.76 89.78 1.76 89.78 12.19"/><polygon class="cls-1" points="81.54 12.19 83.28 12.19 83.28 0.18 81.48 0.18 81.48 9.18 74.95 0.18 73.1 0.18 73.1 12.19 74.9 12.19 74.9 2.97 81.54 12.19"/><rect class="cls-1" x="67.72" y="0.18" width="1.8" height="12.01"/><path class="cls-1" d="M62.26,6a2.71,2.71,0,0,0,2.09-2.75C64.35,1.49,63.11.18,61,.18H55.33v12h5.78A3.14,3.14,0,0,0,64.58,9,3,3,0,0,0,62.26,6ZM57.13,1.76h3.49A1.72,1.72,0,0,1,62.5,3.53a1.7,1.7,0,0,1-1.88,1.74H57.13Zm3.58,8.84H57.13V6.86h3.58a1.83,1.83,0,0,1,2,1.85A1.81,1.81,0,0,1,60.71,10.6Z"/><rect class="cls-1" x="49.95" y="0.18" width="1.8" height="12.01"/><path class="cls-1" d="M37.69,10.49a6.13,6.13,0,0,0,4.74,1.91c3.24,0,4.53-1.74,4.53-3.62,0-2.55-2.28-3.16-4.25-3.69-1.49-.37-2.79-.72-2.79-1.8s.92-1.69,2.25-1.69A4.67,4.67,0,0,1,45.65,3l1-1.34A5.88,5.88,0,0,0,42.32,0c-2.5,0-4.25,1.44-4.25,3.42,0,2.45,2.23,3,4.16,3.51,1.53.4,2.9.76,2.9,2,0,.86-.69,1.85-2.63,1.85a5.05,5.05,0,0,1-3.78-1.69Z"/><path class="cls-2" d="M26.17,10.49a6.13,6.13,0,0,0,4.74,1.91c3.24,0,4.53-1.74,4.53-3.62,0-2.55-2.28-3.16-4.25-3.69-1.49-.37-2.79-.72-2.79-1.8s.92-1.69,2.25-1.69A4.67,4.67,0,0,1,34.13,3l1-1.34A5.88,5.88,0,0,0,30.8,0c-2.5,0-4.25,1.44-4.25,3.42,0,2.45,2.23,3,4.16,3.51,1.53.4,2.9.76,2.9,2,0,.86-.69,1.85-2.63,1.85A5.05,5.05,0,0,1,27.2,9.11Z"/><polygon class="cls-2" points="15.7 12.19 23.76 12.19 23.76 10.6 17.5 10.6 17.5 6.86 23.63 6.86 23.63 5.27 17.5 5.27 17.5 1.76 23.76 1.76 23.76 0.18 15.7 0.18 15.7 12.19"/><polygon class="cls-2" points="10.33 12.19 12.13 12.19 12.13 0.18 9.56 0.18 6.07 8.8 2.57 0.18 0 0.18 0 12.19 1.8 12.19 1.8 2.65 5.69 12.19 6.44 12.19 10.33 2.65 10.33 12.19"/></svg>