<svg id="Слой_1" data-name="Слой 1" xmlns="http://www.w3.org/2000/svg" viewBox="0 0 205.88 169.09"><defs><style>.cls-1{fill:#111314;}.cls-2{fill:#241f1f;}.cls-3{fill:#ffd300;}.cls-4{fill:#131516;}</style></defs><title>Монтажная область 1</title><polygon class="cls-1" points="32.29 107.79 32.31 133.78 43.96 107.61 50.66 107.61 50.66 138.56 46.16 138.62 46.16 118.4 46.16 113.52 34.67 138.57 27.36 138.56 27.36 107.79 32.29 107.79"/><polygon class="cls-1" points="85.29 107.79 85.31 133.78 96.95 107.61 103.66 107.61 103.66 138.56 99.15 138.62 99.15 118.4 99.15 113.52 87.67 138.57 80.36 138.56 80.36 107.79 85.29 107.79"/><polygon class="cls-2" points="131.81 0 104.97 92.14 109.75 92.14 136.59 0 131.81 0"/><polygon class="cls-2" points="145.92 0 119.08 92.14 123.87 92.14 150.7 0 145.92 0"/><polygon class="cls-2" points="117.68 0 90.85 92.14 95.63 92.14 122.47 0 117.68 0"/><polygon class="cls-3" points="58.52 0 58.52 92.14 81.52 92.14 108.34 0 58.52 0"/><polygon class="cls-3" points="151.18 92.14 151.18 30.37 133.09 92.14 151.18 92.14"/><path class="cls-1" d="M59.42,123.94l-.09,10.59h7.83c1,0,3.48.19,4.55-1.71a11.22,11.22,0,0,0,.77-3.63c0-2.49-.63-4.11-1.32-4.63-1-.76-3-.62-4.11-.62ZM74.18,107.6v3.92H59.42v8l9.08,0c2.78,0,4.83.74,6.16,2.19s2,3.88,2,7.24-.7,5.79-2.08,7.29-3.32,2.13-6.07,2.13H54.9V107.6Z"/><polygon class="cls-1" points="112.47 107.61 112.47 119.57 125.02 119.57 125.02 107.61 129.45 107.61 129.45 138.37 125.02 138.37 125.02 123.99 112.47 123.99 112.47 138.42 107.9 138.37 107.9 107.61 112.47 107.61"/><polygon class="cls-1" points="146.83 111.95 146.83 138.37 142.47 138.37 142.47 112 133.69 112 133.69 107.6 155.56 107.6 155.56 111.95 146.83 111.95"/><polygon class="cls-1" points="198.74 107.61 190.88 119.57 187.68 119.57 187.68 107.61 183.35 107.61 183.35 138.37 187.68 138.37 187.68 124.57 191.03 124.57 199.3 138.37 205.88 138.37 194.28 121.42 205.19 107.61 198.74 107.61"/><path class="cls-4" d="M166.33,124h-2c0,1.64,0,6.46.22,7.37s.84,3.23,2.92,3.23h11.68v3.77H165.78c-2.25,0-3.81-.73-4.68-2.21s-1.3-3.68-1.3-6.65v-13c0-3,.43-5.18,1.3-6.65s2.43-2.2,4.68-2.2h13.33v3.91H167c-1.24,0-2.29,1.52-2.49,2.44s-.16,4.13-.19,5.62h12.8V124Z"/><path class="cls-1" d="M1.11,160.14a10.13,10.13,0,0,0,.53,4.18c.36.59,1.22.89,2.57.89s2.2-.3,2.55-.89.53-2,.53-4.18-.17-3.6-.51-4.19-1.2-.89-2.57-.89-2.22.3-2.57.89-.53,2-.53,4.19m-1.11,0c0-2.59.28-4.28.83-5.08s1.69-1.19,3.4-1.19,2.82.39,3.36,1.19.81,2.48.81,5.08-.27,4.27-.81,5.07-1.68,1.2-3.39,1.2S1.38,166,.84,165.24,0,162.73,0,160.14"/><path class="cls-1" d="M12.11,160.62v4.46H15.4a1.82,1.82,0,0,0,1.55-.54,3.12,3.12,0,0,0,.36-1.77,2.6,2.6,0,0,0-.4-1.76,2.5,2.5,0,0,0-1.66-.39ZM11,154h6.62v1.2H12.11v4.24h3.35a3,3,0,0,1,2.31.72,4,4,0,0,1,.66,2.63,4.22,4.22,0,0,1-.68,2.69,2.81,2.81,0,0,1-2.27.81H11Z"/><polygon class="cls-1" points="22.15 159.42 27.25 159.42 27.25 160.62 22.15 160.62 22.15 165.07 27.46 165.07 27.46 166.27 21.04 166.27 21.04 153.98 27.49 153.98 27.49 155.18 22.15 155.18 22.15 159.42"/><path class="cls-1" d="M36.57,162.18h1.09a5.06,5.06,0,0,1-.82,3.32c-.54.6-1.6.9-3.16.9s-2.61-.38-3.13-1.14-.87-2.54-.87-5.08.29-4.24.85-5.1,1.59-1.22,3.15-1.22a4,4,0,0,1,3.12,1,4.85,4.85,0,0,1,.72,3H36.44a4.22,4.22,0,0,0-.58-2.21,2.83,2.83,0,0,0-2.18-.61,2.44,2.44,0,0,0-2.31,1,14.94,14.94,0,0,0,0,8.21,2.5,2.5,0,0,0,2.32,1A3.2,3.2,0,0,0,36,164.6a3.6,3.6,0,0,0,.57-2.42"/><polygon class="cls-1" points="39.86 153.98 47.94 153.98 47.94 166.27 46.84 166.27 46.84 155.18 40.97 155.18 40.97 166.27 39.86 166.27 39.86 153.98"/><polygon class="cls-1" points="51.87 159.42 56.97 159.42 56.97 160.62 51.87 160.62 51.87 165.07 57.18 165.07 57.18 166.27 50.76 166.27 50.76 153.98 57.2 153.98 57.2 155.18 51.87 155.18 51.87 159.42"/><path class="cls-1" d="M59.54,154h1.11v3.12c0,1.09.2,1.79.61,2.11a3.54,3.54,0,0,0,2,.36c.8,0,1.37,0,1.72,0a6,6,0,0,0,1-.18V154h1.11v12.29H66V160.5a7,7,0,0,1-1.36.21c-.56,0-1.11.06-1.66.06a3.62,3.62,0,0,1-2.73-.78,5,5,0,0,1-.68-3.13Z"/><polygon class="cls-1" points="71 153.98 71 165.34 76.7 153.98 78.48 153.98 78.48 166.27 77.37 166.27 77.37 155.03 71.66 166.27 69.89 166.27 69.89 153.98 71 153.98"/><path class="cls-1" d="M82.4,160.62v4.46h3.1a3,3,0,0,0,1.8-.36,2.46,2.46,0,0,0,.54-1.9,2.94,2.94,0,0,0-.39-1.86,2.17,2.17,0,0,0-1.49-.34Zm0-5.44v4.24h3.19a2,2,0,0,0,1.53-.48,2.87,2.87,0,0,0,.42-1.81,2.59,2.59,0,0,0-.32-1.54,1.45,1.45,0,0,0-1.21-.41Zm-1.11,11.09V154h4.83a2.39,2.39,0,0,1,1.92.7,3.49,3.49,0,0,1,.61,2.32,6,6,0,0,1-.18,1.75,1.85,1.85,0,0,1-1.06,1.08,2,2,0,0,1,1.26,1,4.83,4.83,0,0,1,.28,1.89,4.93,4.93,0,0,1-.55,2.6,2.19,2.19,0,0,1-2,1Z"/><path class="cls-1" d="M97.59,162.54,95.37,155l-2.21,7.55Zm-6.7,3.73L94.54,154h1.62l3.73,12.29H98.7L98,163.73H92.89l-.8,2.54Z"/><path class="cls-1" d="M108.35,160.16v-5h-3.56a1.55,1.55,0,0,0-1.44.65,3.76,3.76,0,0,0-.42,2,2.09,2.09,0,0,0,2.4,2.32Zm0,1.2h-3.09L103,166.27h-1.35l2.37-5.08a2.41,2.41,0,0,1-1.58-1.1,4.47,4.47,0,0,1-.63-2.51,4,4,0,0,1,.8-2.74A3.13,3.13,0,0,1,105,154h4.44v12.29h-1.11Z"/><path class="cls-1" d="M117.17,154h7.07v12.29h-1.12V155.18h-4.84v7.5a6.41,6.41,0,0,1-.4,2.67,1.52,1.52,0,0,1-1.49.92h-.71v-1.19H116a1,1,0,0,0,.93-.4,4,4,0,0,0,.29-1.85Z"/><polygon class="cls-1" points="128.16 153.98 128.16 165.34 133.86 153.98 135.64 153.98 135.64 166.27 134.53 166.27 134.53 155.03 128.81 166.27 127.05 166.27 127.05 153.98 128.16 153.98"/><path class="cls-1" d="M145.27,155.18h-4.59v5a16.34,16.34,0,0,1-.19,2.86,8.51,8.51,0,0,1-.68,2.07h5.46Zm-6.72,9.9a8,8,0,0,0,.79-2.18,13.37,13.37,0,0,0,.23-2.58V154h6.81v11.1h.73v4h-1v-2.82H139v2.82h-1v-4Z"/><polygon class="cls-1" points="150.44 159.42 155.54 159.42 155.54 160.62 150.44 160.62 150.44 165.07 155.75 165.07 155.75 166.27 149.33 166.27 149.33 153.98 155.78 153.98 155.78 155.18 150.44 155.18 150.44 159.42"/><path class="cls-1" d="M159.35,155.18v5.09H162a2.1,2.1,0,0,0,2.55-2.61,4.07,4.07,0,0,0-.31-1.89,1.49,1.49,0,0,0-1.39-.59Zm0,6.29v4.8h-1.11V154H163a2.35,2.35,0,0,1,2,.82,4.55,4.55,0,0,1,.61,2.68,5.12,5.12,0,0,1-.71,3.13,3.28,3.28,0,0,1-2.63.86Z"/><path class="cls-1" d="M174.71,162.18h1.09a5.06,5.06,0,0,1-.82,3.32c-.55.6-1.6.9-3.16.9s-2.6-.38-3.13-1.14-.87-2.54-.87-5.08.29-4.24.86-5.1,1.58-1.22,3.14-1.22a4,4,0,0,1,3.12,1,4.85,4.85,0,0,1,.72,3h-1.08a4.22,4.22,0,0,0-.58-2.21,2.83,2.83,0,0,0-2.18-.61,2.44,2.44,0,0,0-2.31,1,14.94,14.94,0,0,0,0,8.21,2.5,2.5,0,0,0,2.32,1,3.2,3.2,0,0,0,2.32-.61,3.66,3.66,0,0,0,.57-2.42"/><polygon class="cls-1" points="181.62 155.18 181.62 166.27 180.51 166.27 180.51 155.18 177.27 155.18 177.27 153.98 184.85 153.98 184.85 155.18 181.62 155.18"/><path class="cls-1" d="M188.09,160.62v4.46h3.1a3,3,0,0,0,1.8-.36,2.46,2.46,0,0,0,.54-1.9,2.94,2.94,0,0,0-.39-1.86,2.17,2.17,0,0,0-1.49-.34Zm0-5.44v4.24h3.19a2,2,0,0,0,1.53-.48,2.87,2.87,0,0,0,.42-1.81,2.59,2.59,0,0,0-.32-1.54,1.46,1.46,0,0,0-1.22-.41ZM187,166.27V154h4.83a2.42,2.42,0,0,1,1.93.7,3.55,3.55,0,0,1,.6,2.32,6,6,0,0,1-.18,1.75,1.85,1.85,0,0,1-1.06,1.08,2,2,0,0,1,1.26,1,4.65,4.65,0,0,1,.28,1.89,4.84,4.84,0,0,1-.55,2.6,2.19,2.19,0,0,1-2,1Z"/><path class="cls-1" d="M198,160.14a10.13,10.13,0,0,0,.53,4.18c.36.59,1.22.89,2.58.89s2.19-.3,2.55-.89a10.37,10.37,0,0,0,.52-4.18c0-2.21-.17-3.6-.51-4.19s-1.2-.89-2.56-.89-2.23.3-2.58.89a10.19,10.19,0,0,0-.53,4.19m-1.11,0c0-2.59.27-4.28.83-5.08s1.69-1.19,3.4-1.19,2.82.39,3.36,1.19.81,2.48.81,5.08-.27,4.27-.81,5.07-1.68,1.2-3.39,1.2-2.82-.39-3.36-1.17-.84-2.51-.84-5.1"/><path class="cls-4" d="M18.09,132.85a2.9,2.9,0,0,1-3,1.73H10c-1.91,0-2.65-.51-3.4-1.55a10,10,0,0,1-1.69-5.26V118.6a10,10,0,0,1,1.69-5.26c.75-1,1.49-1.55,3.4-1.55h5.08a3.13,3.13,0,0,1,3.18,1.75,6.55,6.55,0,0,1,.71,3h4.18a12.05,12.05,0,0,0-1.54-6.64c-1-1.54-2.34-2.31-5.11-2.31H7.35q-4.14,0-5.74,2.24C.53,111.33,0,113.57,0,116.57V129.8c0,3,.52,5.25,1.6,6.74s3,2.23,5.74,2.23h9.13c2.77,0,4.09-.77,5.11-2.31s1.53-3.74,1.54-6.64h-4.2a6.22,6.22,0,0,1-.84,3"/></svg>